# Blender v2.92.0 OBJ File: 'arrow.blend'
# www.blender.org
mtllib arrow.mtl
o Cube_Cube.001
v -1.000000 -1.000000 1.000000
v -1.000000 3.000000 1.000000
v -1.000000 -1.000000 -1.000000
v -1.000000 3.000000 -1.000000
v 1.000000 -1.000000 1.000000
v 1.000000 3.000000 1.000000
v 1.000000 -1.000000 -1.000000
v 1.000000 3.000000 -1.000000
v 0.000000 6.000000 1.000000
v 0.000000 6.000000 -1.000000
v 0.000000 6.000000 -1.000000
v 0.000000 6.000000 1.000000
v 0.000000 -1.000000 -1.000000
v 0.000000 3.000000 -1.000000
v 0.000000 -1.000000 1.000000
v 0.000000 3.000000 1.000000
v 0.000000 6.000000 -1.000000
v 0.000000 6.000000 1.000000
v -2.453118 3.000000 1.000000
v -2.453118 3.000000 -1.000000
v 2.453118 3.000000 -1.000000
v 2.453118 3.000000 1.000000
v 0.000000 6.000000 1.000000
v 0.000000 6.000000 -1.000000
v 0.000000 6.000000 -1.000000
v 0.000000 6.000000 1.000000
vt 0.375000 0.000000
vt 0.625000 0.000000
vt 0.625000 0.250000
vt 0.375000 0.250000
vt 0.375000 0.375000
vt 0.625000 0.375000
vt 0.625000 0.500000
vt 0.375000 0.500000
vt 0.625000 0.750000
vt 0.375000 0.750000
vt 0.375000 0.875000
vt 0.625000 0.875000
vt 0.625000 1.000000
vt 0.375000 1.000000
vt 0.250000 0.500000
vt 0.250000 0.750000
vt 0.750000 0.750000
vt 0.750000 0.500000
vt 0.750000 0.500000
vt 0.750000 0.750000
vt 0.750000 0.500000
vt 0.750000 0.750000
vt 0.687502 0.437502
vt 0.687502 0.812498
vt 0.687502 0.812498
vt 0.687502 0.437502
vt 0.625000 0.875000
vt 0.625000 0.875000
vt 0.625000 1.000000
vt 0.625000 0.875000
vt 0.625000 0.250000
vt 0.625000 0.375000
vt 0.625000 0.375000
vt 0.625000 0.375000
vt 0.625000 0.500000
vt 0.125000 0.500000
vt 0.125000 0.750000
vt 0.625000 0.750000
vt 0.625000 0.000000
vt 0.625000 0.000000
vn -1.0000 0.0000 0.0000
vn 0.0000 0.0000 -1.0000
vn 1.0000 0.0000 0.0000
vn 0.0000 0.0000 1.0000
vn 0.0000 -1.0000 0.0000
vn 0.7741 0.6330 0.0000
vn -0.7741 0.6330 0.0000
usemtl Material.002
s off
f 1/1/1 2/2/1 4/3/1 3/4/1
f 13/5/2 14/6/2 8/7/2 7/8/2
f 7/8/3 8/7/3 6/9/3 5/10/3
f 15/11/4 16/12/4 2/13/4 1/14/4
f 13/15/5 7/8/5 5/10/5 15/16/5
f 9/17/4 10/18/4 24/19/4 23/20/4
f 17/21/4 10/18/4 9/17/4 18/22/4
f 11/23/4 12/24/4 26/25/4 25/26/4
f 9/27/4 23/28/4 19/29/4 2/13/4 16/12/4 18/30/4
f 4/3/2 20/31/2 24/32/2 10/33/2 17/34/2 14/6/2
f 11/23/2 25/26/2 21/35/2 8/7/2 14/6/2 17/34/2
f 11/23/4 17/21/4 18/22/4 12/24/4
f 3/36/5 13/15/5 15/16/5 1/37/5
f 5/10/4 6/9/4 16/12/4 15/11/4
f 3/4/2 4/3/2 14/6/2 13/5/2
f 22/38/6 21/35/6 25/26/6 26/25/6
f 20/31/7 19/39/7 23/40/7 24/32/7
f 6/9/5 8/7/5 21/35/5 22/38/5
f 4/3/5 2/2/5 19/39/5 20/31/5
f 6/9/4 22/38/4 26/25/4 12/24/4 18/30/4 16/12/4
