# Blender v2.93.5 OBJ File: 'salisnuevos.blend'
# www.blender.org
mtllib sali8tres.mtl
o Plane.044_Plane.048
v 56.615292 50.293594 -6.672697
v 57.167667 8.106661 -0.353650
v 59.410820 -39.250195 -15.277330
v 31.131233 7.756737 0.287009
v 33.036747 -40.400757 -15.514736
v 6.835292 6.836897 -0.759377
v 9.413789 -39.940693 -16.377089
v -18.396545 47.908401 -7.918242
v -17.730762 6.072670 -0.250905
v -42.739910 5.782082 -0.984563
v 65.284302 51.759892 -6.502428
v -42.312317 -3.544004 -4.010195
v -54.416054 5.630389 -0.348264
v -78.051712 45.495190 -8.168520
v -17.230598 -24.630678 -10.729666
v 7.547204 43.689537 -7.602324
v 82.382820 -40.960842 -17.083288
v 31.055864 47.338551 -6.192286
v -66.980888 44.150063 -6.929144
v -67.746361 12.517591 1.957115
v 33.292133 -45.947212 -17.869362
v 71.308662 10.786593 0.830463
v -43.182987 41.768585 -7.709185
v -6.179097 -42.507614 -17.142515
v -48.259182 39.432858 -6.800535
v -53.883915 14.971847 2.335053
v -36.307621 -3.764171 -3.704159
v -32.677521 -25.711021 -10.962961
v -85.161537 23.480373 -1.237004
v -74.335373 11.006181 0.673811
v -53.330326 -1.977440 -2.611809
v -4.564040 -23.122643 -10.570778
v 20.765200 -50.122032 -19.443670
v 68.581535 37.237766 -4.119976
v 62.524761 -4.355957 16.629801
v 39.222416 49.847702 12.753363
v 40.675339 -41.890697 2.269515
v 18.139921 45.531460 13.502544
v 20.414711 -41.521564 3.901252
v -3.178136 42.845749 13.395923
v -1.916671 -43.444141 2.310828
v -24.587646 46.793831 12.696318
v -24.603514 -0.138144 16.612736
v -47.770691 41.436996 12.562651
v -49.044266 -3.228837 17.222271
v -58.128540 -2.755163 16.908009
v -15.662893 -45.325752 0.510902
v 45.590500 50.704445 11.832251
v -45.530605 -10.479792 14.032740
v -24.130854 -27.419565 6.572376
v 62.864361 -44.565552 1.663784
v -69.213600 43.879253 10.374378
v -70.418213 4.128341 18.397291
v 20.285191 -47.064304 1.356613
v 54.748764 2.083150 18.782648
v -52.302521 39.880688 12.308263
v -57.191868 5.138027 19.731213
v -41.323616 -10.325814 13.829312
v -38.078846 -28.401665 7.033078
v -78.953270 44.765854 10.867402
v -82.568665 17.464504 23.270182
v -72.714912 3.985837 18.286415
v -57.499958 -8.201844 13.837841
v -14.382595 -26.422415 7.476956
v 7.602472 -51.736835 -1.010270
v 51.383041 37.176125 15.239285
v -25.211519 2.548116 17.683840
v -37.276718 42.607491 12.257023
v -2.761760 -16.772261 11.550508
v 41.008327 -15.768755 11.085247
v -22.874273 -1.928609 15.867449
v 19.029955 -18.816746 11.329559
v 35.764435 -22.036800 9.141342
v -11.011899 -15.190117 11.772778
v -34.751228 14.836915 22.215847
v -32.325546 35.976406 13.246596
v 13.278388 -16.796913 12.006449
v 26.805067 47.826881 29.278963
v 29.751209 -1.498876 32.219879
v 9.449198 43.296352 28.197863
v 12.930063 -2.506675 31.730392
v -6.507425 40.801769 28.658825
v -5.230137 -2.754498 32.823074
v -21.343977 -3.631231 31.683735
v 36.225235 47.229317 28.881104
v 40.772324 -0.032562 31.865786
v -26.184849 44.725563 26.921070
v 35.759747 22.407166 40.461746
v -22.842157 -1.415353 32.463043
v -32.299580 42.405151 27.303270
v -5.306728 -15.617214 27.634228
v 29.888050 -13.799384 27.263166
v 12.389866 -18.619308 25.601675
v 24.878761 -21.297855 24.597654
v -11.401733 -14.495104 27.636877
v -30.977713 8.762537 35.583660
v -29.708624 24.953419 40.692097
v 6.594634 -16.046177 26.700745
v 49.713577 -42.648785 1.930297
v 62.553501 -22.712019 10.353982
v 51.231400 -41.833397 2.711886
v 73.934731 -22.361877 10.552788
v 56.174145 -22.645601 9.965673
v 59.860359 -28.235487 21.345203
v 60.158012 -45.023113 15.570971
v 48.817139 -45.407547 15.363274
v 60.573261 -45.924633 14.932509
v 52.622631 -44.907059 7.790634
v 69.986626 -28.297169 20.676998
v 53.272804 -27.882931 21.504023
vt 0.202037 0.148068
vt 0.169935 0.148017
vt 0.177942 0.106939
vt 0.204023 0.104201
vt 0.199919 0.242129
vt 0.093816 0.238523
vt 0.092577 0.180293
vt 0.168670 0.170561
vt 0.198003 0.334537
vt 0.036447 0.335887
vt 0.030070 0.276842
vt 0.096719 0.286371
vt 0.198272 0.426035
vt 0.032359 0.424625
vt 0.012673 0.424570
vt 0.000000 0.376745
vt 0.555393 0.124676
vt 0.554042 0.090550
vt 0.574293 0.092558
vt 0.581384 0.137409
vt 0.194712 0.523894
vt 0.032160 0.523928
vt 0.351751 0.147956
vt 0.235661 0.107844
vt 0.229783 0.055338
vt 0.361980 0.058939
vt 0.343899 0.128543
vt 0.351235 0.338904
vt 0.368814 0.242073
vt 0.358763 0.427887
vt 0.365529 0.524389
vt 0.224744 0.030270
vt 0.267394 0.000000
vt 0.369032 0.017501
vt 0.202106 0.577524
vt 0.369032 0.557207
vt 0.318688 0.567372
vt 0.547371 0.216805
vt 0.581274 0.153242
vt 0.644561 0.164238
vt 0.642505 0.216761
vt 0.912845 0.337310
vt 0.913113 0.386134
vt 0.857365 0.366713
vt 0.859494 0.343129
vt 0.726633 0.803132
vt 0.729275 0.772270
vt 0.786872 0.785838
vt 0.784362 0.808601
vt 0.690052 0.383316
vt 0.697126 0.299217
vt 0.726633 0.334462
vt 0.709962 0.382462
vt 0.912026 0.177468
vt 0.910811 0.258178
vt 0.853504 0.270426
vt 0.856502 0.209901
vt 0.693678 0.459492
vt 0.417911 0.127875
vt 0.422776 0.110744
vt 0.407748 0.047258
vt 0.530896 0.044802
vt 0.526645 0.094600
vt 0.916668 0.097207
vt 0.854160 0.143446
vt 0.735359 0.712227
vt 0.735977 0.690659
vt 0.786517 0.719207
vt 0.787020 0.740997
vt 0.562815 0.544158
vt 0.540388 0.515348
vt 0.603540 0.462493
vt 0.693298 0.499189
vt 0.626320 0.519055
vt 0.626258 0.543038
vt 0.405126 0.010699
vt 0.484081 0.000000
vt 0.531394 0.036156
vt 0.537891 0.214697
vt 0.494753 0.179643
vt 0.436685 0.185717
vt 0.413915 0.167382
vt 0.734952 0.627615
vt 0.788275 0.672343
vt 0.992807 0.662571
vt 0.994198 0.677928
vt 0.938052 0.662212
vt 0.937576 0.654831
vt 0.342663 0.941368
vt 0.303359 0.954866
vt 0.298387 0.882180
vt 0.342663 0.874091
vt 0.989685 0.218872
vt 0.990080 0.314901
vt 0.986954 0.409613
vt 0.911206 0.425800
vt 0.000633 0.921777
vt 0.000000 0.874091
vt 0.069131 0.910814
vt 0.066608 0.947522
vt 0.990080 0.000000
vt 0.990000 0.032938
vt 0.920586 0.073133
vt 0.982921 0.429280
vt 0.911655 0.443261
vt 0.281101 0.947817
vt 0.214030 0.953096
vt 0.215369 0.881419
vt 0.281101 0.874091
vt 0.986322 0.129595
vt 0.983101 0.498079
vt 0.918540 0.505582
vt 0.850987 0.183728
vt 0.846751 0.282214
vt 0.779877 0.212015
vt 0.779130 0.135153
vt 0.138670 0.899059
vt 0.141247 0.951216
vt 0.069131 0.941545
vt 0.071277 0.891629
vt 0.369032 0.877625
vt 0.400775 0.880874
vt 0.406281 0.954329
vt 0.378689 0.953238
vt 0.849888 0.094145
vt 0.853504 0.136456
vt 0.784188 0.087264
vt 0.778204 0.051790
vt 0.987308 0.539252
vt 0.916302 0.541805
vt 0.850627 0.035409
vt 0.783296 0.000000
vt 0.801590 0.847502
vt 0.799502 0.950397
vt 0.726633 0.944385
vt 0.733244 0.865003
vt 0.535170 0.578353
vt 0.418991 0.564426
vt 0.435404 0.500658
vt 0.801590 0.989886
vt 0.731814 0.989348
vt 0.369032 0.552640
vt 0.387825 0.479391
vt 0.141247 0.874091
vt 0.071229 0.882981
vt 0.281101 0.958871
vt 0.283202 0.886715
vt 0.141247 0.948806
vt 0.142586 0.874091
vt 0.212128 0.886343
vt 0.214030 0.948806
vt 0.000679 0.979908
vt 0.069131 1.000000
vt 0.426406 0.882358
vt 0.426406 0.950418
vt 0.852283 0.368517
vt 0.780239 0.295366
vt 0.780619 0.245975
vt 0.537063 0.289361
vt 0.540596 0.228712
vt 0.578824 0.265375
vt 0.582438 0.288218
vt 0.624817 0.442353
vt 0.611928 0.379630
vt 0.604777 0.297823
vt 0.599437 0.266906
vt 0.553765 0.223189
vt 0.638689 0.253482
vt 0.704571 0.247406
vt 0.578348 0.420697
vt 0.604235 0.401358
vt 0.992132 0.541805
vt 0.994198 0.563436
vt 0.941994 0.566265
vt 0.941434 0.552017
vt 0.604794 0.358137
vt 0.538112 0.357677
vt 0.585187 0.332950
vt 0.594507 0.354572
vt 0.534956 0.421000
vt 0.434139 0.283772
vt 0.419491 0.209889
vt 0.532868 0.223226
vt 0.425708 0.343880
vt 0.411885 0.409424
vt 0.531209 0.462549
vt 0.452429 0.445194
vt 0.413630 0.444800
vt 0.427397 0.186796
vt 0.442446 0.199175
vt 0.497870 0.193316
vt 0.728375 0.847502
vt 0.788275 0.845968
vt 0.856071 0.108331
vt 0.988711 0.621604
vt 0.936233 0.621768
vt 0.845652 0.628846
vt 0.846037 0.671488
vt 0.844951 0.663297
vt 0.846037 0.627615
vt 0.797863 0.660473
vt 0.797250 0.636483
vt 0.844951 0.627615
vt 0.844295 0.652187
vt 0.696658 0.493430
vt 0.630268 0.532448
vt 0.628811 0.507699
vt 0.689422 0.489772
vt 0.688339 0.532444
vt 0.730250 0.286967
vt 0.726633 0.250693
vt 0.796470 0.703236
vt 0.841007 0.689940
vt 0.851990 0.847502
vt 0.851990 0.915659
vt 0.801590 0.913909
vt 0.803270 0.852185
vt 0.778371 0.251724
vt 0.728965 0.242780
vt 0.000000 0.000000
vn -0.0673 0.2920 -0.9541
vn 0.0078 0.3130 -0.9497
vn -0.0209 0.3200 -0.9472
vn 0.0347 0.3155 -0.9483
vn 0.0279 0.3441 -0.9385
vn -0.0817 -0.4620 0.8831
vn -0.0161 0.3056 -0.9520
vn -0.0087 0.3904 -0.9206
vn -0.1219 -0.2388 -0.9634
vn -0.0161 -0.1813 -0.9833
vn -0.0116 -0.1547 -0.9879
vn 0.0429 -0.2559 -0.9657
vn 0.0338 -0.1813 -0.9829
vn 0.0669 -0.1719 -0.9828
vn 0.0739 -0.1571 -0.9848
vn 0.0575 -0.3498 0.9350
vn -0.3253 0.9391 0.1104
vn -0.1845 -0.9820 0.0399
vn -0.0269 -0.4056 0.9137
vn -0.1363 0.9869 0.0863
vn 0.0654 -0.4176 0.9063
vn 0.0161 0.1638 0.9864
vn -0.2241 0.9744 -0.0187
vn -0.3850 -0.9111 -0.1473
vn -0.0621 -0.3317 0.9414
vn 0.3660 0.2235 0.9034
vn -0.1677 0.0591 0.9841
vn -0.2066 -0.9742 -0.0911
vn -0.8646 -0.5022 0.0172
vn -0.1718 -0.9076 -0.3831
vn 0.1665 0.9795 0.1138
vn -0.2333 0.9724 0.0018
vn 0.1157 -0.9866 -0.1152
vn -0.1573 0.9808 -0.1155
vn -0.3791 0.9214 -0.0858
vn -0.8734 0.2197 -0.4346
vn -0.1554 0.9858 -0.0636
vn 0.2355 0.9712 0.0359
vn 0.2383 -0.9653 0.1071
vn 0.1412 -0.8818 -0.4500
vn -0.1394 0.9901 -0.0165
vn -0.9831 0.1262 -0.1328
vn -0.6528 -0.5618 -0.5082
vn 0.1053 0.9938 0.0364
vn 0.1564 -0.9843 -0.0817
vn 0.3073 -0.9404 0.1453
vn -0.9679 0.2398 0.0747
vn 0.7118 0.1647 0.6828
vn -0.7836 -0.6113 -0.1108
vn 0.6639 0.3514 0.6602
vn 0.2277 -0.8898 -0.3956
vn -0.0025 -0.9348 -0.3552
vn -0.9535 -0.0601 -0.2952
vn 0.0684 -0.9892 -0.1297
vn -0.9704 -0.0295 -0.2397
vn -0.1075 -0.9569 -0.2699
vn -0.0515 -0.3808 0.9232
vn 0.0626 -0.3104 0.9485
vn -0.0551 -0.3378 0.9396
vn 0.6173 -0.6213 0.4826
vn -0.9653 -0.2366 0.1100
vn 0.0220 -0.3660 0.9304
vn -0.0302 -0.3228 0.9460
vn 0.0523 -0.3698 0.9276
vn 0.0034 -0.3588 0.9334
vn -0.0412 0.0949 0.9946
vn -0.0562 0.0640 0.9964
vn 0.0383 0.0878 0.9954
vn -0.4569 0.0097 0.8895
vn 0.0792 -0.3718 0.9249
vn 0.7093 0.1460 0.6896
vn -0.0152 -0.9982 0.0572
vn -0.7410 -0.6715 0.0053
vn 0.5813 -0.6455 0.4954
vn -0.0029 0.9872 0.1597
vn 0.7774 0.0582 0.6263
vn -0.7924 -0.6084 -0.0440
vn 0.7430 0.3306 0.5819
vn -0.9725 0.1171 0.2013
vn 0.1762 0.9705 0.1648
vn -0.0429 -0.9987 0.0267
vn 0.0214 0.9001 0.4352
vn -0.0277 -0.6644 0.7469
vn -0.0020 -0.3278 0.9447
vn -0.0767 -0.9801 -0.1829
vn -0.0014 0.8791 0.4766
vn -0.9532 0.2829 -0.1064
vn -0.7486 -0.6378 -0.1810
vn 0.5519 0.4271 0.7162
vn 0.9142 -0.1298 0.3839
vn 0.8734 -0.4798 0.0833
vn 0.6334 -0.5383 0.5559
vn -0.0156 0.8273 -0.5615
vn -0.0254 0.2795 0.9598
vn 0.9693 0.1367 0.2043
vn 0.0855 -0.3365 0.9378
usemtl Material.010
s off
f 10/1/1 12/2/1 31/3/1 13/4/1
f 9/5/2 15/6/2 28/7/2 27/8/2 12/2/2 10/1/2
f 6/9/3 7/10/3 24/11/3 32/12/3 15/6/3 9/5/3
f 4/13/4 5/14/4 7/10/4 6/9/4
f 5/14/5 21/15/5 33/16/5 7/10/5
f 45/17/6 46/18/6 63/19/6 49/20/6
f 2/21/7 3/22/7 5/14/7 4/13/7
f 3/22/8 21/15/8 5/14/8
f 23/23/9 10/1/9 13/4/9 26/24/9 20/25/9 19/26/9 25/27/9
f 16/28/10 6/9/10 9/5/10 8/29/10
f 18/30/11 1/31/11 2/21/11 4/13/11
f 19/26/12 20/25/12 30/32/12 29/33/12 14/34/12
f 23/23/13 8/29/13 9/5/13 10/1/13
f 18/30/14 4/13/14 6/9/14 16/28/14
f 22/35/15 2/21/15 1/31/15 11/36/15 34/37/15
f 43/38/16 45/17/16 49/20/16 58/39/16 59/40/16 50/41/16
f 42/42/17 68/43/17 90/44/17 87/45/17
f 74/46/18 69/47/18 91/48/18 95/49/18
f 39/50/19 41/51/19 65/52/19 54/53/19
f 38/54/20 40/55/20 82/56/20 80/57/20
f 37/58/21 39/50/21 54/53/21
f 44/59/22 56/60/22 52/61/22 53/62/22 57/63/22 46/18/22 45/17/22
f 36/64/23 38/54/23 80/57/23 78/65/23
f 77/66/24 72/67/24 93/68/24 98/69/24
f 35/70/25 55/71/25 70/72/25 37/58/25 101/73/25 103/74/25 100/75/25
f 52/61/26 60/76/26 61/77/26 62/78/26 53/62/26
f 44/59/27 45/17/27 43/38/27 67/79/27 75/80/27 76/81/27 68/82/27
f 72/67/28 73/83/28 94/84/28 93/68/28
f 67/85/29 71/86/29 84/87/29 89/88/29
f 31/89/30 12/90/30 49/91/30 63/92/30
f 16/93/31 8/94/31 42/42/31 40/55/31
f 8/94/32 23/95/32 44/96/32 68/43/32 42/42/32
f 15/97/33 32/98/33 64/99/33 50/100/33
f 11/101/34 1/102/34 36/64/34 48/103/34
f 23/95/35 25/104/35 56/105/35 44/96/35
f 32/106/36 24/107/36 47/108/36 64/109/36
f 1/102/37 18/110/37 38/54/37 36/64/37
f 25/104/38 19/111/38 52/112/38 56/105/38
f 21/113/39 3/114/39 37/115/39 54/116/39
f 20/117/40 26/118/40 57/119/40 53/120/40
f 18/110/41 16/93/41 40/55/41 38/54/41
f 26/121/42 13/122/42 46/123/42 57/124/42
f 7/125/43 33/126/43 65/127/43 41/128/43
f 19/111/44 14/129/44 60/130/44 52/112/44
f 24/131/45 7/125/45 41/128/45 47/132/45
f 33/126/46 21/113/46 54/116/46 65/127/46
f 14/133/47 29/134/47 61/135/47 60/136/47
f 22/137/48 34/138/48 66/139/48 55/71/48
f 29/134/49 30/140/49 62/141/49 61/135/49
f 34/138/50 11/142/50 48/143/50 66/139/50
f 30/144/51 20/117/51 53/120/51 62/145/51
f 12/90/52 27/146/52 58/147/52 49/91/52
f 27/148/53 28/149/53 59/150/53 58/151/53
f 28/152/54 15/97/54 50/100/54 59/153/54
f 13/122/55 31/154/55 63/155/55 46/123/55
f 3/114/56 17/156/56 51/157/56 99/158/56 37/115/56
f 83/159/57 84/160/57 95/161/57 91/162/57
f 70/72/58 73/163/58 72/164/58 39/50/58 37/58/58
f 69/165/59 74/166/59 71/167/59 43/38/59 50/41/59 64/168/59 47/169/59 41/51/59
f 73/163/60 70/72/60 92/170/60 94/171/60
f 68/172/61 76/173/61 97/174/61 90/175/61
f 71/167/62 67/79/62 43/38/62
f 72/164/63 77/176/63 69/165/63 41/51/63 39/50/63
f 81/177/64 83/159/64 91/162/64 98/178/64 93/179/64
f 79/180/65 81/177/65 93/179/65 94/171/65 92/170/65
f 82/181/66 87/182/66 89/183/66 84/160/66 83/159/66
f 80/184/67 81/177/67 79/180/67 78/185/67
f 80/184/68 82/181/68 83/159/68 81/177/68
f 86/186/69 88/187/69 85/188/69 78/185/69 79/180/69
f 92/170/70 86/186/70 79/180/70
f 90/189/71 97/190/71 96/191/71 89/183/71 87/182/71
f 69/47/72 77/66/72 98/69/72 91/48/72
f 71/192/73 74/46/73 95/49/73 84/193/73
f 70/72/74 55/71/74 86/186/74 92/170/74
f 48/103/75 36/64/75 78/65/75 85/194/75
f 55/71/76 66/139/76 88/187/76 86/186/76
f 75/195/77 67/85/77 89/88/77 96/196/77
f 66/139/78 48/143/78 85/188/78 88/187/78
f 76/173/79 75/195/79 96/196/79 97/174/79
f 40/55/80 42/42/80 87/45/80 82/56/80
f 105/197/81 106/198/81 108/199/81 107/200/81
f 100/201/82 103/202/82 110/203/82 104/204/82
f 99/205/83 101/73/83 37/58/83
f 104/206/84 110/207/84 106/208/84 105/209/84
f 99/158/85 51/157/85 107/210/85 108/211/85
f 102/212/86 100/201/86 104/204/86 109/213/86
f 103/214/87 101/215/87 106/216/87 110/217/87
f 101/218/88 99/158/88 108/211/88 106/219/88
f 55/71/89 35/70/89 22/137/89
f 100/75/90 22/137/90 35/70/90
f 102/212/91 109/213/91 107/210/91 51/157/91
f 51/157/92 17/156/92 102/212/92
f 102/212/93 17/156/93 100/220/93
f 100/75/94 102/212/94 22/137/94
f 102/212/95 17/156/95 22/137/95
f 105/197/96 107/200/96 109/213/96 104/204/96
