# Blender v2.93.5 OBJ File: 'corason.blend'
# www.blender.org
mtllib palos.mtl
o Cube.002
v 5.431346 -0.212560 11.193490
v 6.471297 -0.683784 10.745389
v 5.779322 0.904718 10.826141
v 6.819273 0.433495 10.378040
v -5.078092 -3.739268 -9.488086
v -4.038140 -4.210491 -9.936187
v -4.730115 -2.621990 -9.855434
v -3.690164 -3.093213 -10.303535
v 10.490936 -2.079786 2.318314
v 10.980096 -1.731131 1.248966
v 10.371920 -0.904187 2.647169
v 10.861080 -0.555532 1.577821
v -10.906494 -1.555807 -7.298826
v -10.417336 -1.207152 -8.368175
v -11.025511 -0.380208 -6.969973
v -10.536352 -0.031553 -8.039320
v -8.074001 -1.850652 11.004987
v -8.209691 -0.639706 11.144777
v -9.162442 -1.907681 10.442504
v -9.298132 -0.696735 10.582295
v 2.426167 1.713205 -9.674942
v 2.290477 2.924151 -9.535151
v 1.337725 1.656175 -10.237424
v 1.202036 2.867122 -10.097631
v -10.861991 -1.529291 1.058235
v -10.861992 -0.302774 1.058234
v -10.861992 -1.529292 -0.168283
v -10.861992 -0.302774 -0.168283
v 12.603170 -1.529291 1.058237
v 12.603173 -0.302774 1.058238
v 12.603172 -1.529292 -0.168279
v 12.603170 -0.302774 -0.168279
v -10.549083 3.934592 2.759001
v -10.188160 4.582033 3.736188
v -10.472048 4.941741 2.063255
v -10.111122 5.589181 3.040445
v 11.828633 -1.156522 -2.133089
v 12.189558 -0.509081 -1.155900
v 11.905667 -0.149373 -2.828833
v 12.266596 0.498068 -1.851645
v -9.335858 1.307930 -5.403727
v -9.259545 2.529410 -5.323066
v -8.669561 1.334278 -6.433143
v -8.593249 2.555759 -6.352484
v 10.310759 -0.755712 7.259840
v 10.387070 0.465768 7.340500
v 10.977055 -0.729363 6.230423
v 11.053368 0.492119 6.311082
vt 0.375000 0.000000
vt 0.625000 0.000000
vt 0.625000 0.250000
vt 0.375000 0.250000
vt 0.625000 0.500000
vt 0.375000 0.500000
vt 0.625000 0.750000
vt 0.375000 0.750000
vt 0.625000 1.000000
vt 0.375000 1.000000
vt 0.125000 0.500000
vt 0.125000 0.750000
vt 0.875000 0.500000
vt 0.875000 0.750000
vt 0.375000 0.000000
vt 0.625000 0.000000
vt 0.625000 0.250000
vt 0.375000 0.250000
vt 0.625000 0.500000
vt 0.375000 0.500000
vt 0.625000 0.750000
vt 0.375000 0.750000
vt 0.625000 1.000000
vt 0.375000 1.000000
vt 0.125000 0.500000
vt 0.125000 0.750000
vt 0.875000 0.500000
vt 0.875000 0.750000
vt 0.375000 0.000000
vt 0.625000 0.000000
vt 0.625000 0.250000
vt 0.375000 0.250000
vt 0.625000 0.500000
vt 0.375000 0.500000
vt 0.625000 0.750000
vt 0.375000 0.750000
vt 0.625000 1.000000
vt 0.375000 1.000000
vt 0.125000 0.500000
vt 0.125000 0.750000
vt 0.875000 0.500000
vt 0.875000 0.750000
vt 0.375000 0.000000
vt 0.625000 0.000000
vt 0.625000 0.250000
vt 0.375000 0.250000
vt 0.625000 0.500000
vt 0.375000 0.500000
vt 0.625000 0.750000
vt 0.375000 0.750000
vt 0.625000 1.000000
vt 0.375000 1.000000
vt 0.125000 0.500000
vt 0.125000 0.750000
vt 0.875000 0.500000
vt 0.875000 0.750000
vt 0.375000 0.000000
vt 0.625000 0.000000
vt 0.625000 0.250000
vt 0.375000 0.250000
vt 0.625000 0.500000
vt 0.375000 0.500000
vt 0.625000 0.750000
vt 0.375000 0.750000
vt 0.625000 1.000000
vt 0.375000 1.000000
vt 0.125000 0.500000
vt 0.125000 0.750000
vt 0.875000 0.500000
vt 0.875000 0.750000
vt 0.375000 0.000000
vt 0.625000 0.000000
vt 0.625000 0.250000
vt 0.375000 0.250000
vt 0.625000 0.500000
vt 0.375000 0.500000
vt 0.625000 0.750000
vt 0.375000 0.750000
vt 0.625000 1.000000
vt 0.375000 1.000000
vt 0.125000 0.500000
vt 0.125000 0.750000
vt 0.875000 0.500000
vt 0.875000 0.750000
vn 0.4479 0.1503 0.8814
vn 0.2837 0.9109 -0.2995
vn -0.4479 -0.1503 -0.8814
vn -0.2837 -0.9109 0.2995
vn -0.8479 0.3842 0.3653
vn 0.8479 -0.3842 -0.3653
vn 0.9119 -0.0223 0.4098
vn -0.0970 0.9585 0.2681
vn -0.9119 0.0223 -0.4098
vn 0.0970 -0.9585 -0.2681
vn -0.3988 -0.2843 0.8719
vn 0.3988 0.2843 -0.8719
vn -0.4475 -0.1519 0.8813
vn -0.8874 -0.0465 -0.4586
vn 0.4475 0.1519 -0.8813
vn 0.8874 0.0465 0.4586
vn 0.1106 -0.9873 -0.1140
vn -0.1106 0.9873 0.1140
vn -1.0000 0.0000 0.0000
vn 0.0000 0.0000 -1.0000
vn 1.0000 -0.0000 -0.0000
vn -0.0000 -0.0000 1.0000
vn -0.0000 -1.0000 0.0000
vn 0.0000 1.0000 -0.0000
vn -0.9537 0.2170 0.2085
vn 0.0628 0.8211 -0.5673
vn 0.9537 -0.2170 -0.2085
vn -0.0628 -0.8211 0.5673
vn -0.2943 -0.5279 -0.7967
vn 0.2943 0.5279 0.7967
vn -0.8373 0.0879 -0.5397
vn 0.5432 0.0215 -0.8393
vn 0.8373 -0.0879 0.5397
vn -0.5432 -0.0215 0.8393
vn -0.0622 -0.9959 -0.0658
vn 0.0622 0.9959 0.0658
usemtl Material.002
s off
f 1/1/1 2/2/1 4/3/1 3/4/1
f 3/4/2 4/3/2 8/5/2 7/6/2
f 7/6/3 8/5/3 6/7/3 5/8/3
f 5/8/4 6/7/4 2/9/4 1/10/4
f 3/11/5 7/6/5 5/8/5 1/12/5
f 8/5/6 4/13/6 2/14/6 6/7/6
f 9/15/7 10/16/7 12/17/7 11/18/7
f 11/18/8 12/17/8 16/19/8 15/20/8
f 15/20/9 16/19/9 14/21/9 13/22/9
f 13/22/10 14/21/10 10/23/10 9/24/10
f 11/25/11 15/20/11 13/22/11 9/26/11
f 16/19/12 12/27/12 10/28/12 14/21/12
f 17/29/13 18/30/13 20/31/13 19/32/13
f 19/32/14 20/31/14 24/33/14 23/34/14
f 23/34/15 24/33/15 22/35/15 21/36/15
f 21/36/16 22/35/16 18/37/16 17/38/16
f 19/39/17 23/34/17 21/36/17 17/40/17
f 24/33/18 20/41/18 18/42/18 22/35/18
f 25/43/19 26/44/19 28/45/19 27/46/19
f 27/46/20 28/45/20 32/47/20 31/48/20
f 31/48/21 32/47/21 30/49/21 29/50/21
f 29/50/22 30/49/22 26/51/22 25/52/22
f 27/53/23 31/48/23 29/50/23 25/54/23
f 32/47/24 28/55/24 26/56/24 30/49/24
f 33/57/25 34/58/25 36/59/25 35/60/25
f 35/60/26 36/59/26 40/61/26 39/62/26
f 39/62/27 40/61/27 38/63/27 37/64/27
f 37/64/28 38/63/28 34/65/28 33/66/28
f 35/67/29 39/62/29 37/64/29 33/68/29
f 40/61/30 36/69/30 34/70/30 38/63/30
f 41/71/31 42/72/31 44/73/31 43/74/31
f 43/74/32 44/73/32 48/75/32 47/76/32
f 47/76/33 48/75/33 46/77/33 45/78/33
f 45/78/34 46/77/34 42/79/34 41/80/34
f 43/81/35 47/76/35 45/78/35 41/82/35
f 48/75/36 44/83/36 42/84/36 46/77/36
