# Blender v2.93.5 OBJ File: 'salisnuevos.blend'
# www.blender.org
mtllib sali42.mtl
o Cube.007_Cube.006
v 35.938583 8.453562 26.933432
v 35.292145 3.702799 21.518551
v 38.847000 -5.680005 10.334110
v 13.898478 23.202166 23.036171
v 15.236050 13.166265 19.635118
v 18.137577 7.699429 15.169746
v 16.790249 2.411154 11.616528
v 18.423679 -7.218626 9.788542
v 19.313953 -17.032722 9.837358
v -1.842865 18.595737 25.967810
v -0.328111 6.874625 18.847887
v -3.459084 0.675469 19.493465
v -2.686198 -9.140849 8.328091
v -1.795923 -18.954945 8.376905
v -22.342684 24.769869 27.646679
v -22.092937 10.379524 25.098007
v -21.437994 4.952402 17.387436
v -23.783047 -0.436475 18.037292
v -23.070951 -11.821198 6.699778
v -22.570614 -20.951656 7.122898
v -45.344872 -12.302818 5.461928
v 19.269817 -18.066189 10.126783
v -2.050879 27.130388 27.364458
v -1.848988 -21.839973 6.740688
v -39.877228 3.253813 15.811599
v -11.530275 -19.721853 7.707730
v 32.762943 19.282269 32.558685
v -43.692928 -3.199984 5.737368
v 37.373726 -15.992849 10.285805
v -41.697639 22.950251 25.254131
v -41.362637 10.032810 23.185240
v 30.958395 29.261026 36.482082
v 5.635435 25.821245 25.743742
v 6.512636 -23.014929 8.188983
v 33.060802 8.202817 0.493727
v 31.419926 -3.336253 -8.600401
v 31.127506 -9.437437 -9.019370
v 12.861790 23.542999 3.308768
v 15.308031 9.719069 -5.013037
v 18.959969 1.581764 -18.768814
v 18.349636 -1.271384 -23.098024
v 16.023506 -10.600878 -10.520581
v 15.961824 -18.372883 -10.282209
v -0.609153 9.084651 -0.094193
v -2.155026 2.144297 -11.554750
v -0.846573 -5.416134 -11.838915
v -1.358458 -13.720017 -11.283342
v -1.058714 -19.910555 -10.583664
v -16.992496 22.489948 6.904510
v -16.149864 7.736695 0.260486
v -18.221798 0.426428 -12.530159
v -16.606033 -7.046504 -12.799522
v -16.610291 -14.571442 -12.758009
v -16.239609 -21.579208 -12.624641
v -33.683037 -15.106358 -12.984581
v 15.917793 -19.176800 -10.384961
v -1.244797 21.603756 4.706506
v -1.087783 -22.262087 -10.694344
v -30.658730 -3.705046 -9.605302
v -8.090482 -20.518887 -11.625803
v 29.343143 15.156631 7.554742
v -31.976357 -7.485507 -13.671736
v 29.699371 -17.423161 -9.079064
v -31.814884 21.840187 6.803853
v -30.483604 6.327512 -0.905454
v 26.859455 26.397629 12.438564
v 4.422040 20.932112 3.769254
v 4.998055 -23.485659 -10.865633
vt 0.800383 0.390482
vt 0.712125 0.406604
vt 0.744512 0.530464
vt 0.816352 0.532395
vt 0.670086 0.393715
vt 0.693299 0.510242
vt 0.431687 0.554305
vt 0.516893 0.555178
vt 0.525221 0.436461
vt 0.439314 0.444052
vt 0.533426 0.554036
vt 0.535951 0.434576
vt 0.844474 0.247392
vt 0.768434 0.262489
vt 0.871408 0.378323
vt 0.855758 0.308947
vt 0.692395 0.277586
vt 0.643597 0.260470
vt 0.420896 0.680142
vt 0.506416 0.673600
vt 0.518404 0.672683
vt 0.817985 0.114148
vt 0.741946 0.129245
vt 0.665425 0.154578
vt 0.319911 0.777144
vt 0.381040 0.785854
vt 0.385189 0.667915
vt 0.440573 0.772889
vt 0.468304 0.766849
vt 0.498376 0.718078
vt 0.718597 0.000485
vt 0.648979 0.029379
vt 0.395250 0.906939
vt 0.464632 0.914315
vt 0.505335 0.896263
vt 0.799830 0.000000
vt 0.535951 0.888579
vt 0.866576 0.245830
vt 0.826143 0.113285
vt 0.871408 0.190736
vt 0.374538 0.197117
vt 0.363075 0.259830
vt 0.419731 0.239690
vt 0.430887 0.186494
vt 0.542258 0.215965
vt 0.486712 0.183419
vt 0.060005 0.361574
vt 0.101443 0.434266
vt 0.168617 0.432595
vt 0.165721 0.340832
vt 0.239520 0.431537
vt 0.228617 0.337993
vt 0.270067 0.526261
vt 0.293658 0.525192
vt 0.319911 0.526732
vt 0.319911 0.471536
vt 0.273260 0.477538
vt 0.389778 0.146678
vt 0.451288 0.130638
vt 0.507923 0.126377
vt 0.055303 0.259870
vt 0.155966 0.243299
vt 0.201070 0.241418
vt 0.363786 0.093941
vt 0.344697 0.157489
vt 0.421671 0.081820
vt 0.470847 0.000000
vt 0.529273 0.004464
vt 0.624293 0.153288
vt 0.643597 0.069756
vt 0.126170 0.148913
vt 0.188892 0.206849
vt 0.191959 0.154171
vt 0.101306 0.782852
vt 0.123502 0.823861
vt 0.213725 0.851782
vt 0.142821 0.759217
vt 0.261708 0.816737
vt 0.245612 0.655513
vt 0.120784 0.030417
vt 0.000000 0.148549
vt 0.183843 0.045205
vt 0.322381 0.206079
vt 0.047722 0.813315
vt 0.068305 0.849411
vt 0.224713 0.054892
vt 0.271323 0.544658
vt 0.535951 0.522221
vt 0.539280 0.522221
vt 0.537636 0.434576
vt 0.326863 0.160317
vt 0.357563 0.094722
vt 0.319911 0.138710
vt 1.000000 0.413946
vt 0.876638 0.384120
vt 0.881746 0.465567
vt 0.997104 0.520583
vt 0.619556 0.434576
vt 0.643597 0.304657
vt 0.591515 0.259030
vt 0.610881 0.426907
vt 0.538610 0.369863
vt 0.319911 0.000000
vt 0.259008 0.123841
vt 0.136915 0.527989
vt 0.257067 0.605713
vt 0.148613 0.495609
vt 0.261708 0.573682
vt 0.149542 0.471536
vt 0.129254 0.600916
vt 0.480554 0.370131
vt 0.411147 0.387501
vt 0.318481 0.346643
vt 0.319911 0.471536
vt 0.069927 0.655838
vt 0.309359 0.219063
vt 0.994045 0.226882
vt 0.875816 0.238799
vt 0.877161 0.286539
vt 0.982670 0.290898
vt 0.987280 0.345962
vt 0.872752 0.326778
vt 0.289633 0.172602
vt 1.000000 0.000000
vt 0.882152 0.067757
vt 0.871408 0.190563
vt 0.992916 0.161489
vt 0.000000 0.694309
vn -0.2365 -0.4709 0.8499
vn -0.2340 -0.5280 0.8164
vn -0.0158 -0.7784 0.6276
vn -0.0999 -0.1680 0.9807
vn -0.0718 0.0154 0.9973
vn 0.0158 -0.7272 0.6862
vn -0.0802 0.1481 0.9857
vn 0.1145 -0.6415 0.7585
vn 0.0298 -0.1690 0.9852
vn -0.0689 -0.0013 0.9976
vn 0.1756 -0.5318 0.8285
vn 0.2896 -0.3394 0.8950
vn 0.1682 -0.5209 0.8369
vn 0.2356 -0.2392 0.9419
vn -0.1696 -0.5877 0.7911
vn -0.3989 -0.5656 0.7218
vn -0.3848 -0.5854 0.7136
vn -0.0564 0.0431 0.9975
vn -0.0259 0.0008 0.9997
vn -0.4788 -0.3670 0.7975
vn -0.0210 -0.4929 0.8698
vn -0.0395 0.2710 0.9618
vn -0.1063 -0.1825 0.9774
vn 0.0354 -0.0520 -0.9980
vn -0.1265 0.3537 -0.9268
vn -0.1995 0.7726 -0.6027
vn 0.0089 0.4290 -0.9033
vn 0.1183 -0.0499 -0.9917
vn 0.0814 -0.0402 -0.9959
vn 0.0557 0.0475 -0.9973
vn -0.0741 0.8646 -0.4970
vn -0.0807 0.3820 -0.9206
vn 0.0398 -0.0663 -0.9970
vn -0.1157 -0.5813 -0.8054
vn -0.4162 0.3448 -0.8413
vn -0.1707 0.8393 -0.5161
vn -0.2256 0.4217 -0.8782
vn 0.3756 -0.6121 -0.6959
vn 0.6643 0.4516 -0.5956
vn 0.2306 0.8248 -0.5163
vn 0.0138 -0.0183 -0.9997
vn 0.0948 -0.0202 -0.9953
vn 0.4412 0.4847 -0.7553
vn 0.1427 0.0448 -0.9888
vn 0.0782 0.1222 -0.9894
vn 0.0034 0.0899 -0.9959
vn 0.1177 -0.9926 0.0307
vn -0.8895 0.1011 -0.4456
vn -0.8473 0.3310 -0.4153
vn -0.2587 0.9656 -0.0253
vn 0.8828 0.4464 -0.1461
vn 0.9461 0.2672 -0.1831
vn 0.9928 -0.0383 -0.1136
vn -0.8278 0.1529 -0.5398
vn -0.4516 0.7926 -0.4097
vn -0.0636 0.9918 -0.1105
vn 0.8686 0.4011 -0.2910
vn -0.0528 0.9815 -0.1840
vn -0.2255 -0.9742 0.0065
vn 0.3648 -0.9310 -0.0077
vn 0.1002 0.9687 -0.2270
vn -0.3473 -0.9344 -0.0797
vn -0.1661 -0.9857 0.0275
vn 0.1130 -0.9915 0.0644
vn -0.0199 0.9940 -0.1073
vn 0.9260 -0.1448 -0.3488
usemtl Material.014
s off
f 19/1/1 18/2/1 28/3/1 21/4/1
f 18/2/2 17/5/2 25/6/2 28/3/2
f 17/7/3 16/8/3 31/9/3 25/10/3
f 16/8/4 15/11/4 30/12/4 31/9/4
f 14/13/5 13/14/5 19/1/5 20/15/5 26/16/5
f 13/14/6 12/17/6 18/2/6 19/1/6
f 12/17/7 11/18/7 17/5/7 18/2/7
f 11/19/8 10/20/8 16/8/8 17/7/8
f 10/20/9 23/21/9 15/11/9 16/8/9
f 9/22/10 8/23/10 13/14/10 14/13/10
f 8/23/11 7/24/11 12/17/11 13/14/11
f 7/25/12 6/26/12 11/19/12 12/27/12
f 6/26/13 5/28/13 10/20/13 11/19/13
f 5/28/14 4/29/14 33/30/14 23/21/14 10/20/14
f 3/31/15 2/32/15 7/24/15 8/23/15
f 2/33/16 1/34/16 6/26/16 7/25/16
f 1/34/17 27/35/17 5/28/17 6/26/17
f 21/4/18 20/15/18 19/1/18
f 29/36/19 3/31/19 8/23/19 9/22/19
f 27/35/20 32/37/20 4/29/20 5/28/20
f 26/16/21 24/38/21 14/13/21
f 22/39/22 29/36/22 9/22/22
f 24/38/23 34/40/23 22/39/23 9/22/23 14/13/23
f 53/41/24 55/42/24 62/43/24 52/44/24
f 52/44/25 62/43/25 59/45/25 51/46/25
f 51/47/26 59/48/26 65/49/26 50/50/26
f 50/50/27 65/49/27 64/51/27 49/52/27
f 48/53/28 60/54/28 54/55/28 53/56/28 47/57/28
f 47/58/29 53/41/29 52/44/29 46/59/29
f 46/59/30 52/44/30 51/46/30 45/60/30
f 45/61/31 51/47/31 50/50/31 44/62/31
f 44/62/32 50/50/32 49/52/32 57/63/32
f 43/64/33 48/65/33 47/58/33 42/66/33
f 42/66/34 47/58/34 46/59/34 41/67/34
f 41/67/35 46/59/35 45/60/35 40/68/35
f 40/68/36 45/60/36 44/69/36 39/70/36
f 39/71/37 44/62/37 57/63/37 67/72/37 38/73/37
f 37/74/38 42/75/38 41/76/38 36/77/38
f 36/77/39 41/76/39 40/78/39 35/79/39
f 35/80/40 40/81/40 39/71/40 61/82/40
f 55/42/41 53/41/41 54/83/41
f 63/84/42 43/85/42 42/75/42 37/74/42
f 61/82/43 39/71/43 38/73/43 66/86/43
f 60/54/44 48/53/44 58/87/44
f 56/88/45 43/89/45 63/90/45
f 58/91/46 48/65/46 43/64/46 56/92/46 68/93/46
f 22/94/47 56/95/47 63/96/47 29/97/47
f 30/98/48 64/99/48 65/100/48 31/101/48
f 31/101/49 65/100/49 59/45/49 25/102/49
f 32/103/50 66/86/50 38/73/50 4/104/50
f 1/105/51 35/79/51 61/106/51 27/107/51
f 27/107/52 61/106/52 66/108/52 32/109/52
f 2/110/53 36/77/53 35/79/53 1/105/53
f 28/111/54 62/43/54 55/42/54 21/112/54
f 25/102/55 59/45/55 62/43/55 28/111/55
f 15/113/56 49/52/56 64/51/56 30/114/56
f 3/115/57 37/74/57 36/77/57 2/110/57
f 23/116/58 57/63/58 49/52/58 15/113/58
f 26/117/59 60/118/59 58/119/59 24/120/59
f 34/121/60 68/122/60 56/95/60 22/94/60
f 33/123/61 67/72/61 57/63/61 23/116/61
f 21/124/62 55/125/62 54/126/62 20/127/62
f 24/120/63 58/119/63 68/122/63 34/121/63
f 20/127/64 54/126/64 60/118/64 26/117/64
f 4/104/65 38/73/65 67/72/65 33/123/65
f 29/128/66 63/84/66 37/74/66 3/115/66
