# Blender v2.93.5 OBJ File: 'salisnuevos.blend'
# www.blender.org
mtllib sali43.mtl
o Cube.006_Cube.007
v 38.361904 10.105919 25.653906
v 37.472439 4.781512 16.685299
v 41.258175 -5.758735 11.919029
v 14.867548 23.533571 22.067204
v 16.286650 15.506111 19.265453
v 19.175108 9.358925 11.141571
v 17.865778 3.437348 12.632990
v 19.620985 -7.370028 11.141393
v 20.619738 -18.379950 11.196156
v -1.737037 16.620680 24.250587
v -0.324936 8.537102 13.901697
v -3.452074 1.604039 18.850725
v -2.755964 -9.407627 9.593281
v -1.757211 -20.417551 9.648044
v -22.828053 21.957081 15.257549
v -22.486977 13.126943 16.632977
v -22.739321 9.997766 8.770593
v -25.015989 8.454752 15.856254
v -22.879787 -14.314878 16.911255
v -23.650570 -16.307810 20.184433
v -46.437706 -15.453747 17.971577
v 20.583347 -19.538576 11.435752
v -1.982877 25.344238 25.406605
v -2.116759 -22.986521 2.282250
v -42.277641 7.578463 8.350053
v -12.076447 -21.223167 8.937717
v 35.026512 22.266279 30.273573
v -46.253223 -0.915670 8.784359
v 39.754150 -17.314730 11.855587
v -44.162426 33.773815 7.108519
v -43.687973 20.861624 13.065101
v 33.121231 27.235353 33.501045
v 6.141784 23.803793 24.183243
v 7.064815 -25.016565 9.624153
v 34.894138 9.841035 3.657153
v 33.075581 -3.088967 -3.919045
v 32.793182 -9.928842 -4.271482
v 13.453727 24.654697 5.672586
v 15.990279 11.640429 -1.196978
v 19.685987 2.495457 -12.559290
v 18.986483 -0.700452 -16.163202
v 16.774160 -11.149117 -5.757957
v 16.755995 -19.863848 -5.560969
v -0.791135 11.017856 2.633729
v -2.572341 3.244074 -6.905673
v -1.148432 -5.241055 -7.120730
v -1.635546 -14.549689 -6.667546
v -1.272302 -21.493074 -6.081837
v -18.245285 23.110926 -4.568644
v -17.277172 5.975381 -0.644129
v -19.570549 -7.813112 -5.147973
v -17.776337 -14.766056 -1.051609
v -17.693415 -21.592405 3.255491
v -17.671213 -26.538710 1.115698
v -36.357975 -19.731134 1.939985
v 16.712200 -20.765068 -5.646970
v -1.458125 25.059557 6.609199
v -1.291729 -24.129784 -6.174168
v -33.276634 -6.666482 3.597307
v -8.735148 -22.135956 -7.058840
v 31.028973 17.659330 9.460247
v -34.998863 -11.230854 0.654011
v 31.323805 -18.875591 -4.343681
v -33.942783 22.468060 -4.527392
v -32.463421 4.046853 -0.880740
v 28.412479 26.827871 13.474763
v 4.534347 24.274784 5.921166
v 5.159904 -25.535803 -6.219611
vt 0.800383 0.390482
vt 0.712125 0.406604
vt 0.744512 0.530464
vt 0.816352 0.532395
vt 0.670086 0.393715
vt 0.693299 0.510242
vt 0.431687 0.554305
vt 0.516893 0.555178
vt 0.525221 0.436461
vt 0.439314 0.444052
vt 0.533426 0.554036
vt 0.535951 0.434576
vt 0.844474 0.247392
vt 0.768434 0.262489
vt 0.871408 0.378323
vt 0.855758 0.308947
vt 0.692395 0.277586
vt 0.643597 0.260470
vt 0.420896 0.680142
vt 0.506416 0.673600
vt 0.518404 0.672683
vt 0.817985 0.114148
vt 0.741946 0.129245
vt 0.665425 0.154578
vt 0.319911 0.777144
vt 0.381040 0.785854
vt 0.385189 0.667915
vt 0.440573 0.772889
vt 0.468304 0.766849
vt 0.498376 0.718078
vt 0.718597 0.000485
vt 0.648979 0.029379
vt 0.395250 0.906939
vt 0.464632 0.914315
vt 0.505335 0.896263
vt 0.799830 0.000000
vt 0.535951 0.888579
vt 0.866576 0.245830
vt 0.826143 0.113285
vt 0.871408 0.190736
vt 0.374538 0.197117
vt 0.363075 0.259830
vt 0.419731 0.239690
vt 0.430887 0.186494
vt 0.542258 0.215965
vt 0.486712 0.183419
vt 0.060005 0.361574
vt 0.101443 0.434266
vt 0.168617 0.432595
vt 0.165721 0.340832
vt 0.239520 0.431537
vt 0.228617 0.337993
vt 0.270067 0.526261
vt 0.293658 0.525192
vt 0.319911 0.526732
vt 0.319911 0.471536
vt 0.273260 0.477538
vt 0.389778 0.146678
vt 0.451288 0.130638
vt 0.507923 0.126377
vt 0.055303 0.259870
vt 0.155966 0.243299
vt 0.201070 0.241418
vt 0.363786 0.093941
vt 0.344697 0.157489
vt 0.421671 0.081820
vt 0.470847 0.000000
vt 0.529273 0.004464
vt 0.624293 0.153288
vt 0.643597 0.069756
vt 0.126170 0.148913
vt 0.188892 0.206849
vt 0.191959 0.154171
vt 0.101306 0.782852
vt 0.123502 0.823861
vt 0.213725 0.851782
vt 0.142821 0.759217
vt 0.261708 0.816737
vt 0.245612 0.655513
vt 0.120784 0.030417
vt 0.000000 0.148549
vt 0.183843 0.045205
vt 0.322381 0.206079
vt 0.047722 0.813315
vt 0.068305 0.849411
vt 0.224713 0.054892
vt 0.271323 0.544658
vt 0.535951 0.522221
vt 0.539280 0.522221
vt 0.537636 0.434576
vt 0.326863 0.160317
vt 0.357563 0.094722
vt 0.319911 0.138710
vt 1.000000 0.413946
vt 0.876638 0.384120
vt 0.881746 0.465567
vt 0.997104 0.520583
vt 0.619556 0.434576
vt 0.643597 0.304657
vt 0.591515 0.259030
vt 0.610881 0.426907
vt 0.538610 0.369863
vt 0.319911 0.000000
vt 0.259008 0.123841
vt 0.136915 0.527989
vt 0.257067 0.605713
vt 0.148613 0.495609
vt 0.261708 0.573682
vt 0.149542 0.471536
vt 0.129254 0.600916
vt 0.480554 0.370131
vt 0.411147 0.387501
vt 0.318481 0.346643
vt 0.319911 0.471536
vt 0.069927 0.655838
vt 0.309359 0.219063
vt 0.994045 0.226882
vt 0.875816 0.238799
vt 0.877161 0.286539
vt 0.982670 0.290898
vt 0.987280 0.345962
vt 0.872752 0.326778
vt 0.289633 0.172602
vt 1.000000 0.000000
vt 0.882152 0.067757
vt 0.871408 0.190563
vt 0.992916 0.161489
vt 0.000000 0.694309
vn -0.1864 0.2510 0.9499
vn -0.3187 0.6874 0.6526
vn -0.1555 -0.6078 0.7787
vn -0.1155 0.3135 0.9425
vn 0.3359 -0.1461 0.9305
vn 0.0899 -0.2279 0.9695
vn 0.0439 0.8074 0.5884
vn -0.1123 -0.8493 0.5158
vn -0.3926 -0.0016 0.9197
vn -0.0689 -0.0013 0.9976
vn 0.1334 -0.4259 0.8949
vn 0.1731 0.3928 0.9032
vn 0.1227 -0.7722 0.6234
vn 0.2081 -0.2340 0.9497
vn -0.0896 -0.3015 0.9492
vn -0.3613 -0.4663 0.8075
vn -0.3543 -0.6124 0.7067
vn -0.0181 0.8559 0.5169
vn -0.0353 0.0004 0.9994
vn -0.3585 -0.4668 0.8085
vn 0.0512 -0.9438 0.3267
vn -0.0450 0.2037 0.9780
vn -0.2419 -0.4144 0.8774
vn -0.0610 -0.3377 -0.9393
vn -0.3317 -0.0960 -0.9385
vn -0.2832 0.0369 -0.9583
vn 0.0234 -0.2067 -0.9781
vn -0.5333 0.4048 -0.7428
vn -0.3141 -0.2614 -0.9127
vn -0.0674 -0.2565 -0.9642
vn -0.2338 0.5613 -0.7939
vn 0.3944 0.0222 -0.9186
vn 0.0459 -0.0489 -0.9977
vn -0.0883 -0.4705 -0.8780
vn -0.3368 0.2737 -0.9009
vn -0.1507 0.7616 -0.6303
vn -0.1437 0.3516 -0.9251
vn 0.3408 -0.5088 -0.7905
vn 0.6084 0.3858 -0.6935
vn 0.2323 0.7410 -0.6300
vn 0.1037 0.3953 -0.9127
vn 0.0891 -0.0145 -0.9959
vn 0.3624 0.4770 -0.8007
vn 0.1269 0.0338 -0.9913
vn 0.0768 0.0910 -0.9929
vn 0.0180 0.0667 -0.9976
vn 0.1188 -0.9921 0.0392
vn -0.8486 -0.2027 -0.4886
vn -0.6870 -0.0099 -0.7266
vn -0.2039 0.9775 0.0534
vn 0.8829 0.4237 -0.2022
vn 0.8831 0.4043 -0.2379
vn 0.9824 0.0225 -0.1857
vn -0.7921 -0.2078 -0.5739
vn -0.2443 0.2847 -0.9269
vn 0.3161 0.9362 -0.1534
vn 0.8687 0.2928 -0.3995
vn -0.1423 0.9898 0.0035
vn -0.1952 -0.9795 0.0491
vn 0.3798 -0.9249 -0.0176
vn 0.1625 0.9867 0.0002
vn -0.1829 -0.9353 0.3029
vn -0.2482 -0.9656 0.0771
vn 0.3223 -0.8741 0.3635
vn -0.0001 0.9989 0.0459
vn 0.8885 -0.1259 -0.4412
usemtl Material.030
s off
f 19/1/1 18/2/1 28/3/1 21/4/1
f 18/2/2 17/5/2 25/6/2 28/3/2
f 17/7/3 16/8/3 31/9/3 25/10/3
f 16/8/4 15/11/4 30/12/4 31/9/4
f 14/13/5 13/14/5 19/1/5 20/15/5 26/16/5
f 13/14/6 12/17/6 18/2/6 19/1/6
f 12/17/7 11/18/7 17/5/7 18/2/7
f 11/19/8 10/20/8 16/8/8 17/7/8
f 10/20/9 23/21/9 15/11/9 16/8/9
f 9/22/10 8/23/10 13/14/10 14/13/10
f 8/23/11 7/24/11 12/17/11 13/14/11
f 7/25/12 6/26/12 11/19/12 12/27/12
f 6/26/13 5/28/13 10/20/13 11/19/13
f 5/28/14 4/29/14 33/30/14 23/21/14 10/20/14
f 3/31/15 2/32/15 7/24/15 8/23/15
f 2/33/16 1/34/16 6/26/16 7/25/16
f 1/34/17 27/35/17 5/28/17 6/26/17
f 21/4/18 20/15/18 19/1/18
f 29/36/19 3/31/19 8/23/19 9/22/19
f 27/35/20 32/37/20 4/29/20 5/28/20
f 26/16/21 24/38/21 14/13/21
f 22/39/22 29/36/22 9/22/22
f 24/38/23 34/40/23 22/39/23 9/22/23 14/13/23
f 53/41/24 55/42/24 62/43/24 52/44/24
f 52/44/25 62/43/25 59/45/25 51/46/25
f 51/47/26 59/48/26 65/49/26 50/50/26
f 50/50/27 65/49/27 64/51/27 49/52/27
f 48/53/28 60/54/28 54/55/28 53/56/28 47/57/28
f 47/58/29 53/41/29 52/44/29 46/59/29
f 46/59/30 52/44/30 51/46/30 45/60/30
f 45/61/31 51/47/31 50/50/31 44/62/31
f 44/62/32 50/50/32 49/52/32 57/63/32
f 43/64/33 48/65/33 47/58/33 42/66/33
f 42/66/34 47/58/34 46/59/34 41/67/34
f 41/67/35 46/59/35 45/60/35 40/68/35
f 40/68/36 45/60/36 44/69/36 39/70/36
f 39/71/37 44/62/37 57/63/37 67/72/37 38/73/37
f 37/74/38 42/75/38 41/76/38 36/77/38
f 36/77/39 41/76/39 40/78/39 35/79/39
f 35/80/40 40/81/40 39/71/40 61/82/40
f 55/42/41 53/41/41 54/83/41
f 63/84/42 43/85/42 42/75/42 37/74/42
f 61/82/43 39/71/43 38/73/43 66/86/43
f 60/54/44 48/53/44 58/87/44
f 56/88/45 43/89/45 63/90/45
f 58/91/46 48/65/46 43/64/46 56/92/46 68/93/46
f 22/94/47 56/95/47 63/96/47 29/97/47
f 30/98/48 64/99/48 65/100/48 31/101/48
f 31/101/49 65/100/49 59/45/49 25/102/49
f 32/103/50 66/86/50 38/73/50 4/104/50
f 1/105/51 35/79/51 61/106/51 27/107/51
f 27/107/52 61/106/52 66/108/52 32/109/52
f 2/110/53 36/77/53 35/79/53 1/105/53
f 28/111/54 62/43/54 55/42/54 21/112/54
f 25/102/55 59/45/55 62/43/55 28/111/55
f 15/113/56 49/52/56 64/51/56 30/114/56
f 3/115/57 37/74/57 36/77/57 2/110/57
f 23/116/58 57/63/58 49/52/58 15/113/58
f 26/117/59 60/118/59 58/119/59 24/120/59
f 34/121/60 68/122/60 56/95/60 22/94/60
f 33/123/61 67/72/61 57/63/61 23/116/61
f 21/124/62 55/125/62 54/126/62 20/127/62
f 24/120/63 58/119/63 68/122/63 34/121/63
f 20/127/64 54/126/64 60/118/64 26/117/64
f 4/104/65 38/73/65 67/72/65 33/123/65
f 29/128/66 63/84/66 37/74/66 3/115/66
