# Blender v2.93.5 OBJ File: 'salisnuevos.blend'
# www.blender.org
mtllib sali44.mtl
o Cube.005_Cube.002
v 87.796425 -13.632363 -24.002241
v 83.670113 -4.544377 -7.781525
v 89.467316 14.134745 1.356670
v 37.134682 -23.799269 -20.054083
v 39.292316 -20.860735 -13.671827
v 43.924305 -14.552340 0.029521
v 38.308212 -4.499660 14.066000
v 42.204941 14.516012 0.046603
v 42.609970 33.725780 0.046603
v 1.690909 -27.571825 -26.933142
v 1.950008 -15.283238 -7.457221
v -7.249403 -3.659577 0.046603
v -6.844374 15.550192 0.046603
v -6.439346 34.759960 0.046603
v -45.459732 -27.230537 -31.041842
v -45.484303 -24.804831 -27.281412
v -47.099319 -14.249059 -7.457221
v -54.356548 -4.101570 0.123741
v -54.381874 18.151068 0.374452
v -54.698368 35.983196 -0.230515
v -105.828018 16.234900 -0.080593
v 42.381031 35.732830 -0.397364
v 1.654589 -29.294420 -29.663248
v -7.305639 40.356388 2.507897
v -89.994301 -13.309571 -7.003711
v -29.036612 35.004398 0.040370
v 81.864822 -19.260094 -32.964912
v -100.460869 -1.264123 -0.306640
v 84.343513 34.012398 1.255785
v -90.509483 -28.220980 -28.811052
v -90.113586 -26.603964 -26.402803
v 78.661705 -21.724173 -40.104382
v 18.913691 -27.323463 -25.964426
v 11.935859 43.719875 1.189764
v 77.729927 -25.378700 17.493126
v 69.790787 8.506113 29.197737
v 68.027992 20.337460 29.788412
v 33.319843 -40.674126 7.472793
v 36.838573 -34.765160 22.697351
v 37.215958 -11.610264 46.174469
v 37.808517 2.727202 49.744808
v 32.896572 20.662228 30.478279
v 31.487736 35.778194 30.096479
v 0.500541 -31.509390 14.420732
v -6.888172 -6.465441 30.168678
v -5.196971 8.410591 30.719879
v -7.678951 24.505941 29.810736
v -7.918669 36.593853 28.772669
v -35.236164 -39.419643 -0.183049
v -35.473461 -30.648394 12.951879
v -44.240875 -5.181571 29.962454
v -41.826660 9.563561 30.523531
v -43.093376 24.204887 30.445673
v -43.397327 37.888412 30.269159
v -82.439445 23.063246 29.005217
v 31.235270 37.336140 30.245583
v 0.594446 -37.716549 4.962733
v -8.397881 41.164928 28.932291
v -68.422112 -21.992634 28.076118
v -24.340067 36.872639 29.612373
v 71.214569 -32.646931 3.865722
v -77.348328 8.448704 30.236551
v 63.396843 35.692822 29.713985
v -69.444725 -40.109165 -1.266763
v -68.803001 -30.774765 13.779409
v 66.794357 -36.693573 -5.295139
v 13.401463 -36.584408 7.187674
v 5.350101 44.322063 29.823881
vt 0.800383 0.390482
vt 0.712125 0.406604
vt 0.744512 0.530464
vt 0.816352 0.532395
vt 0.670086 0.393715
vt 0.693299 0.510242
vt 0.431687 0.554305
vt 0.516893 0.555178
vt 0.525221 0.436461
vt 0.439314 0.444052
vt 0.533426 0.554036
vt 0.535951 0.434576
vt 0.844474 0.247392
vt 0.768434 0.262489
vt 0.871408 0.378323
vt 0.855758 0.308947
vt 0.692395 0.277586
vt 0.643597 0.260470
vt 0.420896 0.680142
vt 0.506416 0.673600
vt 0.518404 0.672683
vt 0.817985 0.114148
vt 0.741946 0.129245
vt 0.665425 0.154578
vt 0.319911 0.777144
vt 0.381040 0.785854
vt 0.385189 0.667915
vt 0.440573 0.772889
vt 0.468304 0.766849
vt 0.498376 0.718078
vt 0.718597 0.000485
vt 0.648979 0.029379
vt 0.395250 0.906939
vt 0.464632 0.914315
vt 0.505335 0.896263
vt 0.799830 0.000000
vt 0.535951 0.888579
vt 0.866576 0.245830
vt 0.826143 0.113285
vt 0.871408 0.190736
vt 0.374538 0.197117
vt 0.363075 0.259830
vt 0.419731 0.239690
vt 0.430887 0.186494
vt 0.542258 0.215965
vt 0.486712 0.183419
vt 0.060005 0.361574
vt 0.101443 0.434266
vt 0.168617 0.432595
vt 0.165721 0.340832
vt 0.239520 0.431537
vt 0.228617 0.337993
vt 0.270067 0.526261
vt 0.293658 0.525192
vt 0.319911 0.526732
vt 0.319911 0.471536
vt 0.273260 0.477538
vt 0.389778 0.146678
vt 0.451288 0.130638
vt 0.507923 0.126377
vt 0.055303 0.259870
vt 0.155966 0.243299
vt 0.201070 0.241418
vt 0.363786 0.093941
vt 0.344697 0.157489
vt 0.421671 0.081820
vt 0.470847 0.000000
vt 0.529273 0.004464
vt 0.624293 0.153288
vt 0.643597 0.069756
vt 0.126170 0.148913
vt 0.188892 0.206849
vt 0.191959 0.154171
vt 0.101306 0.782852
vt 0.123502 0.823861
vt 0.213725 0.851782
vt 0.142821 0.759217
vt 0.261708 0.816737
vt 0.245612 0.655513
vt 0.120784 0.030417
vt 0.000000 0.148549
vt 0.183843 0.045205
vt 0.322381 0.206079
vt 0.047722 0.813315
vt 0.068305 0.849411
vt 0.224713 0.054892
vt 0.271323 0.544658
vt 0.535951 0.522221
vt 0.539280 0.522221
vt 0.537636 0.434576
vt 0.326863 0.160317
vt 0.357563 0.094722
vt 0.319911 0.138710
vt 1.000000 0.413946
vt 0.876638 0.384120
vt 0.881746 0.465567
vt 0.997104 0.520583
vt 0.619556 0.434576
vt 0.643597 0.304657
vt 0.591515 0.259030
vt 0.610881 0.426907
vt 0.538610 0.369863
vt 0.319911 0.000000
vt 0.259008 0.123841
vt 0.136915 0.527989
vt 0.257067 0.605713
vt 0.148613 0.495609
vt 0.261708 0.573682
vt 0.149542 0.471536
vt 0.129254 0.600916
vt 0.480554 0.370131
vt 0.411147 0.387501
vt 0.318481 0.346643
vt 0.319911 0.471536
vt 0.069927 0.655838
vt 0.309359 0.219063
vt 0.994045 0.226882
vt 0.875816 0.238799
vt 0.877161 0.286539
vt 0.982670 0.290898
vt 0.987280 0.345962
vt 0.872752 0.326778
vt 0.289633 0.172602
vt 1.000000 0.000000
vt 0.882152 0.067757
vt 0.871408 0.190563
vt 0.992916 0.161489
vt 0.000000 0.694309
vn 0.0092 0.0132 -0.9999
vn 0.0233 0.5540 -0.8322
vn -0.0163 0.8540 -0.5199
vn -0.0449 0.8368 -0.5457
vn -0.0012 -0.0131 -0.9999
vn -0.0041 0.0061 -1.0000
vn 0.0029 0.5710 -0.8210
vn 0.0360 0.8645 -0.5013
vn 0.0530 0.8414 -0.5378
vn 0.0000 0.0000 -1.0000
vn 0.1302 -0.3543 -0.9260
vn 0.1591 0.7485 -0.6438
vn 0.0475 0.8683 -0.4937
vn -0.0024 0.8832 -0.4689
vn -0.2162 -0.0705 -0.9738
vn -0.3043 0.7577 -0.5773
vn -0.2143 0.9019 -0.3751
vn 0.0101 -0.0337 -0.9994
vn 0.0283 0.0008 -0.9996
vn -0.1821 0.9358 -0.3017
vn 0.0046 0.4032 -0.9151
vn 0.0298 -0.2127 -0.9767
vn -0.0334 0.1392 -0.9897
vn -0.0242 0.0394 0.9989
vn -0.0175 -0.0626 0.9979
vn 0.1749 -0.6406 0.7477
vn 0.0081 -0.8413 0.5404
vn 0.0303 0.0425 0.9986
vn 0.0065 0.0329 0.9994
vn -0.0066 -0.0366 0.9993
vn -0.0352 -0.5517 0.8333
vn -0.0411 -0.8330 0.5517
vn -0.0219 0.0508 0.9985
vn -0.1489 0.4801 0.8645
vn -0.3819 -0.0998 0.9188
vn -0.2840 -0.6297 0.7230
vn -0.1509 -0.9027 0.4030
vn 0.2102 0.5530 0.8062
vn 0.5392 -0.1786 0.8230
vn 0.2514 -0.7708 0.5853
vn -0.0369 0.0121 0.9992
vn 0.0161 0.0182 0.9997
vn 0.2250 -0.9255 0.3046
vn 0.0505 -0.0296 0.9983
vn 0.0117 -0.0934 0.9956
vn -0.0390 -0.0725 0.9966
vn 0.0458 0.9985 -0.0306
vn -0.7784 -0.5098 0.3662
vn -0.7765 -0.5217 0.3533
vn -0.1392 -0.8672 -0.4780
vn 0.7378 -0.6747 -0.0214
vn 0.7120 -0.7001 -0.0533
vn 0.9538 0.0795 0.2897
vn -0.7385 -0.2206 0.6371
vn -0.7378 -0.4430 0.5093
vn 0.0139 -0.9218 -0.3875
vn 0.8109 -0.2724 0.5180
vn 0.0197 -0.9529 -0.3027
vn -0.2465 0.9687 -0.0304
vn 0.2575 0.9654 0.0411
vn 0.1457 -0.9606 -0.2365
vn -0.3579 0.9310 0.0719
vn -0.1943 0.9796 -0.0522
vn 0.0438 0.9963 -0.0742
vn 0.0495 -0.9200 -0.3887
vn 0.7962 0.2232 0.5623
usemtl Material.063
s off
f 19/1/1 18/2/1 28/3/1 21/4/1
f 18/2/2 17/5/2 25/6/2 28/3/2
f 17/7/3 16/8/3 31/9/3 25/10/3
f 16/8/4 15/11/4 30/12/4 31/9/4
f 14/13/5 13/14/5 19/1/5 20/15/5 26/16/5
f 13/14/6 12/17/6 18/2/6 19/1/6
f 12/17/7 11/18/7 17/5/7 18/2/7
f 11/19/8 10/20/8 16/8/8 17/7/8
f 10/20/9 23/21/9 15/11/9 16/8/9
f 9/22/10 8/23/10 13/14/10 14/13/10
f 8/23/11 7/24/11 12/17/11 13/14/11
f 7/25/12 6/26/12 11/19/12 12/27/12
f 6/26/13 5/28/13 10/20/13 11/19/13
f 5/28/14 4/29/14 33/30/14 23/21/14 10/20/14
f 3/31/15 2/32/15 7/24/15 8/23/15
f 2/33/16 1/34/16 6/26/16 7/25/16
f 1/34/17 27/35/17 5/28/17 6/26/17
f 21/4/18 20/15/18 19/1/18
f 29/36/19 3/31/19 8/23/19 9/22/19
f 27/35/20 32/37/20 4/29/20 5/28/20
f 26/16/21 24/38/21 14/13/21
f 22/39/22 29/36/22 9/22/22
f 24/38/23 34/40/23 22/39/23 9/22/23 14/13/23
f 53/41/24 55/42/24 62/43/24 52/44/24
f 52/44/25 62/43/25 59/45/25 51/46/25
f 51/47/26 59/48/26 65/49/26 50/50/26
f 50/50/27 65/49/27 64/51/27 49/52/27
f 48/53/28 60/54/28 54/55/28 53/56/28 47/57/28
f 47/58/29 53/41/29 52/44/29 46/59/29
f 46/59/30 52/44/30 51/46/30 45/60/30
f 45/61/31 51/47/31 50/50/31 44/62/31
f 44/62/32 50/50/32 49/52/32 57/63/32
f 43/64/33 48/65/33 47/58/33 42/66/33
f 42/66/34 47/58/34 46/59/34 41/67/34
f 41/67/35 46/59/35 45/60/35 40/68/35
f 40/68/36 45/60/36 44/69/36 39/70/36
f 39/71/37 44/62/37 57/63/37 67/72/37 38/73/37
f 37/74/38 42/75/38 41/76/38 36/77/38
f 36/77/39 41/76/39 40/78/39 35/79/39
f 35/80/40 40/81/40 39/71/40 61/82/40
f 55/42/41 53/41/41 54/83/41
f 63/84/42 43/85/42 42/75/42 37/74/42
f 61/82/43 39/71/43 38/73/43 66/86/43
f 60/54/44 48/53/44 58/87/44
f 56/88/45 43/89/45 63/90/45
f 58/91/46 48/65/46 43/64/46 56/92/46 68/93/46
f 22/94/47 56/95/47 63/96/47 29/97/47
f 30/98/48 64/99/48 65/100/48 31/101/48
f 31/101/49 65/100/49 59/45/49 25/102/49
f 32/103/50 66/86/50 38/73/50 4/104/50
f 1/105/51 35/79/51 61/106/51 27/107/51
f 27/107/52 61/106/52 66/108/52 32/109/52
f 2/110/53 36/77/53 35/79/53 1/105/53
f 28/111/54 62/43/54 55/42/54 21/112/54
f 25/102/55 59/45/55 62/43/55 28/111/55
f 15/113/56 49/52/56 64/51/56 30/114/56
f 3/115/57 37/74/57 36/77/57 2/110/57
f 23/116/58 57/63/58 49/52/58 15/113/58
f 26/117/59 60/118/59 58/119/59 24/120/59
f 34/121/60 68/122/60 56/95/60 22/94/60
f 33/123/61 67/72/61 57/63/61 23/116/61
f 21/124/62 55/125/62 54/126/62 20/127/62
f 24/120/63 58/119/63 68/122/63 34/121/63
f 20/127/64 54/126/64 60/118/64 26/117/64
f 4/104/65 38/73/65 67/72/65 33/123/65
f 29/128/66 63/84/66 37/74/66 3/115/66
