# Blender v2.93.5 OBJ File: 'salisnuevos.blend'
# www.blender.org
mtllib plano7.mtl
o Plane.034_Plane.037
v 112.360405 339.310150 -4.946827
v -186.906281 346.839661 -3.755405
v -141.185959 -101.352295 -4.193714
v -139.856857 -142.794815 -2.897404
v -146.893997 -163.550125 -1.452438
v -119.126572 -301.433990 2.631363
v -99.642899 -364.047119 4.910057
v -117.791428 -415.535156 7.037201
v -157.191071 -489.433777 9.910629
v -69.582634 -481.324463 8.739201
v 63.135178 -485.508362 7.564323
v 87.914268 -506.679565 7.279583
v 135.265396 -503.083099 2.749977
v 163.912338 -388.824463 3.153645
v 142.127502 -260.058624 -0.978168
v 134.039642 -214.533569 -2.194111
v 112.604538 -144.338547 -4.791832
v 111.615967 -107.661972 -6.006466
v 124.632637 -68.247116 -7.294151
v 152.599426 332.611145 -104.103821
v -209.450867 351.365143 -102.204208
v -166.872131 -110.924820 -100.488617
v -166.747131 -130.621048 -99.761436
v -169.499023 -158.163879 -98.994217
v -156.422455 -302.861359 -95.055008
v -134.951553 -365.139496 -92.929070
v -152.114899 -423.048798 -91.707672
v -211.361862 -474.489807 -90.098442
v -97.669289 -465.881378 -85.227524
v 70.604393 -469.457336 -88.298264
v 102.928833 -492.808380 -110.087769
v 168.557526 -502.594910 -106.447830
v 217.210709 -406.630829 -93.010971
v 177.852478 -263.143097 -97.303894
v 182.353943 -212.728378 -98.415657
v 156.978180 -131.736923 -100.672256
v 159.069977 -105.773781 -101.311478
v 171.548706 -67.396606 -102.350891
v -167.959717 -541.504333 6.910633
v -79.160461 -533.427673 12.923424
v 53.399624 -536.977112 9.847496
v 75.386452 -554.658691 -21.059675
v 127.704964 -552.716553 -16.742332
v -218.022430 -523.476501 -96.253891
v -107.001015 -513.664978 -88.716179
v 58.303673 -518.147949 -92.137207
v 103.362831 -557.358521 -133.115677
v 161.094803 -558.221497 -128.931183
v -133.048096 -499.491180 118.900200
v -43.937500 -490.806915 122.930565
v 86.824867 -495.152924 121.427437
v 112.724167 -519.450073 94.825584
v 162.751953 -516.155029 97.794640
v 154.378326 -567.319153 103.139244
v -141.437271 -550.623108 124.232384
v -53.763969 -542.053223 128.229858
v 77.003082 -546.386658 126.719429
v 102.890564 -570.702087 100.132500
v 99.270714 356.573792 -1.077942
v -152.977188 388.867493 -0.449909
v 122.850349 356.554352 -99.864883
v -192.301071 382.225189 -106.774681
v 119.781136 857.148254 -115.887886
v -91.391563 859.035645 -16.472912
v 96.201500 857.167725 -17.100945
v -182.832397 456.538452 -110.289474
v -143.539948 468.308502 -4.128838
v -130.715454 852.393311 -122.797684
v 120.880669 -5.818050 -6.903244
v 166.751999 4.243905 -102.692780
v -143.399811 -35.779202 -10.891670
v -169.728912 -22.335703 -107.737694
v -146.790497 11.317510 -4.040672
v -168.202148 9.355837 -101.069885
v 147.983871 128.024368 -6.577095
v 170.026932 126.354935 -102.857346
v 130.928009 196.660355 -5.783695
v 155.771118 193.416412 -103.494186
v -144.495255 112.481514 -3.915031
v -178.387177 103.279327 -101.469009
v -227.615265 323.714966 -101.865334
v -201.389023 334.433228 -3.820656
v 129.793228 278.985016 -5.324562
v 147.624191 284.823914 -103.753937
v -213.344162 191.763000 -101.576370
v -190.196884 186.799103 -3.893944
v 192.915604 242.131775 -103.613220
v 168.072586 253.729553 -5.575184
v -183.971390 66.725227 -101.235336
v -143.109604 71.067986 -3.966419
v 173.012817 56.340752 -101.826309
v 128.383011 64.578117 -5.769978
v -239.067276 279.325745 -101.720856
v -209.579559 262.394470 -3.857296
v -130.369171 -192.875229 0.589466
v -160.319626 -190.895782 -97.024612
v -117.176643 -263.881714 1.610413
v -150.799805 -263.605682 -96.039810
v 144.533127 -321.483490 1.087738
v 177.635147 -325.843781 -95.157433
v 98.103027 460.434570 -103.311615
v 74.484207 466.846161 -4.729275
v 133.048828 599.740295 -106.187973
v 109.491364 596.145020 -7.285324
v -100.861938 703.864807 -12.967022
v -140.156204 692.390442 -119.137115
v 120.814087 688.671448 -110.495285
v 97.234497 688.684875 -11.708149
v -104.937485 782.977905 -15.212776
v -145.208115 758.372803 -121.110733
vt -1.770521 1.769604
vt -1.892368 1.659851
vt -1.957870 1.026793
vt -1.789987 0.364087
vt -1.399580 -0.285889
vt -1.385699 -0.649458
vt -1.413711 -1.174335
vt -1.383752 -1.584994
vt -1.360433 -2.163350
vt -1.346796 -2.527714
vt -1.404975 -2.710953
vt -1.263327 -2.968331
vt -1.147855 -3.591514
vt -1.162202 -3.921794
vt -0.993745 -4.471410
vt -1.144168 -4.925437
vt -1.473017 -5.577779
vt -0.732705 -5.501063
vt 0.389759 -5.529705
vt 0.600386 -5.714079
vt 0.999881 -5.677975
vt 1.236241 -4.673135
vt 1.068457 -4.082080
vt 1.044536 -3.541999
vt 0.973537 -3.142209
vt 0.788124 -2.525997
vt 0.777631 -2.203499
vt 0.885429 -1.856121
vt 0.850493 -1.308277
vt 0.910450 -0.690117
vt 1.072758 -0.131522
vt 0.925050 0.469904
vt 1.236241 0.973104
vt 0.911218 1.192583
vt 0.760685 1.721169
vt -2.224174 2.358723
vt -5.279799 2.108311
vt -5.227163 1.691178
vt -5.600499 1.306748
vt -5.275675 0.888853
vt -5.381365 0.298607
vt -5.391237 -0.314577
vt -5.326448 -0.770032
vt -5.351080 -1.398381
vt -5.237303 -1.730839
vt -5.213991 -1.957290
vt -5.410991 -2.670976
vt -5.361974 -3.110683
vt -5.346699 -3.658255
vt -5.663742 -4.373556
vt -5.227497 -5.212380
vt -4.673977 -5.113922
vt -4.411729 -4.886096
vt -2.990968 -4.813154
vt -2.026742 -4.865445
vt -2.538606 -4.429928
vt -2.696296 -3.927623
vt -2.528158 -3.378660
vt -2.584193 -3.036862
vt -2.519706 -2.398504
vt -2.448906 -2.111090
vt -2.478116 -1.871051
vt -2.481267 -1.699035
vt -2.474990 -0.927681
vt -2.496740 -0.645650
vt -2.376218 -0.139599
vt -2.431524 0.179088
vt -2.155779 0.962192
vt -1.957870 1.735041
vt -2.064548 2.121043
vt 2.547440 2.231432
vt 1.644331 2.322395
vt 1.589165 2.083057
vt 2.505390 2.125356
vt 4.965845 -2.208122
vt 4.047220 -2.439070
vt 4.065590 -2.666836
vt 4.999609 -2.528820
vt 4.564223 0.919350
vt 4.362455 1.333262
vt 3.313860 1.246119
vt 3.548091 0.783285
vt 2.430274 -1.710262
vt 1.531054 -1.743444
vt 1.527765 -1.916662
vt 2.423931 -2.074817
vt 4.067030 -3.006935
vt 4.998684 -2.878429
vt 4.627741 3.963795
vt 3.504950 4.073045
vt 3.313860 3.840411
vt 4.388338 3.757063
vt 1.513883 -2.158206
vt 2.408872 -2.256303
vt 4.157850 -3.630110
vt 5.082548 -3.420870
vt 6.620732 2.196181
vt 5.818900 2.006229
vt 5.784837 1.582866
vt 6.654932 1.794008
vt 2.457391 -3.143916
vt 1.532073 -3.088507
vt 1.507208 -3.432395
vt 2.442635 -3.473574
vt 3.641717 -0.055709
vt 4.620820 -0.086358
vt 1.546632 -3.984041
vt 2.478372 -4.027853
vt 4.730819 -0.668781
vt 3.819826 -0.748278
vt 3.871892 -1.297281
vt 4.789088 -1.205646
vt 1.486355 -4.489534
vt 2.426741 -4.477238
vt 3.907496 -1.739568
vt 4.851684 -1.600963
vt 1.330197 -4.930405
vt 2.318573 -5.119586
vt -4.295863 -5.312450
vt -2.900492 -5.232006
vt 4.487075 2.641772
vt 5.438953 2.512670
vt 5.312071 3.903038
vt 3.503454 5.904906
vt 3.313860 5.039815
vt 3.654048 4.784982
vt 3.654048 5.686573
vt 5.600219 4.304219
vt 5.508504 4.784982
vt 4.542442 4.400116
vt 4.615706 1.897969
vt 5.600219 1.582867
vt 1.236242 -5.356086
vt 2.240328 -5.573049
vt -4.657133 -5.696023
vt 3.313860 -5.714079
vt 3.313860 -5.264427
vt -5.146040 -5.714079
vt 3.425639 2.742002
vt -1.957871 -5.297387
vt 5.660082 4.341814
vt 6.109758 4.262570
vt 6.050649 5.006120
vt 5.600220 5.097543
vt 4.035561 5.244500
vt 4.023469 4.784982
vt 4.449893 4.880227
vt 4.449893 5.337095
vt 6.109758 6.110860
vt 5.659441 6.202242
vt 4.449893 5.405204
vt 4.450025 4.949111
vt 4.777149 4.784982
vt 4.777149 5.241260
vt 6.654932 4.262572
vt 5.661837 4.081187
vt 5.614361 3.325943
vt 6.654223 3.519285
vt 5.284521 1.128025
vt 5.294331 1.582867
vt 3.433455 4.504231
vt 5.600220 2.221934
vt 6.636862 2.398756
vt 3.534771 2.005538
vt 1.662081 2.592113
vt 2.679686 2.592190
vt 2.710714 3.289287
vt 1.692032 3.244123
vt 6.358675 -5.240234
vt 6.242098 -5.030384
vt 5.332153 -5.032694
vt 5.400794 -5.184131
vt 0.649745 1.870480
vt -1.485200 2.139306
vt 5.342919 -0.457804
vt 6.238173 -0.629846
vt 6.238173 1.490266
vt 5.294331 1.126730
vt -2.374821 2.621699
vt -5.034808 2.328047
vt -2.470527 3.267825
vt -2.881602 5.317184
vt -2.853117 5.894856
vt -2.996176 6.713735
vt -5.116448 6.701712
vt -5.088972 5.229739
vt -5.173662 4.451070
vt -4.847918 3.241202
vt 0.433705 2.838851
vt 0.722555 3.977308
vt 0.613280 4.790990
vt 0.594780 6.272591
vt -0.991758 6.277954
vt -1.102117 5.608781
vt -1.063114 4.913398
vt -1.410185 2.838916
vt 2.856387 5.352498
vt 1.837767 5.309935
vt 6.202787 -4.117631
vt 5.294331 -4.063752
vt 4.207505 -4.085508
vt 5.151865 -4.035932
vt 2.399898 -1.131201
vt 1.505890 -0.962016
vt 2.474439 -0.720516
vt 1.583099 -0.687374
vt 5.164725 -4.596828
vt 4.285823 -4.695904
vt 4.394060 -5.276135
vt 5.294331 -5.188221
vt 4.349559 -5.714079
vt 5.262061 -5.698626
vt 2.531833 0.166762
vt 1.601941 0.139001
vt 1.572035 -0.180829
vt 2.514000 -0.196907
vt 2.449011 1.494754
vt 1.540270 1.695635
vt 1.560254 0.922232
vt 2.457991 0.827670
vt 5.452213 -5.714079
vt 6.343555 -5.660382
vt 3.709688 5.682340
vt 3.654050 4.784981
vt 4.023470 4.817042
vt 4.023470 5.720412
vt 1.536839 -2.448143
vt 2.452048 -2.517780
vt 6.317502 -2.892451
vt 5.406716 -2.926536
vt 6.319440 -2.110863
vt 5.409494 -2.113228
vt 2.866728 6.048615
vt 1.841498 5.890877
vt 6.358675 -0.629845
vt 5.448731 -0.632156
vt 2.926960 6.714079
vt 1.909353 6.714001
vn 0.0079 0.0134 0.9999
vn -0.0038 -0.0121 -0.9999
vn -0.7633 0.6233 0.1698
vn 0.9015 -0.0031 0.4328
vn 0.9266 -0.2458 0.2847
vn -0.9648 -0.0143 0.2624
vn 0.8641 -0.2705 0.4245
vn -0.6237 -0.7801 0.0505
vn -0.9443 0.2032 0.2588
vn 0.8966 0.0570 0.4392
vn -0.0672 0.9850 0.1587
vn -0.9353 0.1011 0.3390
vn 0.8558 -0.3403 0.3896
vn -0.8980 -0.2826 0.3371
vn 0.9416 0.0280 0.3355
vn -0.9030 0.3009 0.3067
vn 0.9157 0.0439 0.3994
vn -0.7308 0.5876 0.3474
vn 0.8565 0.2791 0.4342
vn -0.0175 0.0796 -0.9967
vn -0.0305 -0.9827 -0.1828
vn -0.7339 -0.6596 -0.1624
vn 0.0068 -0.9992 0.0384
vn 0.1017 -0.9707 -0.2178
vn -0.8772 0.1089 0.4677
vn -0.4801 0.2498 -0.8409
vn -0.9560 0.1827 0.2295
vn 0.0892 0.3482 -0.9332
vn -0.0311 -0.9970 -0.0709
vn 0.0474 0.0913 -0.9947
vn -0.0561 0.1130 0.9920
vn -0.0659 0.1148 0.9912
vn 0.0148 0.1000 0.9949
vn 0.6886 -0.0573 0.7229
vn -0.0958 0.9895 0.1080
vn 0.9595 -0.1157 -0.2567
vn 0.0605 -0.9884 -0.1393
vn 0.0330 0.9965 0.0764
vn 0.0990 -0.9903 -0.0976
vn 0.6451 0.7608 -0.0707
vn -0.9335 0.1304 0.3341
vn -0.7942 0.5607 0.2342
vn 0.6985 0.6865 0.2019
vn -0.0053 -0.1183 0.9930
vn -0.0061 0.9995 -0.0320
vn 0.0071 -0.0044 -1.0000
vn 0.0288 -0.0350 -0.9990
vn -0.0010 0.0334 0.9994
vn -0.9287 0.1803 0.3240
vn 0.9489 0.2268 0.2195
vn 0.8995 -0.1080 0.4233
vn -0.9656 -0.0082 0.2599
vn -0.9699 -0.0633 0.2351
vn 0.9497 0.2189 0.2240
vn 0.7936 -0.5575 0.2437
vn -0.9336 0.0511 0.3547
vn -0.9394 -0.2596 0.2238
vn 0.9537 0.1098 0.2798
vn -0.8648 -0.4283 0.2620
vn 0.6269 0.7708 0.1136
vn -0.9468 -0.0975 0.3066
vn 0.9371 -0.1121 0.3306
vn -0.9481 0.1602 0.2747
vn -0.9043 -0.3597 0.2299
vn -0.9414 -0.1445 0.3048
vn 0.8674 0.3551 0.3486
vn 0.9432 -0.2410 0.2287
vn 0.9624 0.1411 0.2320
vn -0.9325 -0.0482 0.3581
vn 0.9726 0.0134 0.2321
vn -0.9318 0.1593 0.3260
usemtl Material.074
s off
f 2/1/1 82/2/1 94/3/1 86/4/1 79/5/1 90/6/1 73/7/1 71/8/1 3/9/1 4/10/1 5/11/1 95/12/1 97/13/1 6/14/1 7/15/1 8/16/1 9/17/1 10/18/1 11/19/1 12/20/1 13/21/1 14/22/1 99/23/1 15/24/1 16/25/1 17/26/1 18/27/1 19/28/1 69/29/1 92/30/1 75/31/1 77/32/1 88/33/1 83/34/1 1/35/1
f 21/36/2 20/37/2 84/38/2 87/39/2 78/40/2 76/41/2 91/42/2 70/43/2 38/44/2 37/45/2 36/46/2 35/47/2 34/48/2 100/49/2 33/50/2 32/51/2 31/52/2 30/53/2 29/54/2 28/55/2 27/56/2 26/57/2 25/58/2 98/59/2 96/60/2 24/61/2 23/62/2 22/63/2 72/64/2 74/65/2 89/66/2 80/67/2 85/68/2 93/69/2 81/70/2
f 2/71/3 21/72/3 81/73/3 82/74/3
f 17/75/4 36/76/4 37/77/4 18/78/4
f 13/79/5 43/80/5 48/81/5 32/82/5
f 3/83/6 22/84/6 23/85/6 4/86/6
f 18/78/7 37/77/7 38/87/7 19/88/7
f 42/89/8 58/90/8 57/91/8 41/92/8
f 4/86/9 23/85/9 24/93/9 5/94/9
f 19/88/10 38/87/10 70/95/10 69/96/10
f 12/97/11 52/98/11 53/99/11 13/100/11
f 97/101/12 98/102/12 25/103/12 6/104/12
f 13/79/13 32/82/13 33/105/13 14/106/13
f 6/104/14 25/103/14 26/107/14 7/108/14
f 99/109/15 100/110/15 34/111/15 15/112/15
f 7/108/16 26/107/16 27/113/16 8/114/16
f 15/112/17 34/111/17 35/115/17 16/116/17
f 8/114/18 27/113/18 28/117/18 9/118/18
f 16/116/19 35/115/19 36/76/19 17/75/19
f 30/53/20 46/119/20 45/120/20 29/54/20
f 40/121/21 45/122/21 46/123/21 41/92/21
f 41/124/22 46/125/22 47/126/22 42/127/22
f 42/89/23 47/128/23 48/129/23 43/130/23
f 39/131/24 44/132/24 45/122/24 40/121/24
f 28/117/25 44/133/25 39/134/25 9/118/25
f 31/52/26 47/135/26 46/119/26 30/53/26
f 39/134/27 55/136/27 49/137/27 9/118/27
f 32/51/28 48/138/28 47/135/28 31/52/28
f 41/92/29 57/91/29 56/139/29 40/121/29
f 29/54/30 45/120/30 44/140/30 28/55/30
f 49/141/31 55/142/31 56/143/31 50/144/31
f 52/145/32 58/146/32 54/147/32 53/148/32
f 50/144/33 56/143/33 57/149/33 51/150/33
f 51/151/34 57/152/34 58/153/34 52/154/34
f 9/155/35 49/156/35 50/157/35 10/158/35
f 13/79/36 53/159/36 54/160/36 43/80/36
f 43/130/37 54/161/37 58/90/37 42/89/37
f 10/158/38 50/157/38 51/162/38 11/163/38
f 40/121/39 56/139/39 55/164/39 39/131/39
f 11/163/40 51/162/40 52/98/40 12/97/40
f 62/165/41 60/166/41 67/167/41 66/168/41
f 2/71/42 60/166/42 62/165/42 21/72/42
f 20/169/43 61/170/43 59/171/43 1/172/43
f 1/35/44 59/173/44 60/174/44 2/1/44
f 65/175/45 63/176/45 68/177/45 64/178/45
f 21/36/46 62/179/46 61/180/46 20/37/46
f 61/180/47 62/179/47 66/181/47 106/182/47 110/183/47 68/184/47 63/185/47 107/186/47 103/187/47 101/188/47
f 60/174/48 59/173/48 102/189/48 104/190/48 108/191/48 65/192/48 64/193/48 109/194/48 105/195/48 67/196/48
f 66/168/49 67/167/49 105/197/49 106/198/49
f 59/171/50 61/170/50 101/199/50 102/200/50
f 69/96/51 70/95/51 91/201/51 92/202/51
f 71/203/52 72/204/52 22/84/52 3/83/52
f 73/205/53 74/206/53 72/204/53 71/203/53
f 75/207/54 76/208/54 78/209/54 77/210/54
f 77/210/55 78/209/55 87/211/55 88/212/55
f 79/213/56 80/214/56 89/215/56 90/216/56
f 94/217/57 93/218/57 85/219/57 86/220/57
f 83/221/58 84/222/58 20/169/58 1/172/58
f 86/220/59 85/219/59 80/214/59 79/213/59
f 88/223/60 87/224/60 84/225/60 83/226/60
f 90/216/61 89/215/61 74/206/61 73/205/61
f 92/202/62 91/201/62 76/208/62 75/207/62
f 82/74/63 81/73/63 93/218/63 94/217/63
f 5/94/64 24/93/64 96/227/64 95/228/64
f 95/228/65 96/227/65 98/102/65 97/101/65
f 14/106/66 33/105/66 100/110/66 99/109/66
f 102/200/67 101/199/67 103/229/67 104/230/67
f 104/230/68 103/229/68 107/231/68 108/232/68
f 106/198/69 105/197/69 109/233/69 110/234/69
f 108/232/70 107/231/70 63/235/70 65/236/70
f 110/234/71 109/233/71 64/237/71 68/238/71
