# Blender v2.93.5 OBJ File: 'salisnuevos.blend'
# www.blender.org
mtllib fondo9.mtl
o Plane.053_Plane.058
v 111.542709 383.549744 -0.954134
v -124.575912 350.601074 0.237282
v -124.826439 331.839294 -0.201021
v -217.612549 230.963043 1.095287
v -207.696487 167.332901 2.540251
v -179.772308 -43.936966 6.624048
v -234.560501 -156.762726 8.902735
v -202.309189 -270.706543 11.029882
v -194.625717 -416.611755 13.903307
v -95.116196 -403.031860 12.731882
v 55.630535 -410.038300 11.557001
v 83.775703 -445.491547 11.272261
v 137.559204 -439.468903 6.742659
v 242.362854 -191.261368 7.146326
v 140.841385 19.478031 3.014521
v 123.853615 83.222511 1.798574
v 207.959381 231.554459 -0.799143
v 198.607056 290.895355 -2.013777
v 101.279648 347.674622 -3.301458
v 157.247955 372.331604 -100.111130
v -150.183060 358.179474 -98.211517
v -158.140717 333.500458 -96.495934
v -215.342010 253.622375 -90.875656
v -263.282837 191.508911 -95.001526
v -218.659332 -65.787666 -91.062325
v -233.782272 -230.005997 -80.913506
v -230.898621 -301.656250 -87.714989
v -256.155273 -391.586609 -86.105766
v -127.018250 -377.170837 -81.234848
v 64.114395 -383.159180 -84.305588
v 100.829910 -422.262848 -106.095085
v 175.373871 -438.651367 -102.455162
v 275.438599 -204.904007 -89.018288
v 192.938995 14.312765 -93.311203
v 178.486969 91.157684 -94.422974
v 269.359497 220.192261 -96.679565
v 225.717346 327.836090 -97.318787
v 154.568970 349.098877 -98.358200
v -206.857224 -475.033936 10.903311
v -105.995117 -461.508728 16.916101
v 44.572464 -467.452606 13.840174
v 69.546066 -497.062317 -17.066998
v 128.971725 -493.809906 -12.749653
v -263.720642 -473.619751 -92.261215
v -137.617630 -457.189362 -84.723503
v 50.142696 -464.696533 -88.144531
v 101.322861 -501.583374 -129.123001
v 166.897369 -503.028564 -124.938522
v -167.203064 -433.453979 122.892868
v -65.987320 -418.911194 126.923233
v 82.538322 -426.189056 125.420105
v 111.955879 -466.877045 98.818237
v 168.779633 -461.359222 101.787308
v 159.268509 -518.263428 107.131943
v -176.731857 -490.304230 128.225082
v -77.148659 -475.953156 132.222534
v 71.382309 -483.209900 130.712112
v 100.786446 -523.928528 104.125168
v 127.872734 734.697571 -108.924431
v -119.024284 677.780640 -8.576021
v 102.926376 701.803040 -9.767439
v 133.612274 996.265381 -117.112328
v -144.631454 685.359070 -107.024826
v -133.379715 -27.380163 4.582144
v -187.386032 -33.206207 -93.031929
v 189.559631 134.223358 0.499714
v 221.999405 154.423004 -98.133148
v -130.720688 9.917802 3.561186
v -177.363541 22.587120 -94.016739
v 154.495255 -77.155785 5.080423
v 204.187119 -79.920486 -91.164742
v 145.521942 -33.265057 4.047476
v 190.825699 -46.082405 -92.237976
v 143.020218 -314.363434 6.944490
v 179.810837 -325.482239 -93.106422
v 204.805267 -246.988464 7.045404
v 240.638199 -250.551498 -92.377502
v 194.818222 -118.483955 6.113379
v 237.017349 -143.111115 -90.091515
v -178.844315 -103.518059 7.763391
v -259.403168 -150.889175 -89.999359
v -173.238174 -325.232269 12.466593
v -211.658447 -338.235016 -86.910378
v -167.327133 81.636642 3.050718
v -205.411957 107.287605 -93.969193
v -148.211609 974.534851 -16.763920
v 87.907013 1007.483521 -17.955336
v -173.818787 982.113220 -115.212715
v 110.478119 519.322693 -5.360788
v -164.221970 519.900940 -102.618164
v 156.183365 508.104523 -104.517784
v -146.399399 575.896667 -4.169365
v 85.686203 857.254395 -13.861830
v -150.432404 824.305664 -12.670410
v -176.039597 831.884094 -111.119209
v 118.313362 844.167969 -113.018829
vt 0.586831 -0.130725
vt 0.577969 -0.204965
vt 0.012024 -0.555365
vt 0.043055 -0.815004
vt 0.237965 -1.178865
vt 0.417082 -1.485007
vt 0.387249 -1.632578
vt 0.117728 -1.673837
vt 0.099404 -1.912152
vt -0.237524 -2.093623
vt -0.099797 -2.566368
vt 0.043429 -2.800472
vt -0.113993 -3.153042
vt 0.455483 -3.153839
vt 1.307266 -3.265161
vt 1.452769 -3.421772
vt 1.759971 -3.424992
vt 1.840498 -2.930358
vt 2.217451 -2.696831
vt 2.452444 -2.496122
vt 2.211730 -2.179332
vt 1.999495 -1.991714
vt 1.965996 -1.811407
vt 1.960339 -1.598271
vt 1.889268 -1.334372
vt 2.281937 -1.167309
vt 2.424783 -0.789474
vt 2.395253 -0.547362
vt 1.865978 -0.266269
vt 1.938414 -0.130726
vt -0.880928 0.037622
vt -2.631939 0.093878
vt -2.616913 0.001397
vt -3.022362 -0.083398
vt -3.271383 -0.514683
vt -3.001697 -0.778950
vt -2.754380 -1.031215
vt -2.837062 -1.338865
vt -2.825324 -1.580593
vt -2.901644 -1.715837
vt -3.088965 -1.968745
vt -3.308129 -2.216044
vt -3.109751 -2.400354
vt -2.763447 -2.701087
vt -2.737726 -3.158352
vt -2.312721 -3.094087
vt -2.105379 -2.929072
vt -1.016877 -2.904047
vt -0.280887 -2.963791
vt -0.534104 -2.750167
vt -0.424310 -2.603837
vt -0.408245 -2.314002
vt -0.261226 -2.000279
vt -0.492934 -1.659466
vt -0.670792 -1.529565
vt -0.727607 -1.306248
vt -0.567552 -0.966674
vt -0.237524 -0.629455
vt -0.510767 -0.378829
vt -0.835835 -0.060675
vt 3.233433 3.388351
vt 3.925074 3.317154
vt 3.931744 3.415435
vt 3.241214 3.463341
vt -1.477078 2.677923
vt -1.337470 3.408324
vt -1.789196 3.382321
vt -1.717554 2.696604
vt 1.064793 3.006667
vt 1.283351 3.104299
vt 1.364482 3.903881
vt 1.104978 3.788965
vt -1.100559 4.134908
vt -0.970537 3.457143
vt -0.623816 3.497246
vt -0.549809 4.134908
vt -1.253902 3.500912
vt -1.253902 4.190049
vt -1.647414 4.113770
vt -1.789196 3.408324
vt 3.463845 -1.605589
vt 2.606519 -1.531228
vt 2.452445 -1.712193
vt 3.274902 -1.766827
vt -2.514166 2.762802
vt -1.924144 2.588850
vt -1.789195 2.818275
vt -2.502522 3.019851
vt 2.471483 1.492273
vt 3.205308 1.460892
vt 3.161660 2.378049
vt 2.471225 2.226829
vt 0.538894 2.847201
vt -0.074942 2.699990
vt -0.099384 2.375882
vt 0.566545 2.539546
vt -0.295327 2.588850
vt -0.295327 3.326659
vt -0.474024 3.379965
vt -0.546372 2.682831
vt -0.756621 3.346004
vt -0.746862 2.631445
vt -0.546372 2.588850
vt -0.546372 3.275003
vt 3.283363 -0.730122
vt 4.054639 -0.530212
vt 3.949468 -0.212749
vt 3.357857 -0.518889
vt -3.296569 3.404802
vt -2.594802 3.265130
vt -2.554211 3.503497
vt -3.272659 3.616503
vt 3.985484 0.075917
vt 3.286462 -0.060402
vt -2.536141 3.816405
vt -3.265080 3.878628
vt 3.228544 0.159518
vt 3.948092 0.223461
vt 4.007558 0.435644
vt 3.245721 0.525250
vt -1.100559 2.588850
vt -1.100559 3.298102
vt -2.025727 -3.257436
vt -0.956461 -3.226185
vt 3.356901 -2.619487
vt 4.075877 -2.715506
vt 3.970761 -1.652575
vt 4.209529 -1.336264
vt 4.136184 -0.969187
vt 3.394704 -1.272604
vt 3.463612 -3.187038
vt 4.209529 -3.424992
vt 4.054639 0.765461
vt 3.280563 0.759662
vt -2.313754 -3.420837
vt 2.452445 0.806453
vt 2.477103 0.579356
vt -2.687664 -3.424992
vt 2.544064 -2.551860
vt -0.237524 -3.295017
vt 2.090690 2.434341
vt 2.320286 2.375882
vt 2.276170 2.944467
vt 2.046006 3.012242
vt -0.546349 3.457680
vt -0.319292 3.379964
vt -0.319291 3.714013
vt -0.546372 3.782261
vt 2.320286 3.789726
vt 2.090209 3.857469
vt 2.667544 3.831820
vt 2.452616 3.743083
vt 2.452445 3.458194
vt 2.667544 3.546903
vt 0.563923 4.424993
vt -0.195328 4.283229
vt -0.228249 3.704802
vt 0.566545 3.855965
vt 1.142239 2.442206
vt 1.364482 2.375882
vt 2.547490 -1.202122
vt -0.237524 2.861330
vt 0.554880 2.999834
vt 2.635927 -3.113944
vt 2.455582 0.946711
vt 2.453956 0.806453
vt 3.174688 0.822514
vt 3.189407 0.915330
vt 0.552293 0.780714
vt 1.986091 0.412899
vt 2.015497 1.146001
vt 0.747768 1.173608
vt 0.627693 1.776766
vt 1.979277 1.776766
vt 2.051312 2.375882
vt 0.699728 2.375882
vt -2.536141 3.668355
vt -1.829554 3.515025
vt -1.789196 3.734827
vt -2.517659 3.816776
vt 4.274009 0.806453
vt 4.274009 1.541324
vt 4.058337 1.685732
vt 3.937178 0.986063
vt -2.518203 3.372416
vt -1.835606 3.170441
vt -3.260028 3.040007
vt -2.570374 2.855122
vt -2.593504 3.123872
vt -3.308129 3.225948
vt 0.651774 3.763461
vt 0.566545 3.045454
vt -1.100559 3.457143
vt -1.087291 2.738836
vt -3.213940 2.724984
vt -2.536141 2.588850
vt 3.296377 -0.969187
vt 4.004797 -0.869973
vt -2.625025 0.636538
vt -0.800020 0.684304
vt -0.910663 1.345994
vt -2.462600 1.543289
vt 3.937179 2.665129
vt 3.242249 2.480293
vt 3.205308 2.074683
vt 3.896949 2.003486
vt 1.364482 3.987501
vt 1.371903 2.637314
vt 2.046006 2.375882
vt 2.046006 4.127894
vt 3.937179 1.409713
vt 3.245538 1.480909
vt 3.233436 0.877650
vt 3.925077 0.806453
vt -2.407413 1.980611
vt -0.730893 1.931855
vt -0.742672 2.532595
vt -2.493683 2.588850
vt 2.452445 2.855707
vt 3.161277 2.820510
vt 3.205308 3.426813
vt 2.471483 3.458194
vn 0.0082 0.0156 0.9998
vn -0.0074 -0.0122 -0.9999
vn -0.9380 0.1858 0.2926
vn 0.8573 0.2769 0.4340
vn 0.9144 -0.2453 0.3221
vn -0.7494 0.6297 0.2049
vn 0.3917 0.8558 0.3379
vn -0.7607 -0.6453 0.0699
vn -0.9082 0.2678 0.3217
vn 0.9351 0.0894 0.3429
vn -0.0966 0.9610 0.2592
vn -0.5252 0.8409 0.1307
vn 0.7662 -0.5578 0.3190
vn -0.9398 0.2330 0.2499
vn 0.8931 0.0286 0.4490
vn -0.9519 -0.1863 0.2434
vn 0.8559 0.1993 0.4773
vn -0.8179 0.3790 0.4329
vn 0.8518 -0.3438 0.3953
vn -0.0154 0.0476 -0.9987
vn -0.0403 -0.9988 -0.0296
vn -0.7144 -0.6895 -0.1190
vn 0.0101 -0.9979 0.0643
vn 0.1354 -0.9870 -0.0861
vn -0.8557 0.0874 0.5100
vn -0.4612 0.1836 -0.8681
vn -0.9461 0.1840 0.2667
vn 0.0908 0.2961 -0.9508
vn -0.0456 -0.9920 -0.1181
vn 0.0419 0.0547 -0.9976
vn -0.0545 0.1026 0.9932
vn -0.0615 0.1040 0.9927
vn 0.0145 0.0896 0.9959
vn 0.6299 -0.0513 0.7750
vn -0.1390 0.9742 0.1781
vn 0.9479 -0.1165 -0.2964
vn 0.0875 -0.9695 -0.2287
vn 0.0484 0.9907 0.1272
vn 0.1438 -0.9764 -0.1612
vn 0.7772 0.6217 -0.0967
vn 0.8698 -0.1950 0.4532
vn 0.0070 0.0305 0.9995
vn 0.0012 0.0272 0.9996
vn -0.8794 0.1297 0.4580
vn 0.7099 -0.6689 0.2206
vn -0.8786 -0.3622 0.3112
vn 0.7803 0.5520 0.2940
vn 0.8737 0.2621 0.4099
vn 0.9398 -0.0526 0.3377
vn 0.7199 -0.6221 0.3079
vn 0.8212 0.5280 0.2163
vn -0.8635 0.2443 0.4412
vn -0.8234 -0.4274 0.3733
vn -0.8326 -0.4789 0.2782
vn -0.0050 -0.0226 -0.9997
vn -0.9695 0.1759 0.1706
vn -0.0865 0.9959 -0.0271
vn -0.9672 0.0212 0.2532
vn -0.0051 -0.0268 -0.9996
vn 0.9273 -0.0437 0.3716
vn -0.9685 -0.0844 0.2344
vn -0.0059 -0.0299 -0.9995
vn 0.0060 0.0248 0.9997
vn 0.9089 0.0206 0.4166
vn 0.9522 0.1052 0.2869
vn -0.0032 -0.0325 -0.9995
vn -0.9523 -0.1976 0.2325
vn 0.0018 0.0274 0.9996
usemtl Material.097
s off
f 2/1/1 3/2/1 4/3/1 5/4/1 84/5/1 68/6/1 64/7/1 6/8/1 80/9/1 7/10/1 8/11/1 82/12/1 9/13/1 10/14/1 11/15/1 12/16/1 13/17/1 74/18/1 76/19/1 14/20/1 78/21/1 70/22/1 72/23/1 15/24/1 16/25/1 66/26/1 17/27/1 18/28/1 19/29/1 1/30/1
f 21/31/2 20/32/2 38/33/2 37/34/2 36/35/2 67/36/2 35/37/2 34/38/2 73/39/2 71/40/2 79/41/2 33/42/2 77/43/2 75/44/2 32/45/2 31/46/2 30/47/2 29/48/2 28/49/2 83/50/2 27/51/2 26/52/2 81/53/2 25/54/2 65/55/2 69/56/2 85/57/2 24/58/2 23/59/2 22/60/2
f 2/61/3 21/62/3 22/63/3 3/64/3
f 17/65/4 36/66/4 37/67/4 18/68/4
f 13/69/5 43/70/5 48/71/5 32/72/5
f 3/73/6 22/74/6 23/75/6 4/76/6
f 18/77/7 37/78/7 38/79/7 19/80/7
f 42/81/8 58/82/8 57/83/8 41/84/8
f 4/85/9 23/86/9 24/87/9 5/88/9
f 89/89/10 91/90/10 59/91/10 61/92/10
f 12/93/11 52/94/11 53/95/11 13/96/11
f 64/97/12 65/98/12 25/99/12 6/100/12
f 76/101/13 77/102/13 33/103/13 14/104/13
f 80/105/14 81/106/14 26/107/14 7/108/14
f 72/109/15 73/110/15 34/111/15 15/112/15
f 7/108/16 26/107/16 27/113/16 8/114/16
f 15/112/17 34/111/17 35/115/17 16/116/17
f 82/117/18 83/118/18 28/119/18 9/120/18
f 66/121/19 67/122/19 36/66/19 17/65/19
f 30/47/20 46/123/20 45/124/20 29/48/20
f 40/125/21 45/126/21 46/127/21 41/84/21
f 41/84/22 46/127/22 47/128/22 42/81/22
f 42/81/23 47/128/23 48/129/23 43/130/23
f 39/131/24 44/132/24 45/126/24 40/125/24
f 28/119/25 44/133/25 39/134/25 9/120/25
f 31/46/26 47/135/26 46/123/26 30/47/26
f 39/134/27 55/136/27 49/137/27 9/120/27
f 32/45/28 48/138/28 47/135/28 31/46/28
f 41/84/29 57/83/29 56/139/29 40/125/29
f 29/48/30 45/124/30 44/140/30 28/49/30
f 49/141/31 55/142/31 56/143/31 50/144/31
f 52/145/32 58/146/32 54/147/32 53/148/32
f 50/144/33 56/143/33 57/149/33 51/150/33
f 51/151/34 57/152/34 58/153/34 52/154/34
f 9/155/35 49/156/35 50/157/35 10/158/35
f 13/69/36 53/159/36 54/160/36 43/70/36
f 43/130/37 54/161/37 58/82/37 42/81/37
f 10/158/38 50/157/38 51/162/38 11/163/38
f 40/125/39 56/139/39 55/164/39 39/131/39
f 11/163/40 51/162/40 52/94/40 12/93/40
f 1/165/41 19/166/41 38/167/41 20/168/41
f 92/169/42 89/170/42 61/171/42 60/172/42
f 94/173/43 93/174/43 87/175/43 86/176/43
f 68/177/44 69/178/44 65/179/44 64/180/44
f 16/181/45 35/182/45 67/183/45 66/184/45
f 84/185/46 85/186/46 69/178/46 68/177/46
f 78/187/47 79/188/47 71/189/47 70/190/47
f 70/190/48 71/189/48 73/110/48 72/109/48
f 13/69/49 32/72/49 75/191/49 74/192/49
f 74/193/50 75/194/50 77/102/50 76/101/50
f 14/195/51 33/196/51 79/188/51 78/187/51
f 6/197/52 25/198/52 81/106/52 80/105/52
f 8/114/53 27/113/53 83/118/53 82/117/53
f 5/88/54 24/87/54 85/186/54 84/185/54
f 91/199/55 90/200/55 63/201/55 59/202/55
f 90/203/56 92/204/56 60/205/56 63/206/56
f 86/207/57 87/208/57 62/209/57 88/210/57
f 95/211/58 94/212/58 86/213/58 88/214/58
f 96/215/59 95/216/59 88/217/59 62/218/59
f 93/219/60 96/220/60 62/221/60 87/222/60
f 21/62/61 2/61/61 92/204/61 90/203/61
f 20/32/62 21/31/62 90/200/62 91/199/62
f 2/1/63 1/30/63 89/170/63 92/169/63
f 1/165/64 20/168/64 91/90/64 89/89/64
f 61/92/65 59/91/65 96/220/65 93/219/65
f 59/202/66 63/201/66 95/216/66 96/215/66
f 63/206/67 60/205/67 94/212/67 95/211/67
f 60/172/68 61/171/68 93/174/68 94/173/68
