# Blender v2.93.5 OBJ File: 'salisnuevos.blend'
# www.blender.org
mtllib sali83.mtl
o Plane.049_Plane.053
v 49.836948 -17.991259 3.367598
v -20.572248 -42.593170 -54.090240
v 50.616852 -5.593730 2.391041
v 49.918957 48.287006 3.035082
v 36.613853 48.287006 3.035082
v 23.308748 48.287006 3.035082
v 7.064468 53.191624 -32.187286
v -18.483521 47.863922 -52.032791
v -8.867583 24.474176 -80.872177
v -9.358282 -53.240707 -51.784462
v 50.746223 34.228977 5.121618
v 10.003644 45.565517 3.035082
v 26.627012 -31.033833 0.870041
v -20.814356 -40.176056 -54.740730
v -42.662968 -37.590534 -14.890669
v -25.116255 3.903746 -66.784561
v 50.156300 28.047531 2.668907
v 53.986130 8.057192 2.769144
v 10.046514 -25.123867 2.982695
v -20.307640 -40.910110 -54.398827
v -24.205227 -13.367226 -56.751625
v 23.668995 -31.400789 0.877752
v -16.874220 -36.527901 1.598866
v 54.840183 48.110897 3.262823
v 51.843597 22.068157 3.725746
v 35.616409 -30.578508 3.351162
v -6.768736 -31.367102 3.606693
v 49.257202 -26.110048 0.844852
v -3.536825 -29.269413 4.124769
v -25.632643 -9.924283 -68.062599
v 5.256342 41.286850 -18.431719
v -24.561235 -29.250381 -55.520279
v -34.651363 -44.839684 -13.503298
v -23.451921 -9.203911 -55.536850
v 53.789024 14.443367 4.779844
v -12.942227 50.814827 -49.934875
v 6.690113 -24.460182 3.981741
v -25.231888 -31.746536 -56.741043
v -16.556488 -47.410065 -53.072456
v -6.251982 -31.933218 54.344612
v -22.302658 -32.722023 44.420475
v -32.870564 -32.262852 46.470829
v 41.724346 -20.934505 54.911369
v 30.947245 -20.049955 55.054398
v 20.014067 -20.672787 55.066711
v 7.928003 -20.901173 54.322876
v -2.081209 -21.350529 54.656715
v -22.853567 -22.199131 45.414009
v -32.705498 -21.048695 47.912170
v 42.115982 -9.965379 54.123077
v 31.368349 -10.570749 53.776611
v 21.295372 -8.755101 54.882210
v 10.278851 -10.467967 56.530258
v -1.245322 -9.869987 56.166382
v -13.929008 -9.165163 55.652321
v -41.269650 -4.299111 32.242393
v -55.223824 -1.636238 4.573265
v 45.419701 1.244666 56.167793
v 42.540318 -0.156055 56.144989
v 30.619522 1.806899 56.198608
v 20.542521 -0.009431 54.393456
v 10.230620 1.221726 54.566406
v -1.875587 2.874693 54.906715
v -12.787739 -0.023847 56.682320
v -40.098194 6.746106 31.518154
v -56.306488 9.705341 4.342754
v 43.981796 12.065166 54.513451
v 41.156319 11.225681 53.593697
v 30.740202 11.047351 54.755096
v 20.986494 12.833877 56.453232
v 9.944010 11.940178 54.574829
v -1.252995 12.072871 53.485626
v -11.516684 11.463688 55.540031
v -40.727150 18.591354 30.559721
v -54.871037 19.677538 4.218887
v 42.863567 24.191788 55.116119
v 41.876976 23.651484 55.995987
v 31.558823 23.920614 54.661263
v 20.820719 23.901951 54.386688
v 9.091581 21.723938 52.814072
v -1.333260 23.307529 54.994400
v -12.465090 22.089685 55.503578
v -40.833179 27.644131 31.604740
v -55.253204 32.725121 4.683619
v 45.250557 33.634941 54.333847
v 41.182152 34.573318 57.635544
v 29.861614 33.082748 55.729401
v 20.035048 34.636150 55.681839
v -12.553631 32.311668 54.510284
v -44.982460 41.970585 8.768908
v -54.201138 42.967583 5.353793
v 42.102516 18.495573 54.969200
v -55.919292 -12.275704 4.648008
v -3.587838 -30.646866 55.117493
v 8.969044 -25.918390 54.390800
v 21.132803 -31.500101 55.026848
v 31.083454 -30.342646 55.702095
v 41.760479 -26.968592 55.017410
v -34.044327 -33.850147 46.480202
v -22.175917 -35.751614 45.350483
v -45.617962 -22.928392 8.672721
v 8.532165 31.610369 54.549484
v -55.741131 31.685652 4.145977
v -54.738605 -13.056813 4.653313
v -57.679123 8.042510 3.774393
v -56.937202 19.661366 3.819757
v -2.102730 28.699097 56.244705
v -57.801964 -0.856701 1.624489
v -28.281912 -39.360119 46.941853
v -57.075203 12.498666 4.300163
v 45.658943 6.116761 55.634010
v -17.684399 36.778214 54.500931
v 6.386312 -25.488325 54.651489
v 23.514088 -30.806984 54.989616
v -59.805668 -5.269550 2.615950
v -51.821945 -17.632183 5.847743
vt 0.771559 0.669323
vt 0.780077 0.560932
vt 0.990711 0.550129
vt 0.998259 0.611589
vt 0.540229 0.861676
vt 0.517675 0.875957
vt 0.513047 0.676756
vt 0.540229 0.661689
vt 0.000000 0.716839
vt 0.000027 0.700455
vt 0.218434 0.708836
vt 0.218300 0.720656
vt 0.771090 0.512232
vt 0.780072 0.456159
vt 0.995889 0.476988
vt 0.996135 0.518525
vt 0.012964 0.819188
vt 0.219724 0.812476
vt 0.432270 0.771281
vt 0.435811 0.844186
vt 0.221171 0.848633
vt 0.224884 0.795378
vt 0.017568 0.841281
vt 0.221171 0.829303
vt 0.758481 0.296725
vt 0.749151 0.381882
vt 0.513047 0.370265
vt 0.528849 0.302735
vt 0.015832 0.885765
vt 0.220515 0.871016
vt 0.443331 0.692559
vt 0.446183 0.755772
vt 0.225115 0.789248
vt 0.229391 0.730555
vt 0.770859 0.533004
vt 0.761716 0.568347
vt 0.527824 0.521827
vt 0.540849 0.486137
vt 0.443600 0.646352
vt 0.230363 0.695978
vt 0.763240 0.479152
vt 0.528590 0.445118
vt 0.770859 0.947511
vt 0.774561 0.850298
vt 0.996121 0.774791
vt 1.000000 0.853496
vt 0.513047 0.599301
vt 0.509958 0.588085
vt 0.513047 0.582358
vt 0.765978 0.661689
vt 0.529299 0.589232
vt 0.767811 0.211567
vt 0.534682 0.230481
vt 0.777579 0.139111
vt 0.786235 0.096377
vt 0.995464 0.166036
vt 0.996135 0.205415
vt 0.778627 0.179916
vt 0.990922 0.249319
vt 0.769335 0.122373
vt 0.531177 0.162317
vt 0.779180 0.231998
vt 0.992238 0.289912
vt 0.775093 0.370659
vt 0.992306 0.401397
vt 0.446183 0.582358
vt 0.444317 0.640299
vt 0.229121 0.686610
vt 0.231942 0.636539
vt 0.770859 0.033178
vt 0.529739 0.089261
vt 0.770859 0.275972
vt 0.994662 0.323496
vt 0.774845 0.542962
vt 0.994637 0.518525
vt 0.770080 0.000000
vt 0.539655 0.059515
vt 0.776464 0.698746
vt 1.000000 0.642686
vt 0.487156 0.803304
vt 0.446183 0.786509
vt 0.460906 0.582358
vt 0.487156 0.586466
vt 0.771602 0.755090
vt 0.996470 0.691568
vt 0.009810 0.647894
vt 0.001633 0.582358
vt 0.219844 0.613155
vt 0.221171 0.665134
vt 0.771979 0.000000
vt 0.988355 0.100547
vt 0.487156 0.586637
vt 0.502101 0.582358
vt 0.502101 0.781988
vt 0.492764 0.784044
vt 0.423939 0.557821
vt 0.414839 0.485760
vt 0.490432 0.484134
vt 0.494759 0.552063
vt 0.413279 0.404221
vt 0.483624 0.407445
vt 0.424535 0.327896
vt 0.461447 0.334613
vt 0.416329 0.255676
vt 0.484236 0.262118
vt 0.434344 0.175536
vt 0.508029 0.183744
vt 0.437242 0.101630
vt 0.499871 0.115702
vt 0.438047 0.030566
vt 0.513047 0.038205
vt 0.442023 0.023893
vt 0.507645 0.009880
vt 0.341113 0.553374
vt 0.345516 0.485005
vt 0.340377 0.394952
vt 0.347223 0.324410
vt 0.349196 0.247325
vt 0.358192 0.171588
vt 0.348414 0.103946
vt 0.352332 0.032265
vt 0.402616 0.027659
vt 0.358837 0.013053
vt 0.265191 0.559494
vt 0.264214 0.475580
vt 0.260969 0.400764
vt 0.283741 0.326356
vt 0.275487 0.242587
vt 0.269673 0.171282
vt 0.284771 0.102427
vt 0.274334 0.019861
vt 0.284719 0.000402
vt 0.318320 0.000000
vt 0.187402 0.549033
vt 0.187963 0.478532
vt 0.197751 0.406238
vt 0.196170 0.318759
vt 0.195026 0.239285
vt 0.209663 0.163855
vt 0.199766 0.094022
vt 0.206705 0.020204
vt 0.124907 0.462652
vt 0.119536 0.394480
vt 0.116929 0.321515
vt 0.122606 0.252724
vt 0.127294 0.169605
vt 0.134402 0.094505
vt 0.131093 0.020088
vt 0.047673 0.460862
vt 0.047244 0.387950
vt 0.043006 0.347488
vt 0.052546 0.329499
vt 0.036444 0.468532
vt 0.000000 0.427455
vt 0.026419 0.386318
vt 0.114001 0.550590
vt 0.108910 0.542765
vt 0.333527 0.567392
vt 0.284230 0.565273
vt 0.253362 0.569286
vt 0.513047 0.443915
vt 0.090630 0.262161
vt 0.088337 0.244265
vt 0.053050 0.159109
vt 0.058436 0.142895
vt 0.063583 0.090927
vt 0.416617 0.561996
vt 0.043523 0.471719
vt 0.191881 0.572975
vt 0.161107 0.582358
vt 0.078227 0.519899
vt 0.089565 0.018285
vn -0.8629 0.0354 -0.5042
vn 0.4232 -0.9046 0.0500
vn 0.1948 -0.9808 0.0113
vn 0.9877 -0.0625 0.1436
vn -0.4188 -0.9078 -0.0220
vn -0.6830 -0.7172 0.1383
vn -0.1852 -0.9825 -0.0200
vn -0.5555 0.8207 0.1337
vn 0.4419 -0.8968 -0.0197
vn -0.6395 -0.7688 0.0039
vn -0.0835 0.9911 0.1038
vn -0.8136 -0.5393 -0.2172
vn -0.0414 0.9838 0.1744
vn -0.8332 0.2703 -0.4823
vn -0.3085 0.2183 0.9258
vn -0.7215 0.5646 -0.4009
vn -0.2295 0.9434 0.2396
vn 0.9822 -0.1394 0.1263
vn 0.7142 0.6520 0.2546
vn 0.9395 0.2796 0.1981
vn 0.0640 0.9609 0.2693
vn 0.9385 0.2823 0.1986
vn 0.9870 -0.0377 0.1561
vn -0.8238 -0.5086 -0.2505
vn -0.0777 0.9654 0.2490
vn 0.9877 -0.0240 0.1547
vn -0.7509 0.3100 -0.5831
vn 0.2137 0.9340 0.2862
vn -0.8104 0.2359 -0.5363
vn 0.3191 -0.9475 0.0183
vn 0.9549 -0.2686 0.1264
vn -0.7949 -0.5840 -0.1644
vn -0.9192 0.2722 -0.2846
vn 0.3103 -0.9502 0.0295
vn 0.9612 -0.2553 0.1043
vn -0.9010 0.0861 -0.4253
vn 0.5008 -0.8654 -0.0188
vn -0.6633 -0.7474 -0.0376
vn 0.0539 -0.9985 0.0082
vn -0.6533 0.4601 0.6013
vn -0.5916 0.5066 0.6272
vn -0.0588 -0.0197 0.9981
vn 0.1888 -0.1725 0.9667
vn -0.0811 -0.1501 0.9853
vn -0.0246 -0.1209 0.9924
vn -0.1383 -0.1485 0.9792
vn 0.6311 -0.0849 0.7710
vn -0.8826 -0.0514 0.4674
vn -0.6548 -0.0736 0.7522
vn 0.1239 -0.0609 0.9904
vn 0.0515 0.0143 0.9986
vn -0.1700 0.1699 0.9707
vn 0.0765 0.0875 0.9932
vn -0.0071 -0.0929 0.9957
vn -0.2669 -0.1455 0.9527
vn -0.8666 0.0566 0.4958
vn -0.6493 0.0859 0.7557
vn 0.1598 0.1070 0.9813
vn -0.0266 0.0712 0.9971
vn -0.0807 -0.0866 0.9930
vn -0.0054 -0.0278 0.9996
vn 0.0687 0.1938 0.9786
vn -0.2211 0.1498 0.9637
vn -0.8749 0.0241 0.4836
vn -0.6554 0.0637 0.7526
vn 0.0525 0.0093 0.9986
vn 0.0115 0.1311 0.9913
vn 0.0817 0.1219 0.9892
vn -0.0345 -0.0935 0.9950
vn -0.0244 -0.1967 0.9802
vn 0.0919 -0.2048 0.9745
vn -0.4631 0.1644 0.8709
vn -0.2630 -0.3298 0.9067
vn -0.0025 -0.1669 0.9860
vn 0.0471 -0.0976 0.9941
vn 0.0566 0.0636 0.9964
vn -0.0081 0.1008 0.9949
vn 0.2083 -0.1052 0.9724
vn -0.4553 0.0284 0.8899
vn 0.1407 0.1887 0.9719
vn -0.8882 -0.0363 0.4579
vn -0.1442 0.0259 0.9892
vn -0.6281 -0.7209 0.2931
vn 0.0327 0.0498 0.9982
vn -0.0323 0.0182 0.9993
vn -0.3374 -0.0187 0.9412
vn -0.7408 0.5500 0.3857
vn -0.5199 0.2307 0.8225
vn -0.4855 0.1481 0.8616
vn 0.6947 -0.1111 0.7107
vn -0.7759 0.0385 0.6297
vn -0.8859 -0.3368 0.3190
vn -0.0582 -0.0062 0.9983
vn -0.6486 -0.1023 0.7542
vn 0.0331 0.0464 0.9984
usemtl Material.135
s off
f 21/1/1 32/2/1 108/3/1 105/4/1
f 33/5/2 23/6/2 100/7/2 109/8/2
f 22/9/3 13/10/3 114/11/3 96/12/3
f 28/13/4 1/14/4 43/15/4 98/16/4
f 19/17/5 22/9/5 96/12/5 95/18/5
f 15/19/6 33/20/6 109/21/6 99/22/6
f 37/23/7 19/17/7 95/18/7 113/24/7
f 12/25/8 31/26/8 107/27/8 102/28/8
f 29/29/9 37/23/9 113/24/9 94/30/9
f 39/31/10 10/32/10 101/33/10 116/34/10
f 36/35/11 8/36/11 90/37/11 112/38/11
f 20/39/12 39/31/12 116/34/12 104/40/12
f 7/41/13 36/35/13 112/38/13 89/42/13
f 9/43/14 16/44/14 103/45/14 91/46/14
f 2/47/15 20/48/15 14/49/15
f 8/36/16 9/50/16 91/51/16 90/37/16
f 6/52/17 12/25/17 102/28/17 88/53/17
f 17/54/18 11/55/18 76/56/18 92/57/18
f 31/26/19 7/41/19 89/42/19 107/27/19
f 25/58/20 17/54/20 92/57/20 67/59/20
f 5/60/21 6/52/21 88/53/21 87/61/21
f 35/62/22 25/58/22 67/59/22 111/63/22
f 1/14/23 3/64/23 50/65/23 43/15/23
f 38/66/24 14/67/24 93/68/24 115/69/24
f 4/70/25 5/60/25 87/61/25 86/71/25
f 18/72/26 35/62/26 111/63/26 58/73/26
f 32/2/27 38/74/27 115/75/27 108/3/27
f 24/76/28 4/70/28 86/71/28 85/77/28
f 34/78/29 21/1/29 105/4/29 110/79/29
f 23/80/30 27/81/30 40/82/30 100/83/30
f 3/64/31 18/72/31 58/73/31 50/65/31
f 30/84/32 34/78/32 110/79/32 106/85/32
f 10/32/33 15/19/33 99/22/33 101/33/33
f 26/86/34 28/87/34 98/88/34 97/89/34
f 11/55/35 24/90/35 85/91/35 76/56/35
f 16/44/36 30/84/36 106/85/36 103/45/36
f 27/92/37 29/93/37 94/94/37 40/95/37
f 14/67/38 20/39/38 104/40/38 93/68/38
f 13/10/39 26/86/39 97/89/39 114/11/39
f 84/96/40 83/97/40 90/98/40 91/99/40
f 83/97/41 82/100/41 89/101/41 90/98/41
f 82/100/42 81/102/42 107/103/42 89/101/42
f 81/102/43 80/104/43 102/105/43 107/103/43
f 80/104/44 79/106/44 88/107/44 102/105/44
f 79/106/45 78/108/45 87/109/45 88/107/45
f 78/108/46 77/110/46 86/111/46 87/109/46
f 77/110/47 76/112/47 85/113/47 86/111/47
f 75/114/48 74/115/48 83/97/48 84/96/48
f 74/115/49 73/116/49 82/100/49 83/97/49
f 73/116/50 72/117/50 81/102/50 82/100/50
f 72/117/51 71/118/51 80/104/51 81/102/51
f 71/118/52 70/119/52 79/106/52 80/104/52
f 70/119/53 69/120/53 78/108/53 79/106/53
f 69/120/54 68/121/54 92/122/54 77/110/54 78/108/54
f 68/121/55 67/123/55 92/122/55
f 66/124/56 65/125/56 74/115/56 75/114/56
f 65/125/57 64/126/57 73/116/57 74/115/57
f 64/126/58 63/127/58 72/117/58 73/116/58
f 63/127/59 62/128/59 71/118/59 72/117/59
f 62/128/60 61/129/60 70/119/60 71/118/60
f 61/129/61 60/130/61 69/120/61 70/119/61
f 60/130/62 59/131/62 68/121/62 69/120/62
f 59/131/63 58/132/63 111/133/63 67/123/63 68/121/63
f 57/134/64 56/135/64 65/125/64 66/124/64
f 56/135/65 55/136/65 64/126/65 65/125/65
f 55/136/66 54/137/66 63/127/66 64/126/66
f 54/137/67 53/138/67 62/128/67 63/127/67
f 53/138/68 52/139/68 61/129/68 62/128/68
f 52/139/69 51/140/69 60/130/69 61/129/69
f 51/140/70 50/141/70 59/131/70 60/130/70
f 50/141/71 58/132/71 59/131/71
f 49/142/72 48/143/72 55/136/72 56/135/72
f 48/143/73 47/144/73 54/137/73 55/136/73
f 47/144/74 46/145/74 53/138/74 54/137/74
f 46/145/75 45/146/75 52/139/75 53/138/75
f 45/146/76 44/147/76 51/140/76 52/139/76
f 44/147/77 43/148/77 50/141/77 51/140/77
f 42/149/78 41/150/78 48/143/78 49/142/78
f 41/150/79 40/151/79 94/152/79 47/144/79 48/143/79
f 99/153/80 109/154/80 100/155/80 41/150/80 42/149/80
f 93/156/81 104/157/81 49/142/81 56/135/81 57/134/81
f 106/158/82 110/159/82 105/160/82 66/124/82 75/114/82
f 89/101/83 112/161/83 90/98/83
f 94/152/84 113/162/84 95/163/84 46/145/84 47/144/84
f 96/164/85 114/165/85 97/166/85 44/147/85 45/146/85
f 103/167/86 106/158/86 75/114/86 84/96/86
f 101/168/87 99/153/87 42/149/87
f 100/155/88 40/151/88 41/150/88
f 108/169/89 115/170/89 93/156/89 57/134/89
f 92/122/90 76/112/90 77/110/90
f 91/99/91 103/167/91 84/96/91
f 104/157/92 116/171/92 101/168/92 42/149/92 49/142/92
f 95/163/93 96/164/93 45/146/93 46/145/93
f 105/160/94 108/169/94 57/134/94 66/124/94
f 97/166/95 98/172/95 43/148/95 44/147/95
