# Blender v2.93.5 OBJ File: 'salisnuevos.blend'
# www.blender.org
mtllib plano2.mtl
o Plane.001_Plane.004
v 111.016296 329.649445 -4.946825
v -145.076782 328.534912 -3.755407
v -144.155457 -61.113075 -4.193716
v -160.569183 -91.148590 -2.897404
v -148.238113 -121.613831 -1.452438
v -147.532166 -254.133392 2.631363
v -152.404297 -318.695496 4.910053
v -172.154938 -368.778687 7.037201
v -158.535187 -438.605713 9.910629
v -70.926743 -430.717682 8.739204
v 61.791069 -434.787445 7.564323
v 86.570160 -455.380951 7.279583
v 133.921295 -451.882599 2.749977
v 118.189804 -340.741486 3.153641
v 114.012451 -215.489075 -0.978165
v 128.180969 -169.973022 -2.194115
v 182.570709 -102.926445 -4.791832
v 213.624283 -63.245312 -6.006468
v 194.598801 -28.911175 -7.294153
v 151.255325 323.133240 -104.103821
v -167.621384 332.936920 -102.204208
v -173.485428 -60.148170 -100.488625
v -170.512283 -79.306992 -99.761436
v -170.843140 -116.374542 -98.994217
v -198.561890 -266.825653 -95.055008
v -204.616150 -347.503906 -92.929077
v -223.381607 -403.833130 -91.707672
v -212.705978 -424.069550 -90.098442
v -99.013397 -415.695953 -85.227524
v 69.260284 -419.174347 -88.298271
v 101.584724 -441.888245 -110.087769
v 167.213409 -451.407715 -106.447838
v 160.665070 -376.819641 -93.010971
v 159.879318 -218.489395 -97.303894
v 176.495270 -168.217072 -98.415665
v 226.944336 -90.668648 -100.672256
v 261.078278 -61.408634 -101.311478
v 241.514877 -28.083866 -102.350891
v -169.303833 -489.255554 6.910629
v -80.504570 -481.399200 12.923420
v 52.055515 -484.851807 9.847496
v 74.042343 -502.050995 -21.059673
v 126.360863 -500.161804 -16.742329
v -219.366547 -471.719543 -96.253891
v -108.345123 -462.175781 -88.716179
v 56.959564 -466.536407 -92.137207
v 102.018723 -504.677155 -133.115677
v 159.750687 -505.516571 -128.931183
v -134.392212 -448.388763 118.900185
v -45.281609 -439.941376 122.930565
v 85.480766 -444.168823 121.427422
v 111.380058 -467.802979 94.825584
v 161.407837 -464.597900 97.794640
v 153.034225 -514.365967 103.139259
v -142.781387 -498.125458 124.232399
v -55.108078 -489.789459 128.229858
v 75.658974 -494.004639 126.719444
v 101.546455 -517.656616 100.132515
v -134.535751 882.327698 -3.755354
v 113.950890 889.527344 -4.946772
v 140.399536 452.680511 -4.946817
v -159.711258 404.225037 -102.204201
v -157.453949 484.203979 -102.204201
v -134.850128 493.702454 -3.755402
v 201.001144 580.648499 -104.103806
v -137.127411 409.034119 -3.755402
v 160.806381 597.551941 -4.946804
v -157.080353 886.729736 -102.204155
v 180.643906 447.424927 -104.103813
v 154.189911 883.011230 -104.103767
v -119.709808 773.162048 -102.204178
v -97.037415 798.755432 -3.755371
v 153.084412 758.593201 -104.103790
v 112.934120 785.937561 -4.946789
v 152.838974 700.977112 -104.103790
v 112.599831 707.463867 -4.946796
v -99.663918 658.199402 -3.755381
v -122.237091 655.897339 -102.204178
v 166.196365 31.814512 -6.903246
v 212.067703 41.601925 -102.692780
v -155.173050 2.670853 -10.891672
v -182.466339 15.747546 -107.737701
v -180.191299 69.806862 -4.040672
v -205.124466 67.898712 -101.069893
v 156.910782 144.021622 -6.577095
v 200.963181 136.688721 -102.857338
v 118.384323 205.730881 -5.783697
v 160.957169 204.954193 -103.494186
v -233.099289 173.433212 -3.915026
v -266.991211 164.482101 -101.469009
v -184.113022 306.635864 -101.865334
v -151.953094 316.466949 -3.820658
v 128.449127 277.055450 -5.324562
v 170.930542 257.900818 -103.753944
v -266.642303 248.970444 -101.576370
v -239.215439 231.058807 -3.893940
v 165.527802 229.218826 -103.613228
v 122.955048 238.121414 -5.575190
v -226.693100 110.941971 -101.235329
v -201.916977 133.149643 -3.966415
v 163.589844 92.277298 -101.826309
v 118.960052 100.289917 -5.769979
vt -0.377388 1.042135
vt -0.420790 0.973777
vt -0.941547 0.505527
vt -0.933182 0.163137
vt -0.778415 -0.087147
vt -0.686188 -0.469591
vt -0.578027 -0.872866
vt -0.544651 -1.256435
vt -0.648664 -1.427475
vt -0.593758 -1.612812
vt -0.648089 -2.396518
vt -0.703403 -2.776332
vt -0.834676 -3.064621
vt -0.789916 -3.483269
vt -0.301639 -3.471892
vt 0.431020 -3.549404
vt 0.559033 -3.680840
vt 0.822250 -3.677545
vt 0.784369 -3.015737
vt 0.816269 -2.273463
vt 0.914709 -2.010229
vt 1.245161 -1.635775
vt 1.434476 -1.413830
vt 1.344242 -1.203017
vt 1.213932 -0.833429
vt 0.982875 -0.410779
vt 1.212192 -0.167923
vt 1.026319 0.211415
vt 1.065961 0.400526
vt 1.113611 0.627841
vt 1.040417 0.945005
vt -1.561420 1.400403
vt -3.321817 1.212387
vt -3.403650 0.820888
vt -3.361848 0.654436
vt -3.326484 0.513619
vt -3.519629 0.096217
vt -3.294510 -0.149272
vt -3.541579 -0.467546
vt -3.675641 -0.889206
vt -3.770250 -1.092537
vt -3.569287 -1.250447
vt -3.258249 -1.684825
vt -3.145589 -1.973151
vt -3.084896 -2.902261
vt -3.087634 -3.351870
vt -2.727696 -3.271497
vt -2.562277 -3.111518
vt -1.632979 -3.021012
vt -0.999363 -3.027176
vt -0.948395 -2.904786
vt -1.075449 -2.581767
vt -1.142111 -2.110911
vt -1.357352 -1.239486
vt -1.374454 -1.022030
vt -1.365831 -0.908564
vt -1.346342 -0.462870
vt -1.243861 -0.142843
vt -1.142357 0.119003
vt -0.941546 0.450146
vt -0.978589 0.946956
vt -1.459273 1.252571
vt 4.152526 -0.385080
vt 4.748159 -0.402264
vt 4.770250 -0.249916
vt 4.162835 -0.315004
vt 2.127400 2.049843
vt 1.510155 1.960575
vt 1.443648 1.757846
vt 2.064942 1.789297
vt 2.222259 4.131237
vt 2.122985 4.425113
vt 1.434477 4.453073
vt 1.551242 4.124498
vt 3.396338 -1.803140
vt 3.989716 -1.825016
vt 3.984074 -1.710689
vt 3.419444 -1.629559
vt 1.479951 1.581876
vt 2.098940 1.606991
vt 3.597097 2.358774
vt 2.860318 2.430463
vt 2.734924 2.277809
vt 3.440000 2.223115
vt 3.986278 -1.491186
vt 3.396983 -1.445696
vt 1.543720 1.202690
vt 2.163671 1.278961
vt 3.400045 3.302652
vt 2.873444 3.175657
vt 2.852830 2.897639
vt 3.424089 3.038785
vt 4.031626 -0.607275
vt 3.394288 -0.660331
vt 1.647511 3.691754
vt 2.268419 3.496927
vt 4.042139 -0.130917
vt 3.399458 -0.279087
vt 1.644142 2.769044
vt 2.268591 2.770508
vt 4.073629 0.197747
vt 3.426311 0.012398
vt 1.611631 2.460179
vt 2.239698 2.491738
vt 4.051144 0.320600
vt 3.400142 0.429843
vt 2.368416 -3.075005
vt 1.736467 -2.928247
vt 1.749193 -3.655784
vt 2.378824 -3.680840
vt -2.473793 -3.387487
vt -1.561360 -3.292782
vt 3.504791 1.491258
vt 4.129416 1.406540
vt 4.046155 2.318905
vt 3.887083 4.316398
vt 3.758320 3.749593
vt 3.988903 3.575193
vt 3.988903 4.169678
vt 4.235240 2.582161
vt 4.175056 2.897639
vt 3.541124 2.645088
vt 3.589199 1.003172
vt 4.235240 0.796401
vt 4.104321 0.600480
vt 3.442260 0.726656
vt -2.699724 -3.655059
vt 2.734923 0.796401
vt 2.744065 0.503640
vt -3.019668 -3.680840
vt 2.808273 1.557029
vt -0.941546 -3.308534
vt 3.462837 2.949672
vt 3.758319 2.897639
vt 3.720062 3.385584
vt 3.424089 3.445608
vt 3.996837 3.877129
vt 3.988902 3.575192
vt 4.268816 3.637265
vt 4.268816 3.937468
vt 3.758319 4.110483
vt 3.462422 4.170481
vt 3.988902 4.330267
vt 3.988989 4.028359
vt 4.204823 3.937469
vt 4.204823 4.239503
vt 3.421153 4.657125
vt 2.770001 4.534832
vt 2.742497 4.038755
vt 3.424089 4.169111
vt 2.694900 4.155944
vt 2.734924 4.453073
vt 2.813402 2.713409
vt 2.734924 3.314831
vt 3.414481 3.434327
vt 2.879886 1.073760
vt 2.317583 -0.408853
vt 1.687952 -0.383797
vt 1.645597 -1.137142
vt 2.275088 -1.154832
vt 4.145677 -0.860322
vt 4.740730 -0.822948
vt 4.742769 -1.296288
vt 4.148011 -1.361441
vt 4.104322 -2.328657
vt 4.699533 -2.306130
vt 1.257458 1.658762
vt 1.434476 2.504997
vt 1.216272 3.172941
vt 1.252827 3.635691
vt 1.304268 4.246314
vt -0.074128 4.304454
vt 0.096456 3.796234
vt 0.019758 2.968218
vt -0.247740 2.012232
vt -0.297789 1.513734
vt 2.359682 -2.616470
vt 1.730054 -2.591585
vt 2.252682 -2.019916
vt 1.621895 -1.934165
vt -1.634842 1.816562
vt -1.680591 2.286137
vt -1.946893 3.281885
vt -2.009641 3.970689
vt -1.850037 4.653910
vt -3.570867 4.504772
vt -3.513013 3.773311
vt -3.487697 3.434475
vt -3.704216 2.707108
vt -3.536151 1.931647
vt 4.110006 -3.160790
vt 4.703748 -3.000304
vt 4.174617 -3.663656
vt 4.770250 -3.680840
vt 1.648974 0.952067
vt 2.270118 0.923169
vt 3.441196 -2.184426
vt 4.032559 -2.277531
vt 3.430243 -2.588160
vt 4.021417 -2.591902
vt 2.196979 0.632396
vt 1.575797 0.657924
vt 1.658315 0.297015
vt 2.283772 0.308025
vt 1.651656 0.151069
vt 2.279905 0.114548
vt 3.495052 -3.216073
vt 4.104321 -3.180557
vt 4.048940 -2.852627
vt 3.453332 -2.969127
vt 3.758320 3.575193
vt 3.794923 2.976193
vt 4.263019 2.897639
vt 4.263019 3.504029
vt 2.275255 -0.118014
vt 1.643786 -0.021447
vt 3.495054 -3.558992
vt 4.090592 -3.680840
vn 0.0067 0.0148 0.9999
vn -0.0026 -0.0144 -0.9999
vn -0.8329 0.5088 0.2178
vn 0.6997 -0.6539 0.2879
vn 0.9250 -0.2522 0.2842
vn -0.9411 0.2657 0.2090
vn 0.7907 0.4647 0.3985
vn -0.6131 -0.7884 0.0496
vn -0.9745 -0.1683 0.1484
vn 0.8283 0.3673 0.4231
vn -0.0654 0.9858 0.1544
vn -0.9323 0.0989 0.3479
vn 0.9394 0.0880 0.3313
vn -0.8884 0.0805 0.4520
vn 0.9107 0.0282 0.4122
vn -0.8757 0.3281 0.3542
vn 0.8648 -0.2676 0.4248
vn -0.8553 -0.2071 0.4749
vn 0.9262 -0.0086 0.3769
vn 0.7691 -0.5465 0.3312
vn -0.0175 0.0818 -0.9965
vn -0.0297 -0.9836 -0.1780
vn -0.7249 -0.6699 -0.1605
vn 0.0066 -0.9993 0.0374
vn 0.0990 -0.9722 -0.2122
vn -0.8769 0.1119 0.4675
vn -0.4793 0.2564 -0.8394
vn -0.9551 0.1876 0.2293
vn 0.0889 0.3567 -0.9300
vn -0.0302 -0.9972 -0.0690
vn 0.0474 0.0938 -0.9945
vn -0.0561 0.1161 0.9917
vn -0.0659 0.1180 0.9908
vn 0.0148 0.1028 0.9946
vn 0.6886 -0.0589 0.7228
vn -0.0932 0.9901 0.1051
vn 0.9592 -0.1189 -0.2566
vn 0.0589 -0.9890 -0.1355
vn 0.0321 0.9967 0.0744
vn 0.0963 -0.9908 -0.0950
vn 0.6347 0.7696 -0.0695
vn 0.9006 -0.2140 0.3782
vn -0.9698 0.1013 0.2221
vn -0.9574 0.2005 0.2077
vn 0.0048 -0.0001 1.0000
vn 0.9265 -0.0039 0.3762
vn 0.8764 0.3668 0.3122
vn 0.9130 -0.1338 0.3853
vn -0.9747 0.0268 0.2217
vn -0.0061 0.0001 -1.0000
vn -0.9750 0.0195 0.2213
vn -0.9063 -0.3442 0.2452
vn 0.7328 0.5828 0.3511
vn -0.9559 -0.1097 0.2723
vn -0.8971 -0.3834 0.2196
vn 0.8053 0.4862 0.3393
vn 0.9044 -0.1466 0.4007
vn -0.7542 -0.5740 0.3189
vn -0.6281 0.7458 0.2220
vn 0.8974 0.2825 0.3390
vn -0.9538 -0.0385 0.2978
vn 0.9001 -0.1457 0.4105
vn -0.8911 -0.3624 0.2730
vn 0.7087 -0.5979 0.3745
usemtl Material.003
s off
f 2/1/1 92/2/1 96/3/1 89/4/1 100/5/1 83/6/1 81/7/1 3/8/1 4/9/1 5/10/1 6/11/1 7/12/1 8/13/1 9/14/1 10/15/1 11/16/1 12/17/1 13/18/1 14/19/1 15/20/1 16/21/1 17/22/1 18/23/1 19/24/1 79/25/1 102/26/1 85/27/1 87/28/1 98/29/1 93/30/1 1/31/1
f 21/32/2 20/33/2 94/34/2 97/35/2 88/36/2 86/37/2 101/38/2 80/39/2 38/40/2 37/41/2 36/42/2 35/43/2 34/44/2 33/45/2 32/46/2 31/47/2 30/48/2 29/49/2 28/50/2 27/51/2 26/52/2 25/53/2 24/54/2 23/55/2 22/56/2 82/57/2 84/58/2 99/59/2 90/60/2 95/61/2 91/62/2
f 2/63/3 21/64/3 91/65/3 92/66/3
f 17/67/4 36/68/4 37/69/4 18/70/4
f 13/71/5 43/72/5 48/73/5 32/74/5
f 3/75/6 22/76/6 23/77/6 4/78/6
f 18/70/7 37/69/7 38/79/7 19/80/7
f 42/81/8 58/82/8 57/83/8 41/84/8
f 4/78/9 23/77/9 24/85/9 5/86/9
f 19/80/10 38/79/10 80/87/10 79/88/10
f 12/89/11 52/90/11 53/91/11 13/92/11
f 5/86/12 24/85/12 25/93/12 6/94/12
f 13/71/13 32/74/13 33/95/13 14/96/13
f 6/94/14 25/93/14 26/97/14 7/98/14
f 14/96/15 33/95/15 34/99/15 15/100/15
f 7/98/16 26/97/16 27/101/16 8/102/16
f 15/100/17 34/99/17 35/103/17 16/104/17
f 8/102/18 27/101/18 28/105/18 9/106/18
f 74/107/19 73/108/19 70/109/19 60/110/19
f 16/104/20 35/103/20 36/68/20 17/67/20
f 30/48/21 46/111/21 45/112/21 29/49/21
f 40/113/22 45/114/22 46/115/22 41/84/22
f 41/116/23 46/117/23 47/118/23 42/119/23
f 42/81/24 47/120/24 48/121/24 43/122/24
f 39/123/25 44/124/25 45/114/25 40/113/25
f 28/105/26 44/125/26 39/126/26 9/106/26
f 31/47/27 47/127/27 46/111/27 30/48/27
f 39/126/28 55/128/28 49/129/28 9/106/28
f 32/46/29 48/130/29 47/127/29 31/47/29
f 41/84/30 57/83/30 56/131/30 40/113/30
f 29/49/31 45/112/31 44/132/31 28/50/31
f 49/133/32 55/134/32 56/135/32 50/136/32
f 52/137/33 58/138/33 54/139/33 53/140/33
f 50/136/34 56/135/34 57/141/34 51/142/34
f 51/143/35 57/144/35 58/145/35 52/146/35
f 9/147/36 49/148/36 50/149/36 10/150/36
f 13/71/37 53/151/37 54/152/37 43/72/37
f 43/122/38 54/153/38 58/82/38 42/81/38
f 10/150/39 50/149/39 51/154/39 11/155/39
f 40/113/40 56/131/40 55/156/40 39/123/40
f 11/155/41 51/154/41 52/90/41 12/89/41
f 1/157/42 20/158/42 69/159/42 61/160/42
f 21/64/43 2/63/43 66/161/43 62/162/43
f 63/163/44 64/164/44 77/165/44 78/166/44
f 2/1/45 1/31/45 61/167/45 67/168/45 76/169/45 74/170/45 60/171/45 59/172/45 72/173/45 77/174/45 64/175/45 66/176/45
f 76/177/46 75/178/46 73/108/46 74/107/46
f 67/179/47 65/180/47 75/178/47 76/177/47
f 61/160/48 69/159/48 65/180/48 67/179/48
f 62/162/49 66/161/49 64/164/49 63/163/49
f 20/33/50 21/32/50 62/181/50 63/182/50 78/183/50 71/184/50 68/185/50 70/186/50 73/187/50 75/188/50 65/189/50 69/190/50
f 78/166/51 77/165/51 72/191/51 71/192/51
f 71/192/52 72/191/52 59/193/52 68/194/52
f 79/88/53 80/87/53 101/195/53 102/196/53
f 81/197/54 82/198/54 22/76/54 3/75/54
f 83/199/55 84/200/55 82/198/55 81/197/55
f 85/201/56 86/202/56 88/203/56 87/204/56
f 87/204/57 88/203/57 97/205/57 98/206/57
f 89/207/58 90/208/58 99/209/58 100/210/58
f 92/211/59 91/212/59 95/213/59 96/214/59
f 93/215/60 94/216/60 20/158/60 1/157/60
f 96/217/61 95/218/61 90/208/61 89/207/61
f 98/206/62 97/205/62 94/216/62 93/215/62
f 100/210/63 99/209/63 84/200/63 83/199/63
f 102/196/64 101/195/64 86/202/64 85/201/64
