# Blender v2.93.5 OBJ File: 'salisnuevos.blend'
# www.blender.org
mtllib sali24.mtl
o Cube.002_Cube
v -101.534653 14.418291 -19.496786
v -96.557350 3.402554 -7.282586
v -102.785835 -19.607233 -0.401523
v -43.383736 28.168196 -16.523823
v -45.799431 24.516235 -11.717983
v -50.985424 16.676266 -1.400867
v -44.267406 4.518346 9.168604
v -48.297024 -18.854284 -1.388004
v -48.297024 -42.374355 -1.388004
v -2.619229 33.699780 -21.703754
v -2.619229 18.653870 -7.038384
v 8.267475 4.665789 -1.388004
v 8.267475 -18.854284 -1.388004
v 8.267475 -42.374355 -1.388004
v 51.739819 34.498772 -24.797607
v 51.827095 31.530739 -21.966003
v 53.945282 18.653870 -7.038384
v 62.557346 6.422266 -1.329919
v 63.127373 -20.810677 -1.141134
v 63.925591 -42.626125 -1.596674
v 122.383003 -17.138083 -1.483782
v -47.984344 -44.824749 -1.722311
v -2.619229 35.808891 -23.759523
v 9.402071 -49.201111 0.465351
v 103.413353 18.610952 -6.696891
v 34.321384 -42.090405 -1.392697
v -94.834045 21.458771 -26.245680
v 115.770966 4.139369 -1.653996
v -96.396500 -43.802017 -0.477490
v 103.644791 36.873375 -23.117823
v 103.227745 34.884197 -21.304409
v -91.201683 24.557056 -31.621702
v -22.465969 32.951408 -20.974312
v -12.695941 -53.813980 -0.527204
v -90.216438 29.053646 11.749229
v -80.241409 -12.210973 20.562805
v -77.921890 -26.645123 21.007584
v -39.396484 48.918705 4.203918
v -43.308926 41.596298 15.668013
v -43.181175 13.248748 33.346283
v -43.515762 -4.313259 36.034748
v -37.417847 -26.136057 21.527054
v -35.426495 -44.599174 21.239557
v -1.342786 38.549435 9.435717
v 7.782889 8.090386 21.293922
v 6.194983 -10.159087 21.708977
v 9.447157 -29.793125 21.024393
v 10.017268 -44.580570 20.242729
v 39.658821 49.152439 -1.560932
v 40.145531 38.423985 8.329670
v 50.870720 7.482987 21.138638
v 48.446213 -10.624944 21.561127
v 50.262203 -28.510849 21.502501
v 50.945141 -45.249409 21.369587
v 95.588844 -26.098383 20.417837
v -35.097610 -46.499332 21.351833
v -1.601890 46.143555 2.313843
v 10.680755 -50.162453 20.362925
v 78.335960 28.680954 19.718225
v 28.953062 -44.498020 20.875027
v -82.882805 38.116894 1.487793
v 89.365097 -8.343941 21.345032
v -72.210335 -45.318077 20.951540
v 79.074417 50.879017 -2.376969
v 78.561569 39.438675 8.952801
v -77.885956 43.183380 -5.410337
v -16.337078 44.427532 3.989223
v -5.089874 -54.381023 21.034290
vt 0.800383 0.390482
vt 0.712125 0.406604
vt 0.744512 0.530464
vt 0.816351 0.532395
vt 0.670086 0.393715
vt 0.693299 0.510242
vt 0.431687 0.554305
vt 0.516893 0.555178
vt 0.525221 0.436461
vt 0.439314 0.444052
vt 0.533426 0.554036
vt 0.535951 0.434576
vt 0.844474 0.247392
vt 0.768434 0.262489
vt 0.871408 0.378323
vt 0.855758 0.308947
vt 0.692395 0.277586
vt 0.643597 0.260470
vt 0.420896 0.680142
vt 0.506416 0.673600
vt 0.518404 0.672683
vt 0.817985 0.114148
vt 0.741946 0.129245
vt 0.665425 0.154578
vt 0.319911 0.777144
vt 0.381040 0.785854
vt 0.385188 0.667915
vt 0.440573 0.772889
vt 0.468304 0.766849
vt 0.498376 0.718078
vt 0.718597 0.000485
vt 0.648979 0.029379
vt 0.395250 0.906939
vt 0.464632 0.914315
vt 0.505335 0.896263
vt 0.799830 0.000000
vt 0.535951 0.888579
vt 0.866576 0.245830
vt 0.826143 0.113285
vt 0.871408 0.190736
vt 0.374538 0.197117
vt 0.363075 0.259830
vt 0.419731 0.239690
vt 0.430887 0.186494
vt 0.542258 0.215965
vt 0.486712 0.183419
vt 0.060005 0.361574
vt 0.101443 0.434266
vt 0.168617 0.432595
vt 0.165721 0.340832
vt 0.239520 0.431537
vt 0.228617 0.337993
vt 0.270067 0.526261
vt 0.293658 0.525192
vt 0.319911 0.526732
vt 0.319911 0.471536
vt 0.273259 0.477538
vt 0.389778 0.146678
vt 0.451288 0.130638
vt 0.507922 0.126377
vt 0.055303 0.259870
vt 0.155966 0.243299
vt 0.201070 0.241418
vt 0.363786 0.093941
vt 0.344697 0.157489
vt 0.421671 0.081820
vt 0.470847 0.000000
vt 0.529273 0.004464
vt 0.624293 0.153288
vt 0.643597 0.069756
vt 0.126170 0.148913
vt 0.188892 0.206849
vt 0.191959 0.154171
vt 0.101306 0.782852
vt 0.123502 0.823861
vt 0.213725 0.851782
vt 0.142821 0.759217
vt 0.261708 0.816737
vt 0.245612 0.655513
vt 0.120784 0.030417
vt 0.000000 0.148549
vt 0.183843 0.045205
vt 0.322381 0.206079
vt 0.047722 0.813315
vt 0.068305 0.849411
vt 0.224713 0.054892
vt 0.271322 0.544658
vt 0.539279 0.434576
vt 0.535951 0.434640
vt 0.539279 0.522237
vt 0.326863 0.160317
vt 0.357563 0.094722
vt 0.319911 0.138710
vt 1.000000 0.413946
vt 0.876638 0.384120
vt 0.881746 0.465567
vt 0.997104 0.520583
vt 0.619556 0.434576
vt 0.643597 0.304657
vt 0.591514 0.259030
vt 0.610880 0.426907
vt 0.538610 0.369863
vt 0.319911 0.000000
vt 0.259008 0.123841
vt 0.136915 0.527989
vt 0.257067 0.605712
vt 0.148613 0.495609
vt 0.261708 0.573682
vt 0.149542 0.471536
vt 0.129254 0.600916
vt 0.480554 0.370131
vt 0.411146 0.387501
vt 0.318481 0.346643
vt 0.319911 0.471536
vt 0.069927 0.655837
vt 0.309359 0.219063
vt 0.994045 0.226882
vt 0.875816 0.238799
vt 0.877161 0.286539
vt 0.982670 0.290898
vt 0.987280 0.345962
vt 0.872752 0.326778
vt 0.289632 0.172602
vt 1.000000 0.000000
vt 0.882152 0.067757
vt 0.871408 0.190563
vt 0.992916 0.161489
vt 0.000000 0.694309
vn -0.0058 -0.0083 -0.9999
vn -0.0084 -0.3792 -0.9253
vn 0.0303 -0.7102 -0.7033
vn 0.0544 -0.6847 -0.7268
vn 0.0006 0.0081 -1.0000
vn 0.0028 -0.0037 -1.0000
vn 0.0067 -0.3933 -0.9194
vn -0.0158 -0.7278 -0.6856
vn -0.0308 -0.6935 -0.7198
vn 0.0000 0.0000 -1.0000
vn -0.0941 0.2263 -0.9695
vn -0.1173 -0.5793 -0.8066
vn -0.0262 -0.7344 -0.6782
vn 0.0191 -0.7568 -0.6534
vn 0.1424 0.0469 -0.9887
vn 0.2721 -0.6013 -0.7513
vn 0.2226 -0.8063 -0.5480
vn -0.0071 0.0206 -0.9998
vn -0.0185 -0.0009 -0.9998
vn 0.1993 -0.8671 -0.4565
vn 0.0027 -0.2616 -0.9652
vn -0.0227 0.1323 -0.9909
vn 0.0239 -0.0858 -0.9960
vn 0.0164 -0.0240 0.9996
vn 0.0106 0.0388 0.9992
vn -0.1442 0.4592 0.8765
vn -0.0226 0.6913 0.7222
vn -0.0192 -0.0266 0.9995
vn -0.0038 -0.0203 0.9998
vn 0.0038 0.0226 0.9997
vn 0.0171 0.3775 0.9259
vn 0.0204 0.6807 0.7323
vn 0.0150 -0.0310 0.9994
vn 0.1130 -0.3193 0.9409
vn 0.2599 0.0695 0.9631
vn 0.2103 0.4650 0.8600
vn 0.1243 0.8040 0.5815
vn -0.1464 -0.3871 0.9104
vn -0.3930 0.1140 0.9124
vn -0.2266 0.6105 0.7589
vn 0.0243 -0.0069 0.9997
vn -0.0103 -0.0114 0.9999
vn -0.2410 0.8547 0.4597
vn -0.0334 0.0175 0.9993
vn -0.0089 0.0574 0.9983
vn 0.0245 0.0452 0.9987
vn -0.0262 -0.9984 -0.0497
vn 0.7160 0.4623 0.5230
vn 0.7183 0.4756 0.5078
vn 0.1093 0.7413 -0.6622
vn -0.7707 0.6363 -0.0335
vn -0.7451 0.6616 -0.0837
vn -0.9028 -0.0890 0.4207
vn 0.5914 0.1792 0.7862
vn 0.6327 0.3751 0.6775
vn -0.0317 0.8251 -0.5641
vn -0.7018 0.2066 0.6818
vn -0.0393 0.8877 -0.4587
vn 0.2819 -0.9582 -0.0492
vn -0.2504 -0.9658 0.0665
vn -0.1684 0.9147 -0.3673
vn 0.3955 -0.9112 0.1153
vn 0.2270 -0.9702 -0.0844
vn -0.0241 -0.9925 -0.1201
vn -0.0654 0.8222 -0.5654
vn -0.6644 -0.1898 0.7229
usemtl Material.123
s off
f 19/1/1 18/2/1 28/3/1 21/4/1
f 18/2/2 17/5/2 25/6/2 28/3/2
f 17/7/3 16/8/3 31/9/3 25/10/3
f 16/8/4 15/11/4 30/12/4 31/9/4
f 14/13/5 13/14/5 19/1/5 20/15/5 26/16/5
f 13/14/6 12/17/6 18/2/6 19/1/6
f 12/17/7 11/18/7 17/5/7 18/2/7
f 11/19/8 10/20/8 16/8/8 17/7/8
f 10/20/9 23/21/9 15/11/9 16/8/9
f 9/22/10 8/23/10 13/14/10 14/13/10
f 8/23/11 7/24/11 12/17/11 13/14/11
f 7/25/12 6/26/12 11/19/12 12/27/12
f 6/26/13 5/28/13 10/20/13 11/19/13
f 5/28/14 4/29/14 33/30/14 23/21/14 10/20/14
f 3/31/15 2/32/15 7/24/15 8/23/15
f 2/33/16 1/34/16 6/26/16 7/25/16
f 1/34/17 27/35/17 5/28/17 6/26/17
f 21/4/18 20/15/18 19/1/18
f 29/36/19 3/31/19 8/23/19 9/22/19
f 27/35/20 32/37/20 4/29/20 5/28/20
f 26/16/21 24/38/21 14/13/21
f 22/39/22 29/36/22 9/22/22
f 24/38/23 34/40/23 22/39/23 9/22/23 14/13/23
f 53/41/24 55/42/24 62/43/24 52/44/24
f 52/44/25 62/43/25 59/45/25 51/46/25
f 51/47/26 59/48/26 65/49/26 50/50/26
f 50/50/27 65/49/27 64/51/27 49/52/27
f 48/53/28 60/54/28 54/55/28 53/56/28 47/57/28
f 47/58/29 53/41/29 52/44/29 46/59/29
f 46/59/30 52/44/30 51/46/30 45/60/30
f 45/61/31 51/47/31 50/50/31 44/62/31
f 44/62/32 50/50/32 49/52/32 57/63/32
f 43/64/33 48/65/33 47/58/33 42/66/33
f 42/66/34 47/58/34 46/59/34 41/67/34
f 41/67/35 46/59/35 45/60/35 40/68/35
f 40/68/36 45/60/36 44/69/36 39/70/36
f 39/71/37 44/62/37 57/63/37 67/72/37 38/73/37
f 37/74/38 42/75/38 41/76/38 36/77/38
f 36/77/39 41/76/39 40/78/39 35/79/39
f 35/80/40 40/81/40 39/71/40 61/82/40
f 55/42/41 53/41/41 54/83/41
f 63/84/42 43/85/42 42/75/42 37/74/42
f 61/82/43 39/71/43 38/73/43 66/86/43
f 60/54/44 48/53/44 58/87/44
f 56/88/45 43/89/45 63/90/45
f 58/91/46 48/65/46 43/64/46 56/92/46 68/93/46
f 22/94/47 56/95/47 63/96/47 29/97/47
f 30/98/48 64/99/48 65/100/48 31/101/48
f 31/101/49 65/100/49 59/45/49 25/102/49
f 32/103/50 66/86/50 38/73/50 4/104/50
f 1/105/51 35/79/51 61/106/51 27/107/51
f 27/107/52 61/106/52 66/108/52 32/109/52
f 2/110/53 36/77/53 35/79/53 1/105/53
f 28/111/54 62/43/54 55/42/54 21/112/54
f 25/102/55 59/45/55 62/43/55 28/111/55
f 15/113/56 49/52/56 64/51/56 30/114/56
f 3/115/57 37/74/57 36/77/57 2/110/57
f 23/116/58 57/63/58 49/52/58 15/113/58
f 26/117/59 60/118/59 58/119/59 24/120/59
f 34/121/60 68/122/60 56/95/60 22/94/60
f 33/123/61 67/72/61 57/63/61 23/116/61
f 21/124/62 55/125/62 54/126/62 20/127/62
f 24/120/63 58/119/63 68/122/63 34/121/63
f 20/127/64 54/126/64 60/118/64 26/117/64
f 4/104/65 38/73/65 67/72/65 33/123/65
f 29/128/66 63/84/66 37/74/66 3/115/66
