# Blender v2.93.5 OBJ File: 'salisnuevos.blend'
# www.blender.org
mtllib sali23.mtl
o Plane.007_Plane.006
v -164.467255 -29.766388 9.960457
v -166.185928 -8.010640 9.961716
v -172.045502 11.674481 9.188072
v -134.522644 -25.904263 9.831679
v -135.217072 -0.174423 8.296218
v -99.583260 -29.224524 10.491833
v -100.315384 -0.133224 8.527979
v -63.356468 -25.049849 10.302051
v -62.380394 -0.953769 10.484035
v -27.893312 -23.393656 9.406091
v -27.216537 -2.994110 9.444271
v 8.754145 -48.643238 10.261005
v 6.566984 -23.920494 9.270536
v 6.427118 1.676975 9.719408
v 38.410671 -40.053738 8.999493
v 39.697918 -18.038813 7.547514
v 39.527290 7.326279 9.190967
v 41.143814 36.038670 9.762991
v 36.952587 64.153694 10.291653
v 37.178940 86.954681 10.168203
v 57.568451 -30.881647 -9.036572
v 51.959583 -5.242249 -8.309631
v 56.396793 21.025877 -8.108816
v 56.397213 46.433712 -9.450424
v 59.666058 68.746735 -14.534119
v 56.693417 98.883591 -13.006792
v 55.653522 120.761795 -12.717190
v 23.342228 9.256540 10.607962
v -98.212440 4.765184 9.009464
v 57.639744 -40.374657 -8.951082
v -192.476181 -5.250882 9.436216
v -135.180801 6.412790 9.388175
v 41.584393 -52.782337 9.139013
v 17.867693 38.990368 10.995426
v 74.627800 19.092407 -17.275295
v -167.335052 13.288595 10.151114
v -177.135223 12.399212 9.514516
v 35.727455 110.867622 8.751612
v -43.485672 -26.318813 9.126837
v 20.065256 63.390408 10.182953
v -25.471661 -31.090725 10.503916
v 73.864418 -6.128365 -17.846786
v 72.809547 44.584747 -18.791843
v -58.943699 -27.354095 9.485039
v 27.997337 87.341476 10.684504
v 69.717773 72.378845 -18.750095
v -98.881348 -34.457024 9.773948
v 3.637866 6.798783 11.309206
v -131.491913 -34.823719 9.595811
v -26.166126 13.345622 10.485369
v -37.637028 15.201933 9.888433
v 63.795357 100.388435 -15.794117
v 68.510033 -35.227093 -14.801237
v -60.423000 11.097708 9.970800
v 43.733925 -46.115997 -3.536472
v -5.961619 3.731569 10.749977
v 73.355103 -23.956890 -17.047611
v 26.302813 1.524505 9.808495
v 65.703133 86.435860 -16.919079
v -85.892647 4.099861 8.848005
v -111.544983 -40.910774 9.141533
v 24.065510 -51.605804 9.799616
v 76.798401 30.222820 -19.680775
v -132.163712 -32.784470 30.033766
v -130.219757 -13.633259 31.349545
v -136.995071 10.429175 30.925123
v -140.341553 9.520216 30.983454
v -103.384315 -35.881615 31.263954
v -104.643478 -31.080349 31.070702
v -103.752693 -8.709798 31.483383
v -75.466270 -36.478569 29.749697
v -76.835381 -34.691250 29.643005
v -76.147667 -8.763821 30.884415
v -48.687672 -34.325531 31.845573
v -50.674355 -31.187641 31.597328
v -50.566345 -5.929628 31.014462
v -22.765732 -35.188709 32.126961
v -22.987045 -27.809120 32.609711
v -23.922844 -10.401513 31.975788
v 7.226957 -49.486153 30.863562
v 8.363031 -32.724545 30.753651
v 6.506397 -7.441396 30.902994
v 37.379513 -57.682709 31.866859
v 33.443085 -47.224613 31.567858
v 30.529898 -27.523693 31.126019
v 28.418032 -6.746531 31.363018
v 33.351315 18.557352 30.597424
v 36.177826 33.967587 31.428560
v 33.514591 58.357655 31.472933
v 71.197189 -43.466240 12.395793
v 68.825249 4.649652 13.517906
v 70.409821 32.077415 12.296004
v 68.615631 48.536060 12.892729
v 68.259445 68.929726 13.597399
v 72.484726 112.378922 10.693511
v 78.968559 -38.647575 8.998620
v 83.254211 -20.087883 5.969152
v 83.221992 3.714424 5.733705
v 81.967010 24.887939 7.501536
v 77.102913 48.284565 7.223313
v 74.094505 67.299690 11.212535
v -31.003696 -33.662540 32.786118
v 19.757286 -5.300553 31.894400
v -75.630836 4.964447 30.478590
v -154.953461 -12.267902 31.065113
v -106.634041 8.306775 30.381104
v 13.865348 15.275197 32.207294
v -143.348145 8.695988 30.995380
v 34.940845 100.525223 30.292807
v 15.731419 36.722275 30.499546
v 23.605099 58.884552 30.626919
v 9.535004 5.936123 31.168304
v -23.262955 9.903081 30.920551
v -52.157452 5.396528 29.945053
v 49.503910 -60.476257 31.970371
v -2.649372 0.474962 31.104137
v 83.100227 -30.209162 5.980680
v 23.971937 -13.304031 31.309925
v 74.086784 57.475983 10.126824
v -67.480103 2.351998 30.404922
v -87.586327 -40.605324 30.823765
v 18.208374 -55.564827 31.185432
v 85.324081 13.967054 5.764556
v -31.090664 12.773314 30.664658
v 34.005203 -34.500694 32.014793
v 54.494652 -4.671034 32.666466
v 40.727135 -26.579929 31.788633
v 68.955902 11.857874 14.176823
v 42.503792 -44.630924 31.529926
v 83.163536 -46.192886 25.495438
v 86.984589 -43.920746 23.605743
v 82.272667 -22.634693 25.804539
v 83.506607 -4.741769 23.657965
v 88.481010 -42.243267 22.225761
v 95.383583 -23.294765 19.644564
v 95.650940 -6.215711 18.826839
v 49.542480 -61.432652 46.147129
v 94.323463 -33.443989 19.223459
v 95.945709 -0.560053 19.036133
v 92.526077 9.534251 21.628492
v 77.651886 -5.226603 26.221668
v 43.139450 -31.777489 46.075680
v 83.276352 -0.978242 24.494438
v 43.818409 -51.582840 46.640518
v 33.338421 -41.230198 46.379547
vt 0.027829 0.312816
vt 0.082873 0.338853
vt 0.045519 0.387751
vt 0.013359 0.361094
vt 0.000000 0.334467
vt 0.129410 0.379130
vt 0.093917 0.421274
vt 0.175526 0.416752
vt 0.141484 0.457258
vt 0.109076 0.444892
vt 0.206413 0.463449
vt 0.197248 0.490936
vt 0.269106 0.496731
vt 0.260938 0.514243
vt 0.230725 0.500514
vt 0.312224 0.524278
vt 0.058294 0.232486
vt 0.096625 0.267353
vt 0.147969 0.297277
vt 0.202277 0.336536
vt 0.260457 0.368112
vt 0.303511 0.399455
vt 0.347919 0.433501
vt 0.117402 0.215284
vt 0.167097 0.248534
vt 0.182051 0.248131
vt 0.149556 0.272008
vt 0.168270 0.276889
vt 0.148815 0.174217
vt 0.187177 0.202459
vt 0.219205 0.223175
vt 0.183643 0.233842
vt 0.178260 0.127104
vt 0.223655 0.160336
vt 0.156410 0.152215
vt 0.244027 0.180228
vt 0.231756 0.213372
vt 0.202352 0.077435
vt 0.255056 0.120695
vt 0.263384 0.128634
vt 0.251049 0.142954
vt 0.238135 0.041542
vt 0.285138 0.079245
vt 0.299551 0.085457
vt 0.257216 0.000000
vt 0.300196 0.027283
vt 0.342133 0.054167
vt 0.031492 0.218781
vt 0.009818 0.299881
vt 0.020408 0.261927
vt 0.273601 0.347045
vt 0.230415 0.309458
vt 0.168591 0.131337
vt 0.133919 0.164010
vt 0.218070 0.033739
vt 0.070069 0.182092
vt 0.190522 0.073007
vt 0.188214 0.050645
vt 0.347919 0.042767
vt 0.327570 0.000700
vt 0.342760 0.587259
vt 0.342760 0.602763
vt 0.339756 0.596733
vt 0.050217 0.197656
vt 0.313180 0.387649
vt 0.070586 0.544361
vt 0.069134 0.567951
vt 0.010158 0.556856
vt 0.013832 0.533345
vt 0.629964 0.532278
vt 0.670344 0.537109
vt 0.670344 0.593001
vt 0.646289 0.594879
vt 0.817295 0.539071
vt 0.831106 0.554895
vt 0.774940 0.572208
vt 0.761689 0.552341
vt 0.483894 0.107380
vt 0.452009 0.088879
vt 0.502580 0.065955
vt 0.518835 0.090667
vt 0.527389 0.065306
vt 0.548084 0.055399
vt 0.560203 0.067170
vt 0.637717 0.000000
vt 0.389664 0.303760
vt 0.385583 0.287266
vt 0.414693 0.287978
vt 0.430790 0.282275
vt 0.423209 0.267772
vt 0.453540 0.222256
vt 0.474089 0.259798
vt 0.447978 0.139081
vt 0.517915 0.219164
vt 0.546433 0.197584
vt 0.597149 0.170941
vt 0.677154 0.113307
vt 0.442434 0.320150
vt 0.494227 0.291450
vt 0.486339 0.271748
vt 0.465605 0.274363
vt 0.517824 0.270860
vt 0.486065 0.363655
vt 0.520443 0.341747
vt 0.519283 0.295259
vt 0.558376 0.312942
vt 0.506045 0.405822
vt 0.482857 0.383035
vt 0.554877 0.372661
vt 0.571587 0.320131
vt 0.577400 0.358360
vt 0.523043 0.443820
vt 0.574925 0.413066
vt 0.587443 0.385457
vt 0.600892 0.394177
vt 0.559993 0.482860
vt 0.603621 0.454417
vt 0.638597 0.434775
vt 0.583066 0.522629
vt 0.620448 0.498721
vt 0.674070 0.477409
vt 0.365505 0.311840
vt 0.347919 0.297976
vt 0.571283 0.221729
vt 0.533148 0.255181
vt 0.498185 0.407432
vt 0.470713 0.371513
vt 0.677154 0.725378
vt 0.707120 0.647306
vt 0.728929 0.702925
vt 0.731756 0.719678
vt 0.549525 0.487490
vt 0.410749 0.343081
vt 0.523748 0.469497
vt 0.518282 0.444315
vt 0.677154 0.488964
vt 0.647707 0.532278
vt 0.332175 0.539659
vt 0.332096 0.531557
vt 0.332175 0.524278
vt 0.388131 0.335488
vt 0.560790 0.537992
vt 0.560271 0.632274
vt 0.543593 0.633206
vt 0.339756 0.589630
vt 0.339756 0.633140
vt 0.332175 0.629361
vt 0.335371 0.587259
vt 0.607100 0.182771
vt 0.160494 0.195652
vt 0.180452 0.199926
vt 0.330083 0.524278
vt 0.330083 0.621794
vt 0.290372 0.698877
vt 0.251197 0.588506
vt 0.629964 0.532279
vt 0.626146 0.584042
vt 0.163536 1.000000
vt 0.169036 0.946355
vt 0.246690 0.960937
vt 0.251197 0.997879
vt 0.225376 0.219823
vt 0.261675 0.255256
vt 0.156957 0.664763
vt 0.163085 0.691103
vt 0.063867 0.647274
vt 0.066759 0.623497
vt 0.856106 0.309663
vt 0.835324 0.375307
vt 0.757366 0.362415
vt 0.771081 0.303756
vt 0.167932 0.924504
vt 0.248182 0.933495
vt 0.169506 0.546973
vt 0.166297 0.536246
vt 0.250843 0.611226
vt 0.250275 0.618862
vt 0.160336 0.724626
vt 0.057986 0.672556
vt 0.167598 0.524278
vt 0.251197 0.604366
vt 0.158347 0.789594
vt 0.152105 0.822205
vt 0.048696 0.748423
vt 0.058958 0.727442
vt 0.165417 0.875781
vt 0.246043 0.883853
vt 0.163085 0.848723
vt 0.244669 0.865118
vt 0.147175 0.854603
vt 0.043243 0.771093
vt 0.159084 0.537941
vt 0.162861 0.564420
vt 0.063047 0.524278
vt 0.165237 0.796360
vt 0.244384 0.817295
vt 0.163455 0.738201
vt 0.247480 0.782146
vt 0.163085 0.606128
vt 0.483183 0.532278
vt 0.543593 0.577639
vt 0.543593 0.686230
vt 0.492269 0.653790
vt 0.164400 0.709398
vt 0.247467 0.762715
vt 0.874861 0.237615
vt 0.870646 0.272975
vt 0.772531 0.286007
vt 0.782721 0.246469
vt 0.886074 0.143767
vt 0.800157 0.186169
vt 0.899365 0.070714
vt 0.890394 0.111697
vt 0.798888 0.156028
vt 0.805642 0.123473
vt 0.629964 0.638786
vt 0.563513 0.682627
vt 0.166905 0.623022
vt 0.247486 0.689924
vt 0.892940 0.498109
vt 0.913299 0.528170
vt 0.805181 0.517209
vt 0.444783 0.550495
vt 0.445756 0.665703
vt 0.913299 0.000000
vt 0.823056 0.061607
vt 0.824753 0.446600
vt 0.875143 0.461080
vt 0.731403 0.449574
vt 0.737868 0.424261
vt 0.829672 0.407885
vt 0.748970 0.383024
vt 0.138037 0.901910
vt 0.040024 0.876396
vt 0.347919 0.612061
vt 0.347939 0.604690
vt 0.355483 0.578420
vt 0.374882 0.565043
vt 0.397298 0.597003
vt 0.629964 0.594879
vt 0.668855 0.603846
vt 0.668855 0.649017
vt 0.644094 0.644026
vt 0.749506 0.536564
vt 0.687855 0.626420
vt 0.731756 0.589383
vt 0.433094 0.146840
vt 0.407113 0.541315
vt 0.428455 0.567875
vt 0.418190 0.534233
vt 0.444783 0.532279
vt 0.437147 0.565341
vt 0.756249 0.547348
vt 0.444783 0.710613
vt 0.436517 0.737405
vt 0.405917 0.735837
vt 0.436695 0.582710
vt 0.380152 0.738841
vt 0.349732 0.624691
vt 0.347919 0.587259
vt 0.332175 0.580844
vt 0.338916 0.524278
vt 0.347919 0.526745
vt 0.010712 0.596835
vt 0.008952 0.609959
vt 0.677154 0.442903
vt 0.000000 0.633134
vt 0.679415 0.614512
vt 0.718783 0.572208
vt 0.630750 0.653737
vt 0.658027 0.649017
vt 0.658027 0.695933
vt 0.629964 0.701089
vn -0.4218 -0.0396 -0.9058
vn -0.4185 0.0559 -0.9065
vn -0.4782 -0.0679 -0.8756
vn -0.4495 -0.0879 -0.8890
vn -0.3850 0.0118 -0.9229
vn -0.3644 -0.0050 -0.9312
vn -0.7067 -0.0748 -0.7036
vn -0.7817 0.0867 -0.6176
vn -0.7551 0.0132 -0.6555
vn -0.7428 -0.0737 -0.6655
vn -0.7470 -0.0211 -0.6645
vn -0.7343 -0.0566 -0.6764
vn -0.0484 -0.0199 -0.9986
vn -0.0335 0.1140 -0.9929
vn 0.0014 0.0106 -0.9999
vn 0.0152 0.1426 -0.9897
vn -0.0279 0.0201 -0.9994
vn -0.0049 0.0042 -1.0000
vn 0.0253 -0.0336 -0.9991
vn 0.0477 -0.0474 -0.9977
vn 0.0098 -0.0634 -0.9979
vn 0.0010 0.1355 -0.9908
vn -0.0230 -0.0335 -0.9992
vn -0.0391 0.0443 -0.9983
vn -0.7703 0.1804 -0.6116
vn -0.0283 -0.0065 -0.9996
vn -0.0401 0.2649 -0.9634
vn 0.0418 -0.1282 -0.9909
vn -0.0655 0.0121 -0.9978
vn -0.4697 -0.0115 -0.8828
vn -0.0074 0.0239 -0.9997
vn -0.0233 -0.0676 -0.9974
vn 0.0121 0.0766 -0.9970
vn 0.0319 -0.0048 -0.9995
vn -0.0129 -0.4844 0.8748
vn -0.0327 -0.0355 -0.9988
vn -0.0587 -0.0626 -0.9963
vn 0.0202 0.0017 -0.9998
vn -0.0326 0.1782 -0.9835
vn -0.0158 0.0108 -0.9998
vn 0.7512 -0.0317 -0.6593
vn -0.2078 0.5297 0.8223
vn 0.5844 -0.5474 -0.5991
vn 0.4829 0.0737 0.8726
vn 0.4773 -0.0590 0.8768
vn 0.3840 0.0243 0.9230
vn 0.0144 -0.0357 0.9993
vn -0.0532 -0.0116 0.9985
vn 0.3154 0.2193 0.9233
vn 0.4848 -0.0548 0.8729
vn 0.4715 0.0170 0.8817
vn 0.4572 0.0122 0.8893
vn -0.0305 0.0034 0.9995
vn -0.0159 -0.0210 0.9997
vn 0.0478 0.0145 0.9988
vn 0.0189 0.0268 0.9995
vn -0.0370 0.0349 0.9987
vn -0.0347 0.0579 0.9977
vn -0.0387 -0.0123 0.9992
vn 0.0022 0.0611 0.9981
vn 0.0342 -0.0353 0.9988
vn 0.0114 0.0499 0.9987
vn -0.0167 -0.0404 0.9990
vn 0.0053 0.0384 0.9992
vn -0.0028 0.0269 0.9996
vn 0.0168 0.0216 0.9996
vn -0.0547 0.0443 0.9975
vn 0.0680 -0.0631 0.9957
vn 0.0751 0.0114 0.9971
vn 0.1667 0.8312 0.5304
vn -0.0395 0.0298 0.9988
vn 0.0454 -0.0171 0.9988
vn 0.0570 0.0790 0.9952
vn -0.0070 0.0117 0.9999
vn 0.2609 -0.9489 0.1778
vn -0.0290 0.0091 0.9995
vn -0.0834 0.0307 0.9960
vn -0.0152 -0.0670 0.9976
vn -0.0782 0.0185 0.9968
vn -0.0581 0.0028 0.9983
vn -0.8586 -0.3594 -0.3655
vn -0.0588 0.9139 0.4017
vn -0.9481 0.2825 0.1458
vn 0.5392 0.8018 0.2577
vn -0.9917 0.0825 -0.0990
vn 0.8644 -0.2228 -0.4508
vn -0.4442 -0.8912 -0.0919
vn -0.3632 0.9148 0.1769
vn -0.3063 0.7848 0.5388
vn 0.9494 0.2887 -0.1239
vn -0.0062 0.9897 0.1433
vn 0.9574 0.2887 0.0041
vn 0.4205 0.9034 0.0843
vn 0.2335 0.9687 0.0845
vn 0.9700 0.0982 -0.2225
vn 0.7728 -0.4668 -0.4299
vn -0.2472 0.9291 0.2752
vn -0.2318 0.9207 0.3140
vn 0.9201 -0.0332 -0.3902
vn -0.4842 -0.5538 0.6774
vn 0.1558 0.9813 -0.1131
vn 0.0541 -0.9456 -0.3209
vn 0.1389 -0.9405 -0.3102
vn -0.2685 -0.9132 0.3066
vn -0.2257 -0.9598 -0.1668
vn -0.9219 0.3129 0.2286
vn 0.3480 -0.8331 -0.4300
vn -0.9163 -0.2022 -0.3457
vn 0.9310 -0.0114 -0.3647
vn 0.9718 0.1502 -0.1817
vn 0.0720 0.9882 -0.1354
vn 0.3278 -0.8947 -0.3034
vn 0.1369 0.9758 -0.1704
vn -0.4552 0.3175 0.8319
vn -0.1316 -0.9868 0.0941
vn -0.0185 -0.9494 -0.3135
vn -0.3216 -0.9327 -0.1632
vn 0.9170 0.1510 -0.3692
vn 0.3004 -0.8784 -0.3718
vn -0.0872 -0.9727 -0.2152
vn 0.4761 -0.0285 0.8789
vn -0.0729 0.0902 0.9933
vn -0.8935 -0.4423 -0.0781
vn 0.3203 -0.8280 -0.4602
vn -0.1533 0.4890 0.8587
vn 0.8143 -0.0675 0.5766
vn 0.4116 0.0550 0.9097
vn 0.4026 0.0601 0.9134
vn 0.3873 -0.1023 0.9162
vn -0.0089 -0.6306 -0.7761
vn 0.4229 0.0258 0.9058
vn 0.4346 0.0939 0.8957
vn 0.4481 0.1714 0.8774
vn -0.6281 -0.1107 0.7702
vn 0.7314 -0.0218 -0.6817
vn 0.7039 -0.0954 -0.7039
vn 0.3321 -0.9043 -0.2683
vn 0.8863 0.3486 -0.3049
vn -0.6827 0.6589 0.3159
vn -0.7044 -0.6496 -0.2860
usemtl Material.122
s off
f 21/1/1 22/2/1 42/3/1 57/4/1 53/5/1
f 22/2/2 23/6/2 35/7/2 42/3/2
f 23/6/3 24/8/3 43/9/3 63/10/3 35/7/3
f 24/8/4 25/11/4 46/12/4 43/9/4
f 25/11/5 26/13/5 52/14/5 59/15/5 46/12/5
f 26/13/6 27/16/6 52/14/6
f 15/17/7 16/18/7 22/2/7 21/1/7
f 16/18/8 17/19/8 23/6/8 22/2/8
f 17/19/9 18/20/9 24/8/9 23/6/9
f 18/20/10 19/21/10 25/11/10 24/8/10
f 19/21/11 20/22/11 26/13/11 25/11/11
f 20/22/12 38/23/12 27/16/12 26/13/12
f 13/24/13 14/25/13 16/18/13 15/17/13
f 14/25/14 48/26/14 58/27/14 28/28/14 17/19/14 16/18/14
f 10/29/15 11/30/15 14/25/15 13/24/15
f 11/30/16 50/31/16 56/32/16 48/26/16 14/25/16
f 8/33/17 9/34/17 11/30/17 10/29/17 39/35/17
f 9/34/18 54/36/18 51/37/18 50/31/18 11/30/18
f 6/38/19 7/39/19 9/34/19 8/33/19
f 7/39/20 29/40/20 60/41/20 54/36/20 9/34/20
f 4/42/21 5/43/21 7/39/21 6/38/21
f 5/43/22 32/44/22 29/40/22 7/39/22
f 1/45/23 2/46/23 5/43/23 4/42/23
f 2/46/24 36/47/24 32/44/24 5/43/24
f 33/48/25 15/17/25 21/1/25 30/49/25 55/50/25
f 40/51/26 19/21/26 18/20/26 34/52/26
f 44/53/27 8/33/27 39/35/27
f 39/35/28 10/29/28 41/54/28
f 34/52/29 18/20/29 17/19/29 28/28/29
f 30/49/30 21/1/30 53/5/30
f 1/45/31 4/42/31 49/55/31
f 41/54/32 10/29/32 13/24/32 12/56/32
f 49/55/33 4/42/33 6/38/33 47/57/33 61/58/33
f 37/59/34 36/47/34 2/46/34 31/60/34
f 36/61/35 37/62/35 3/63/35
f 62/64/36 12/56/36 13/24/36 15/17/36 33/48/36
f 38/23/37 20/22/37 45/65/37
f 31/60/38 2/46/38 1/45/38
f 47/57/39 6/38/39 8/33/39 44/53/39
f 45/65/40 20/22/40 19/21/40 40/51/40
f 117/66/41 97/67/41 135/68/41 138/69/41
f 99/70/42 128/71/42 143/72/42 140/73/42
f 96/74/43 117/75/43 138/76/43 134/77/43
f 92/78/44 99/79/44 100/80/44 93/81/44
f 93/81/45 100/80/45 119/82/45 101/83/45 94/84/45
f 94/84/46 101/83/46 95/85/46
f 84/86/47 129/87/47 125/88/47
f 85/89/48 127/90/48 126/91/48 86/92/48
f 86/92/49 126/91/49 128/93/49 92/78/49 87/94/49
f 87/94/50 92/78/50 93/81/50 88/95/50
f 88/95/51 93/81/51 94/84/51 89/96/51
f 89/96/52 94/84/52 95/85/52 109/97/52
f 81/98/53 84/86/53 125/88/53 85/89/53 82/99/53
f 82/99/54 85/89/54 86/92/54 103/100/54 118/101/54 112/102/54
f 78/103/55 81/98/55 82/99/55 79/104/55
f 79/104/56 82/99/56 112/102/56 116/105/56 113/106/56
f 75/107/57 102/108/57 78/103/57 79/104/57 76/109/57
f 76/109/58 79/104/58 113/106/58 124/110/58 114/111/58
f 72/112/59 75/107/59 76/109/59 73/113/59
f 73/113/60 76/109/60 114/111/60 120/114/60 104/115/60
f 69/116/61 72/112/61 73/113/61 70/117/61
f 70/117/62 73/113/62 104/115/62 106/118/62
f 64/119/63 69/116/63 70/117/63 65/120/63
f 65/120/64 70/117/64 106/118/64 66/121/64
f 83/122/65 115/123/65 129/87/65 84/86/65
f 110/124/66 107/125/66 87/94/66 88/95/66
f 74/126/67 102/108/67 75/107/67
f 102/108/68 77/127/68 78/103/68
f 107/125/69 103/100/69 86/92/69 87/94/69
f 91/128/70 126/129/70 141/130/70 133/131/70
f 64/119/71 68/132/71 69/116/71
f 77/127/72 80/133/72 81/98/72 78/103/72
f 68/132/73 121/134/73 71/135/73 72/112/73 69/116/73
f 108/136/74 105/137/74 65/120/74 66/121/74
f 66/138/75 67/139/75 108/140/75
f 122/141/76 83/122/76 84/86/76 81/98/76 80/133/76
f 109/142/77 111/143/77 89/144/77
f 105/137/78 64/119/78 65/120/78
f 71/145/79 74/146/79 75/147/79 72/148/79
f 111/149/80 110/124/80 88/95/80 89/96/80
f 28/28/81 58/27/81 118/150/81 103/151/81
f 27/152/82 38/153/82 109/154/82 95/155/82
f 38/156/83 45/157/83 111/143/83 109/142/83
f 58/158/84 48/159/84 112/160/84 118/161/84
f 40/51/85 34/52/85 107/162/85 110/163/85
f 35/164/86 63/165/86 123/166/86 98/167/86
f 41/168/87 12/169/87 80/170/87 77/171/87
f 48/159/88 56/172/88 116/173/88 112/160/88
f 36/174/89 3/175/89 67/176/89 66/177/89
f 63/165/90 43/178/90 99/179/90 123/166/90
f 3/175/91 37/180/91 108/181/91 67/176/91
f 46/182/92 59/183/92 119/184/92 100/185/92
f 56/172/93 50/186/93 113/187/93 116/173/93
f 50/186/94 51/188/94 124/189/94 113/187/94
f 59/183/95 52/190/95 101/191/95 119/184/95
f 53/192/96 57/193/96 117/66/96 96/194/96
f 51/188/97 54/195/97 114/196/97 124/189/97
f 54/195/98 60/197/98 120/198/98 114/196/98
f 57/193/99 42/199/99 97/67/99 117/66/99
f 31/200/100 1/201/100 64/202/100 105/203/100
f 60/197/101 29/204/101 104/205/101 120/198/101
f 44/206/102 39/207/102 102/208/102 74/209/102
f 47/210/103 44/206/103 74/209/103 71/211/103
f 49/212/104 61/213/104 121/214/104 68/215/104
f 39/207/105 41/168/105 77/171/105 102/208/105
f 45/157/106 40/216/106 110/217/106 111/143/106
f 61/213/107 47/210/107 71/211/107 121/214/107
f 34/52/108 28/28/108 103/151/108 107/162/108
f 42/199/109 35/164/109 98/167/109 97/67/109
f 43/178/110 46/182/110 100/185/110 99/179/110
f 29/204/111 32/218/111 106/219/111 104/205/111
f 30/220/112 53/221/112 96/74/112 90/222/112
f 32/218/113 36/174/113 66/177/113 106/219/113
f 37/223/114 31/200/114 105/203/114 108/224/114
f 1/225/115 49/212/115 68/215/115 64/226/115
f 33/227/116 55/228/116 115/229/116 83/230/116
f 12/169/117 62/231/117 122/232/117 80/170/117
f 52/190/118 27/233/118 95/234/118 101/191/118
f 55/228/119 30/220/119 90/222/119 115/229/119
f 62/231/120 33/227/120 83/230/120 122/232/120
f 131/235/121 134/236/121 138/237/121 135/238/121 132/239/121
f 125/88/122 127/90/122 85/89/122
f 129/240/123 115/241/123 137/242/123 144/243/123
f 90/222/124 96/74/124 134/77/124 130/244/124
f 126/129/125 127/245/125 142/246/125 141/130/125
f 128/93/126 126/91/126 91/247/126
f 128/93/127 99/79/127 92/78/127
f 132/239/128 135/238/128 136/248/128 133/249/128
f 133/249/129 136/248/129 139/250/129 140/251/129 143/252/129
f 130/244/130 134/77/130 131/253/130
f 142/254/131 145/255/131 144/256/131 131/235/131 132/239/131
f 141/257/132 142/254/132 132/239/132 133/249/132
f 144/256/133 137/258/133 130/259/133 131/235/133
f 128/260/134 91/261/134 133/262/134 143/263/134
f 97/67/135 98/167/135 136/264/135 135/68/135
f 98/167/136 123/166/136 139/265/136 136/264/136
f 115/229/137 90/222/137 130/244/137 137/266/137
f 123/166/138 99/179/138 140/267/138 139/265/138
f 127/245/139 125/268/139 145/269/139 142/246/139
f 125/270/140 129/271/140 144/272/140 145/273/140
