# Blender v2.93.5 OBJ File: 'salisnuevos.blend'
# www.blender.org
mtllib sali104.mtl
o Plane.059_Plane.065
v 31.142237 -18.714060 39.395493
v 31.437479 -29.202620 40.200760
v 14.528419 -2.356431 39.042976
v -40.084938 17.507568 39.005981
v -68.858620 4.814722 0.911629
v -69.256844 24.852091 2.584733
v -39.900085 -1.144919 38.072746
v -46.446938 4.018699 1.147906
v -45.930748 24.863758 2.904658
v -39.086437 -10.604656 39.218536
v -24.324245 1.826533 1.283914
v -55.934566 15.901039 39.411293
v -3.676178 -17.803936 1.467801
v -3.166676 3.540532 1.269559
v -56.839096 -0.507400 38.719498
v 18.072016 -18.562849 0.288315
v 18.135866 2.425984 0.179320
v -55.836437 -10.413465 39.931374
v 1.823349 -26.632500 40.154381
v -31.943953 -10.436982 39.870472
v 38.324390 -4.912536 -14.127892
v 35.588249 16.327696 -14.628706
v 37.644768 37.366848 -13.570639
v -14.671659 -8.802337 39.286476
v -62.202068 -3.065135 40.003487
v 13.148952 14.131684 39.375984
v 57.662289 -5.749010 -18.049561
v 56.979240 15.113496 -17.840935
v 58.504391 37.049606 -17.133175
v -3.249792 12.234481 39.183498
v -21.613594 10.929320 39.685104
v 67.429054 10.076654 19.068850
v 14.169156 -18.451212 38.184647
v 14.496262 -27.254822 39.932854
v -4.256404 -1.695059 38.863705
v 62.239597 28.638403 20.093658
v 62.236916 10.380645 20.480026
v 61.335838 -7.065115 20.148960
v -3.975774 -19.404007 38.593063
v -21.553705 -1.294566 39.434746
v -20.233131 -8.164042 40.069271
v 61.620872 -14.315003 20.388323
v 31.516890 15.236629 38.377663
v 32.241360 -0.402936 39.515007
v 19.480223 -28.570747 1.866183
v 38.584682 -17.681030 -12.779280
v 57.486118 -13.187178 -18.301601
v 65.045181 14.605554 -18.949741
v -24.835129 19.034414 2.020077
v -1.940344 20.967308 2.279387
v 18.785702 21.955601 1.971163
v -76.164879 4.353417 2.977779
v -45.349083 -7.391914 0.633245
v -23.582308 -5.588470 1.601600
v -67.523613 -6.475701 0.677081
v -15.963840 -6.574911 1.823312
v -36.197636 -7.533438 0.927612
v 4.939222 -28.193693 2.203034
vt 0.480529 0.640242
vt 0.477758 0.542096
vt 0.585554 0.544255
vt 0.575427 0.635950
vt 0.477589 0.436071
vt 0.476197 0.335872
vt 0.556808 0.330815
vt 0.548289 0.437088
vt 0.423078 0.634064
vt 0.422890 0.537028
vt 0.329045 0.226128
vt 0.318560 0.128010
vt 0.379358 0.130172
vt 0.380226 0.228273
vt 0.424114 0.495777
vt 0.437810 0.428143
vt 0.465281 0.671300
vt 0.191444 0.785577
vt 0.318560 0.790345
vt 0.189215 0.832735
vt 0.478377 0.000000
vt 0.479838 0.032117
vt 0.378920 0.035290
vt 0.373770 0.333287
vt 0.331997 0.299532
vt 0.073882 0.675359
vt 0.196587 0.659838
vt 0.070740 0.791587
vt 0.318560 0.666711
vt 0.788427 0.242659
vt 0.786532 0.362705
vt 0.588975 0.371990
vt 0.589819 0.276963
vt 0.805206 0.059644
vt 0.801903 0.000000
vt 0.996123 0.039339
vt 0.998975 0.089485
vt 0.800988 0.201257
vt 0.800060 0.143170
vt 0.996992 0.163707
vt 0.997496 0.215599
vt 0.061695 0.547557
vt 0.183190 0.546196
vt 0.296367 0.548202
vt 0.796661 0.449887
vt 0.801385 0.409124
vt 1.000000 0.380538
vt 0.997714 0.416323
vt 0.807562 0.655949
vt 0.793667 0.576191
vt 0.996551 0.509267
vt 0.998245 0.565515
vt 0.794603 0.486092
vt 0.993858 0.443438
vt 0.064320 0.421524
vt 0.187907 0.422719
vt 0.288927 0.428296
vt 0.790928 0.617174
vt 0.793667 0.752198
vt 0.595479 0.676790
vt 0.598955 0.584937
vt 0.330362 0.916117
vt 0.318560 0.804883
vt 0.524738 0.832636
vt 0.536314 0.926405
vt 0.473259 0.227141
vt 0.485358 0.124786
vt 0.575991 0.129663
vt 0.568558 0.236029
vt 0.176218 0.300398
vt 0.275815 0.295958
vt 0.793667 0.123660
vt 0.595460 0.170539
vt 0.786295 0.495337
vt 0.585554 0.478385
vt 0.810745 0.717071
vt 1.000000 0.622576
vt 0.187053 0.172178
vt 0.307832 0.173304
vt 0.328771 0.958642
vt 0.536937 0.968194
vt 0.336771 0.671300
vt 0.536937 0.722323
vt 0.189779 0.042409
vt 0.305802 0.038316
vt 0.802775 0.375260
vt 0.996147 0.356280
vt 0.786082 0.000000
vt 0.592735 0.072686
vt 0.336932 0.033963
vt 0.434499 0.395829
vt 0.799076 0.279387
vt 0.990747 0.269323
vt 0.186584 0.000000
vt 0.133371 0.305282
vt 0.128307 0.349444
vt 0.000000 0.674432
vt 0.027667 0.791874
vt 0.121073 0.179517
vt 0.121031 0.232476
vt 0.003947 0.556417
vt 0.585554 0.032065
vt 0.124525 0.051089
vt 0.004929 0.472195
vn 0.0334 -0.0470 0.9983
vn 0.0306 -0.0229 0.9993
vn 0.0431 0.1247 0.9913
vn -0.0347 0.1300 0.9909
vn -0.0667 0.1143 0.9912
vn 0.2572 -0.0549 0.9648
vn -0.1335 0.0412 -0.9902
vn 0.2604 -0.0318 0.9650
vn 0.1686 0.1365 0.9762
vn 0.0178 0.2086 0.9778
vn -0.1735 -0.0209 -0.9846
vn -0.1562 0.0535 -0.9863
vn -0.0751 0.9748 0.2102
vn 0.3105 -0.9430 -0.1199
vn -0.0360 -0.9988 0.0340
vn -0.5893 -0.0489 -0.8064
vn -0.6830 0.0964 -0.7240
vn 0.1732 -0.9811 -0.0865
vn -0.7514 -0.6409 0.1573
vn 0.0062 -0.9968 -0.0795
vn -0.0529 -0.0065 -0.9986
vn -0.0329 0.0772 -0.9965
vn 0.2093 -0.9745 -0.0813
vn -0.0397 0.9729 0.2280
vn 0.9346 -0.3412 -0.1004
vn 0.0124 0.0258 0.9996
vn 0.0014 0.0503 -0.9987
vn -0.2876 0.9189 0.2702
vn -0.0750 0.9723 0.2215
vn -0.8711 0.3005 0.3884
vn 0.0065 -0.0334 0.9994
vn -0.0052 0.0654 -0.9978
vn 0.2961 0.9415 0.1609
vn 0.9949 0.0075 -0.1008
vn 0.9604 0.2769 -0.0305
vn -0.0098 -0.0216 0.9997
vn 0.0135 0.0836 -0.9964
vn -0.1245 -0.9907 -0.0551
vn -0.0300 -0.9960 -0.0846
vn -0.1035 0.9418 0.3198
vn 0.5210 0.0672 0.8509
vn 0.0553 0.0092 0.9984
vn -0.6891 -0.7241 -0.0280
vn -0.7712 -0.6356 -0.0354
vn -0.2757 0.0745 -0.9583
vn -0.0624 -0.0387 0.9973
vn -0.0149 -0.0311 -0.9994
vn -0.2346 -0.0536 -0.9706
vn 0.0257 0.0180 -0.9995
vn -0.5270 -0.1462 -0.8372
vn 0.2633 0.0204 0.9645
vn 0.0056 0.0336 -0.9994
vn -0.0456 -0.1346 -0.9898
vn 0.5471 -0.0411 0.8361
vn -0.2714 -0.0121 -0.9624
vn -0.1358 0.0055 -0.9907
vn 0.5086 0.0495 0.8596
vn -0.0472 -0.0264 0.9985
usemtl Material.143
s off
f 15/1/1 7/2/1 4/3/1 12/4/1
f 40/5/2 35/6/2 30/7/2 31/8/2
f 18/9/3 10/10/3 7/2/3 15/1/3
f 34/11/4 2/12/4 1/13/4 33/14/4
f 10/10/5 20/15/5 41/16/5 40/5/5 7/2/5
f 12/4/6 25/17/6 15/1/6
f 28/18/7 29/19/7 48/20/7
f 32/21/8 37/22/8 38/23/8
f 25/17/9 18/9/9 15/1/9
f 39/24/10 19/25/10 34/11/10 33/14/10
f 21/26/11 22/27/11 28/18/11 27/28/11
f 22/27/12 23/29/12 29/19/12 28/18/12
f 51/30/13 50/31/13 30/32/13 26/33/13
f 46/34/14 47/35/14 42/36/14 2/37/14
f 58/38/15 45/39/15 34/40/15 19/41/15
f 16/42/16 17/43/16 22/27/16 21/26/16
f 17/43/17 51/44/17 23/29/17 22/27/17
f 57/45/18 54/46/18 41/47/18 20/48/18
f 52/49/19 55/50/19 18/51/19 25/52/19
f 53/53/20 57/45/20 20/48/20 10/54/20
f 13/55/21 14/56/21 17/43/21 16/42/21
f 14/56/22 50/57/22 51/44/22 17/43/22
f 45/39/23 46/34/23 2/37/23 34/40/23
f 9/58/24 6/59/24 12/60/24 4/61/24
f 27/62/25 48/63/25 32/64/25 38/65/25
f 3/66/26 44/67/26 43/68/26 26/69/26
f 11/70/27 49/71/27 50/57/27 14/56/27
f 23/72/28 51/30/28 26/33/28 43/73/28
f 50/31/29 49/74/29 31/75/29 30/32/29
f 6/76/30 52/49/30 25/52/30 12/77/30
f 39/24/31 33/14/31 3/66/31 35/6/31
f 8/78/32 9/79/32 49/71/32 11/70/32
f 49/74/33 9/58/33 4/61/33 31/75/33
f 47/80/34 27/62/34 38/65/34 42/81/34
f 48/63/35 29/82/35 36/83/35 32/64/35
f 35/6/36 3/66/36 26/69/36 30/7/36
f 5/84/37 6/85/37 9/79/37 8/78/37
f 54/46/38 56/86/38 24/87/38 41/47/38
f 55/50/39 53/53/39 10/54/39 18/51/39
f 29/88/40 23/72/40 43/73/40 36/89/40
f 2/12/41 42/90/41 38/23/41 1/13/41
f 41/16/42 24/91/42 39/24/42 35/6/42 40/5/42
f 56/86/43 13/92/43 39/93/43 24/87/43
f 13/92/44 58/38/44 19/41/44 39/93/44
f 6/85/45 5/84/45 52/94/45
f 7/2/46 40/5/46 31/8/46 4/3/46
f 54/95/47 11/70/47 14/56/47 13/55/47 56/96/47
f 46/97/48 21/26/48 27/28/48 47/98/48
f 53/99/49 8/78/49 11/70/49 54/95/49 57/100/49
f 45/101/50 16/42/50 21/26/50 46/97/50
f 37/22/51 32/21/51 36/102/51
f 55/103/52 5/84/52 8/78/52 53/99/52
f 13/55/53 16/42/53 45/101/53 58/104/53
f 1/13/54 38/23/54 37/22/54 44/67/54
f 52/94/55 5/84/55 55/103/55
f 48/20/56 27/28/56 28/18/56
f 44/67/57 37/22/57 36/102/57 43/68/57
f 33/14/58 1/13/58 44/67/58 3/66/58
