# Blender v2.79 (sub 0) OBJ File: 'NavMesh3.2.Clean.blend'
# www.blender.org
mtllib Level1NavMesh.mtl
o Plane_Plane.001
v -400.000000 800.000000 0.000017
v -400.000000 -800.000000 -0.000052
v 400.000000 800.000000 0.000052
v 400.000000 -800.000000 -0.000017
v -400.000000 460.000336 0.000003
v -400.000000 180.000229 -0.000010
v -400.000000 -139.999847 -0.000024
v -400.000000 -780.000000 -0.000052
v 400.000000 -780.000000 -0.000017
v 400.000000 -640.000122 -0.000010
v 400.000000 -260.000244 0.000006
v 400.000000 -180.000229 0.000010
v -360.000000 -580.000183 -0.000041
v -360.000000 -540.000244 -0.000039
v -360.000000 19.999811 -0.000015
v -360.000000 59.999825 -0.000013
v -319.999969 -620.000183 -0.000041
v -319.999969 -580.000183 -0.000039
v -319.999969 -540.000244 -0.000038
v -319.999969 -500.000275 -0.000036
v -299.999969 -780.000000 -0.000047
v -299.999969 -740.000061 -0.000045
v -259.999969 -740.000061 -0.000044
v -259.999969 -700.000122 -0.000042
v -219.999954 -700.000122 -0.000040
v -219.999954 -660.000122 -0.000038
v -219.999954 -500.000275 -0.000031
v -219.999954 -460.000336 -0.000030
v -219.999954 179.999847 -0.000002
v -219.999954 219.999863 -0.000000
v -179.999954 -720.000061 -0.000039
v -179.999954 -700.000122 -0.000038
v -179.999954 -660.000122 -0.000037
v -179.999954 -620.000183 -0.000035
v -179.999954 259.999878 0.000003
v -179.999954 299.999878 0.000005
v -159.999954 -740.000061 -0.000039
v -159.999954 -720.000061 -0.000038
v -139.999969 -460.000336 -0.000026
v -139.999969 -420.000275 -0.000024
v -139.999969 19.999811 -0.000005
v -139.999969 59.999825 -0.000003
v -139.999969 219.999863 0.000003
v -139.999969 259.999878 0.000005
v -139.999969 379.999908 0.000010
v -139.999969 459.999939 0.000014
v -119.999954 -380.000275 -0.000022
v -119.999954 -340.000275 -0.000020
v -119.999954 -180.000229 -0.000013
v -119.999954 -140.000229 -0.000011
v -99.999962 -720.000061 -0.000036
v -99.999962 -700.000122 -0.000035
v -99.999962 -420.000275 -0.000023
v -99.999962 -380.000275 -0.000021
v -99.999962 -340.000275 -0.000019
v -99.999962 -220.000244 -0.000014
v -100.000000 739.999939 0.000028
v -100.000023 780.000000 0.000030
v -79.999962 -740.000061 -0.000036
v -79.999962 -720.000061 -0.000035
v -79.999962 -220.000244 -0.000013
v -79.999962 -180.000229 -0.000011
v -39.999962 -620.000183 -0.000029
v -39.999962 -580.000183 -0.000027
v -19.999985 -500.000275 -0.000023
v -19.999985 -480.000305 -0.000022
v -0.000030 680.000000 0.000030
v -0.000031 700.000000 0.000031
v 20.000021 -640.000122 -0.000027
v 20.000019 -620.000183 -0.000026
v 20.000017 -580.000183 -0.000024
v 20.000011 -500.000275 -0.000021
v 19.999966 700.000000 0.000031
v 19.999966 739.999939 0.000033
v 40.000034 -280.000244 -0.000010
v 40.000034 -240.000244 -0.000009
v 40.000034 -160.000229 -0.000005
v 40.000023 -20.000196 0.000001
v 60.000031 -620.000183 -0.000024
v 60.000031 -580.000183 -0.000023
v 60.000031 -240.000244 -0.000008
v 60.000031 -160.000229 -0.000004
v 80.000031 -780.000000 -0.000031
v 80.000031 -740.000061 -0.000029
v 80.000031 -640.000122 -0.000024
v 80.000031 -620.000183 -0.000024
v 80.000031 -580.000183 -0.000022
v 80.000031 -500.000275 -0.000018
v 79.999977 680.000000 0.000033
v 79.999969 700.000000 0.000034
v 79.999969 739.999939 0.000036
v 79.999962 780.000000 0.000038
v 100.000023 -500.000275 -0.000017
v 100.000023 -480.000305 -0.000017
v 120.000031 -740.000061 -0.000027
v 120.000031 -680.000122 -0.000024
v 120.000031 -260.000244 -0.000006
v 120.000031 -240.000244 -0.000005
v 120.000031 -160.000229 -0.000002
v 120.000031 -20.000196 0.000004
v 140.000031 -280.000244 -0.000006
v 140.000031 -260.000244 -0.000005
v 140.000031 -240.000244 -0.000004
v 140.000031 -160.000229 -0.000001
v 160.000031 299.999878 0.000020
v 160.000031 339.999878 0.000022
v 159.999985 700.000000 0.000038
v 159.999969 739.999939 0.000039
v 200.000031 -680.000122 -0.000021
v 200.000031 -640.000122 -0.000019
v 240.000031 -220.000244 0.000001
v 240.000031 -180.000229 0.000003
v 240.000031 339.999878 0.000025
v 240.000031 379.999908 0.000027
v 280.000031 -260.000244 0.000001
v 280.000031 -220.000244 0.000003
v 280.000031 499.999908 0.000034
v 280.000031 539.999939 0.000036
v 300.000061 -620.000183 -0.000014
v 300.000061 -600.000183 -0.000013
v 360.000000 499.999908 0.000038
v 360.000000 539.999939 0.000039
v 380.000031 -620.000183 -0.000010
v 380.000031 -600.000183 -0.000010
vn -0.0000 -0.0000 1.0000
usemtl None
s off
f 9//1 83//1 4//1
f 2//1 21//1 8//1
f 83//1 21//1 2//1
f 2//1 4//1 83//1
f 22//1 21//1 23//1
f 24//1 23//1 25//1
f 37//1 23//1 21//1
f 59//1 37//1 21//1
f 21//1 83//1 59//1
f 84//1 59//1 83//1
f 59//1 84//1 60//1
f 60//1 84//1 96//1
f 95//1 96//1 84//1
f 38//1 31//1 37//1
f 37//1 31//1 23//1
f 23//1 31//1 25//1
f 31//1 32//1 25//1
f 25//1 32//1 33//1
f 26//1 25//1 33//1
f 85//1 69//1 96//1
f 96//1 110//1 85//1
f 109//1 110//1 96//1
f 96//1 69//1 60//1
f 70//1 63//1 69//1
f 69//1 63//1 60//1
f 60//1 63//1 52//1
f 52//1 51//1 60//1
f 32//1 52//1 33//1
f 52//1 63//1 33//1
f 33//1 63//1 34//1
f 63//1 64//1 34//1
f 34//1 18//1 17//1
f 34//1 64//1 18//1
f 65//1 64//1 72//1
f 64//1 71//1 72//1
f 64//1 65//1 18//1
f 123//1 10//1 124//1
f 123//1 119//1 10//1
f 10//1 119//1 110//1
f 11//1 124//1 10//1
f 119//1 120//1 110//1
f 85//1 110//1 86//1
f 110//1 120//1 86//1
f 88//1 87//1 93//1
f 80//1 79//1 87//1
f 86//1 120//1 87//1
f 86//1 87//1 79//1
f 87//1 120//1 93//1
f 124//1 11//1 120//1
f 11//1 115//1 120//1
f 120//1 115//1 93//1
f 94//1 93//1 115//1
f 65//1 19//1 18//1
f 40//1 39//1 53//1
f 39//1 66//1 53//1
f 94//1 53//1 66//1
f 115//1 53//1 94//1
f 27//1 66//1 39//1
f 65//1 66//1 27//1
f 19//1 65//1 27//1
f 28//1 27//1 39//1
f 20//1 19//1 27//1
f 18//1 19//1 13//1
f 14//1 13//1 19//1
f 53//1 115//1 54//1
f 48//1 47//1 55//1
f 54//1 55//1 47//1
f 101//1 54//1 115//1
f 101//1 115//1 102//1
f 115//1 116//1 102//1
f 116//1 111//1 102//1
f 111//1 103//1 102//1
f 102//1 103//1 97//1
f 98//1 97//1 103//1
f 54//1 101//1 55//1
f 101//1 75//1 55//1
f 76//1 55//1 75//1
f 56//1 55//1 61//1
f 55//1 76//1 61//1
f 77//1 76//1 82//1
f 81//1 82//1 76//1
f 76//1 77//1 61//1
f 62//1 61//1 77//1
f 62//1 77//1 50//1
f 50//1 49//1 62//1
f 111//1 112//1 103//1
f 103//1 112//1 104//1
f 78//1 50//1 77//1
f 50//1 78//1 41//1
f 41//1 15//1 50//1
f 50//1 15//1 7//1
f 15//1 16//1 7//1
f 7//1 16//1 6//1
f 29//1 6//1 16//1
f 16//1 42//1 29//1
f 43//1 29//1 42//1
f 29//1 43//1 30//1
f 41//1 78//1 42//1
f 43//1 42//1 78//1
f 78//1 100//1 43//1
f 43//1 100//1 44//1
f 112//1 12//1 104//1
f 104//1 12//1 100//1
f 100//1 99//1 104//1
f 44//1 100//1 105//1
f 44//1 36//1 35//1
f 36//1 44//1 105//1
f 105//1 100//1 113//1
f 105//1 113//1 106//1
f 100//1 12//1 113//1
f 113//1 12//1 121//1
f 121//1 117//1 113//1
f 12//1 3//1 121//1
f 121//1 3//1 122//1
f 122//1 3//1 118//1
f 113//1 117//1 114//1
f 114//1 117//1 45//1
f 117//1 118//1 45//1
f 45//1 118//1 46//1
f 5//1 46//1 1//1
f 57//1 1//1 46//1
f 57//1 46//1 68//1
f 57//1 68//1 74//1
f 73//1 74//1 68//1
f 68//1 46//1 67//1
f 89//1 67//1 46//1
f 46//1 118//1 89//1
f 118//1 107//1 89//1
f 90//1 89//1 107//1
f 118//1 3//1 107//1
f 107//1 3//1 108//1
f 108//1 3//1 92//1
f 92//1 91//1 108//1
f 58//1 1//1 57//1
f 1//1 58//1 3//1
f 58//1 92//1 3//1
