# Blender v2.93.5 OBJ File: 'entrada.blend'
# www.blender.org
mtllib entrada.mtl
o Cube_Cube.001
v -6.057489 -6.057489 -1.265393
v -6.057489 -6.057489 0.844485
v -6.057489 6.057489 -1.201988
v -6.057488 6.057489 0.844485
v 6.057489 -6.057489 -1.223300
v 6.057488 -6.057489 0.844484
v 6.057489 6.057489 -1.300610
v 6.057489 6.057488 0.844485
v -7.384900 0.000000 -1.174392
v -7.384900 -7.384901 -1.201656
v -7.384900 -0.000000 1.029541
v -7.384901 7.384900 -1.617070
v 0.000000 7.384900 -1.260686
v -0.000000 7.384900 1.029542
v 7.384900 7.384901 -1.385542
v 7.384900 -0.000000 -1.029541
v 7.384900 -0.000000 1.029541
v 7.384901 -7.384901 -1.220444
v -0.000000 -7.384900 -1.260687
v -0.000000 -7.384900 1.029541
v -10.170598 -0.000000 -1.218846
v 0.000000 10.170598 -1.248180
v 10.170598 -0.000000 -1.181863
v -0.000000 -10.170598 -1.232772
v 0.000000 -0.000000 -1.362426
v -6.057489 -6.057489 -0.494028
v -7.384900 -0.000000 -0.308972
v -6.057488 6.057489 -0.494028
v -0.000000 7.384900 -0.308971
v 6.057489 6.057488 -0.494028
v 7.384900 -0.000000 -0.308972
v 6.057488 -6.057489 -0.494029
v -0.000000 -7.384900 -0.308972
v -0.000000 -0.000000 0.079387
v -5.347995 -5.347995 0.776934
v -6.519931 -0.000000 0.940316
v -5.347995 5.347995 0.776935
v -0.000000 6.519931 0.940316
v 5.347995 5.347995 0.776935
v 6.519931 -0.000000 0.940316
v 5.347995 -5.347995 0.776934
v -0.000000 -6.519931 0.940316
v -0.000000 6.519931 -0.241421
v -5.347995 5.347995 -0.404803
v -5.347995 -5.347995 -0.404803
v -0.000000 -6.519931 -0.241422
v -6.519931 -0.000000 -0.241421
v 5.347995 5.347995 -0.404803
v 6.519931 -0.000000 -0.241421
v 5.347995 -5.347995 -0.404803
vt 0.375000 0.000000
vt 0.500000 0.000000
vt 0.500000 0.125000
vt 0.375000 0.125000
vt 0.625000 0.000000
vt 0.625000 0.125000
vt 0.625000 0.250000
vt 0.500000 0.250000
vt 0.375000 0.250000
vt 0.500000 0.375000
vt 0.375000 0.375000
vt 0.625000 0.375000
vt 0.625000 0.500000
vt 0.500000 0.500000
vt 0.375000 0.500000
vt 0.500000 0.625000
vt 0.375000 0.625000
vt 0.625000 0.625000
vt 0.625000 0.750000
vt 0.500000 0.750000
vt 0.375000 0.750000
vt 0.500000 0.875000
vt 0.375000 0.875000
vt 0.625000 0.875000
vt 0.625000 1.000000
vt 0.500000 1.000000
vt 0.375000 1.000000
vt 0.125000 0.500000
vt 0.250000 0.500000
vt 0.250000 0.625000
vt 0.125000 0.625000
vt 0.250000 0.750000
vt 0.125000 0.750000
vt 0.750000 0.750000
vt 0.875000 0.750000
vt 0.875000 0.750000
vt 0.750000 0.750000
vt 0.625000 0.250000
vt 0.625000 0.375000
vt 0.625000 0.625000
vt 0.625000 0.750000
vt 0.625000 0.750000
vt 0.625000 0.750000
vt 0.625000 0.500000
vt 0.750000 0.500000
vt 0.750000 0.625000
vt 0.625000 0.625000
vt 0.875000 0.500000
vt 0.875000 0.625000
vt 0.625000 0.500000
vt 0.625000 0.625000
vt 0.625000 0.875000
vt 0.625000 1.000000
vt 0.625000 0.500000
vt 0.625000 0.125000
vt 0.625000 0.000000
vt 0.625000 0.000000
vt 0.625000 0.125000
vt 0.625000 0.250000
vt 0.625000 0.375000
vt 0.625000 0.875000
vt 0.625000 1.000000
vt 0.875000 0.625000
vt 0.875000 0.500000
vt 0.750000 0.500000
vn -0.0059 0.0037 -1.0000
vn -0.6715 -0.2143 0.7094
vn -0.6959 0.2423 0.6760
vn 0.0918 -0.0596 -0.9940
vn 0.0480 -0.0819 -0.9955
vn -0.2415 0.6984 0.6738
vn 0.2263 0.6854 0.6921
vn -0.0169 -0.0121 -0.9998
vn -0.0420 -0.0481 -0.9980
vn 0.6794 0.2281 0.6974
vn 0.6692 -0.2166 0.7109
vn -0.0280 0.0258 -0.9993
vn 0.0054 -0.0057 -1.0000
vn 0.2153 -0.6740 0.7067
vn -0.2140 -0.6728 0.7082
vn -0.0080 -0.0197 -0.9998
vn -0.0191 0.0074 -0.9998
vn 0.0207 -0.0105 -0.9997
vn 0.0271 0.0042 -0.9996
vn -0.0139 -0.0022 -0.9999
vn 0.0475 0.0778 -0.9958
vn -0.0079 -0.1026 0.9947
vn -0.1026 -0.0079 0.9947
vn -0.0475 0.0778 -0.9958
vn 0.0472 0.0472 0.9978
vn -0.0472 0.0472 0.9978
vn -0.0472 -0.0472 0.9978
vn 0.0472 -0.0472 0.9978
vn -0.1026 0.0079 0.9947
vn -0.0778 0.0475 -0.9958
vn -0.0079 0.1026 0.9947
vn -0.0778 -0.0475 -0.9958
vn 0.9768 0.2141 0.0000
vn -0.9768 0.2141 0.0000
vn 0.2141 -0.9768 0.0000
vn 0.2141 0.9768 0.0000
vn -0.2141 0.9768 0.0000
vn -0.2141 -0.9768 0.0000
vn -0.9768 -0.2141 0.0000
vn 0.9768 -0.2141 0.0000
vn 0.0079 -0.1026 0.9947
vn 0.0778 0.0475 -0.9958
vn 0.1026 -0.0079 0.9947
vn 0.0778 -0.0475 -0.9958
vn 0.1026 0.0079 0.9947
vn 0.0475 -0.0778 -0.9958
vn -0.0475 -0.0778 -0.9958
vn 0.0079 0.1026 0.9947
usemtl Material.001
s off
f 1/1/1 10/2/1 21/3/1 9/4/1
f 10/2/2 2/5/2 11/6/2 21/3/2
f 21/3/3 11/6/3 4/7/3 12/8/3
f 9/4/4 21/3/4 12/8/4 3/9/4
f 3/9/5 12/8/5 22/10/5 13/11/5
f 12/8/6 4/7/6 14/12/6 22/10/6
f 22/10/7 14/12/7 8/13/7 15/14/7
f 13/11/8 22/10/8 15/14/8 7/15/8
f 7/15/9 15/14/9 23/16/9 16/17/9
f 15/14/10 8/13/10 17/18/10 23/16/10
f 23/16/11 17/18/11 6/19/11 18/20/11
f 16/17/12 23/16/12 18/20/12 5/21/12
f 5/21/13 18/20/13 24/22/13 19/23/13
f 18/20/14 6/19/14 20/24/14 24/22/14
f 24/22/15 20/24/15 2/25/15 10/26/15
f 19/23/16 24/22/16 10/26/16 1/27/16
f 3/28/17 13/29/17 25/30/17 9/31/17
f 13/29/18 7/15/18 16/17/18 25/30/18
f 25/30/19 16/17/19 5/21/19 19/32/19
f 9/31/20 25/30/20 19/32/20 1/33/20
f 33/34/21 26/35/21 45/36/21 46/37/21
f 14/12/22 4/7/22 37/38/22 38/39/22
f 6/19/23 17/18/23 40/40/23 41/41/23
f 32/42/24 33/34/24 46/37/24 50/43/24
f 30/44/25 29/45/25 34/46/25 31/47/25
f 29/45/26 28/48/26 27/49/26 34/46/26
f 34/46/27 27/49/27 26/35/27 33/34/27
f 31/47/28 34/46/28 33/34/28 32/42/28
f 17/18/29 8/13/29 39/50/29 40/40/29
f 31/47/30 32/42/30 50/43/30 49/51/30
f 2/25/31 20/24/31 42/52/31 35/53/31
f 30/44/32 31/47/32 49/51/32 48/54/32
f 36/55/33 35/56/33 45/57/33 47/58/33
f 41/41/34 40/40/34 49/51/34 50/43/34
f 38/39/35 37/38/35 44/59/35 43/60/35
f 35/53/36 42/52/36 46/61/36 45/62/36
f 42/52/37 41/41/37 50/43/37 46/61/37
f 39/50/38 38/39/38 43/60/38 48/54/38
f 40/40/39 39/50/39 48/54/39 49/51/39
f 37/38/40 36/55/40 47/58/40 44/59/40
f 8/13/41 14/12/41 38/39/41 39/50/41
f 26/35/42 27/49/42 47/63/42 45/36/42
f 11/6/43 2/5/43 35/56/43 36/55/43
f 27/49/44 28/48/44 44/64/44 47/63/44
f 4/7/45 11/6/45 36/55/45 37/38/45
f 28/48/46 29/45/46 43/65/46 44/64/46
f 29/45/47 30/44/47 48/54/47 43/65/47
f 20/24/48 6/19/48 41/41/48 42/52/48
