# Blender v2.93.5 OBJ File: ''
# www.blender.org
mtllib palo.mtl
o Cube_Cube.001
v -3.188657 0.166314 0.263924
v -3.188657 0.602577 0.156767
v -3.188657 0.055191 -0.156767
v -3.188657 0.491454 -0.263924
v -1.072028 0.105164 0.239259
v -1.072028 0.576999 0.215734
v -1.072028 0.080769 -0.215734
v -1.072028 0.552604 -0.239259
v 0.940802 0.622312 -0.204213
v 0.634188 0.119814 -0.251971
v 0.634188 0.067586 0.201608
v 0.940802 0.567776 0.262348
v 1.661724 0.075418 -0.184379
v 1.284759 0.145382 -0.251624
v 1.284759 0.067946 0.176952
v 1.366863 0.316318 0.277585
v 1.343651 0.740676 -0.130616
v 1.343651 0.684837 0.301072
v 1.669030 0.759014 -0.097307
v 1.669030 0.673075 0.351693
v 2.918857 0.357567 -0.131788
v 2.918857 0.216947 0.303450
v 2.918857 0.764597 -0.009502
v 2.918857 0.623976 0.425736
v 4.956326 0.403248 0.044713
v 4.956326 0.260162 0.302194
v 4.956326 0.644041 0.169144
v 4.956326 0.500955 0.426624
v -3.237245 0.125234 -0.116648
v -3.237245 0.207919 0.196381
v -3.237245 0.532534 0.116648
v -3.237245 0.449849 -0.196381
v 5.000108 0.422151 0.118600
v 5.000108 0.334430 0.276453
v 5.000108 0.569773 0.194884
v 5.000108 0.482052 0.352737
vt 0.625000 0.250000
vt 0.375000 0.250000
vt 0.375000 0.250000
vt 0.625000 0.250000
vt 0.625000 0.500000
vt 0.375000 0.500000
vt 0.375000 0.750000
vt 0.375000 0.500000
vt 0.375000 0.750000
vt 0.625000 0.750000
vt 0.625000 1.000000
vt 0.375000 1.000000
vt 0.125000 0.500000
vt 0.125000 0.750000
vt 0.875000 0.500000
vt 0.875000 0.750000
vt 0.625000 0.500000
vt 0.625000 0.750000
vt 0.625000 0.750000
vt 0.625000 0.500000
vt 0.375000 0.500000
vt 0.625000 0.500000
vt 0.625000 0.750000
vt 0.375000 0.750000
vt 0.625000 0.750000
vt 0.625000 0.500000
vt 0.625000 0.750000
vt 0.625000 0.500000
vt 0.625000 0.500000
vt 0.625000 0.500000
vt 0.625000 0.500000
vt 0.625000 0.750000
vt 0.625000 0.750000
vt 0.625000 0.750000
vt 0.625000 0.750000
vt 0.625000 0.750000
vt 0.375000 0.000000
vt 0.625000 0.000000
vt 0.625000 1.000000
vt 0.375000 1.000000
vt 0.875000 0.500000
vt 0.875000 0.750000
vt 0.125000 0.750000
vt 0.125000 0.500000
vt 0.625000 0.500000
vt 0.625000 0.500000
vn -0.7534 -0.1569 -0.6386
vn -0.0051 -0.1424 -0.9898
vn -0.0002 -0.9995 -0.0306
vn -0.0051 0.1424 0.9898
vn -0.0053 -0.9882 0.1529
vn -0.0053 0.9882 -0.1529
vn -0.2935 0.9488 0.1166
vn -0.0157 0.9993 0.0327
vn -0.0011 0.0252 -0.9997
vn -0.0029 -0.0374 0.9993
vn 0.2663 -0.9286 0.2586
vn 0.0713 0.1495 -0.9862
vn -0.0363 -0.1925 0.9806
vn 0.0170 -0.9892 -0.1454
vn -0.0305 0.9868 0.1589
vn 0.1188 0.1363 -0.9835
vn -0.1115 -0.0702 0.9913
vn 0.0008 0.9687 0.2482
vn 0.0876 0.3545 -0.9309
vn 0.0334 0.1882 -0.9816
vn -0.0469 -0.2313 0.9717
vn 0.0607 -0.9896 0.1306
vn 0.7929 -0.2798 0.5414
vn 0.0365 -0.9248 -0.3787
vn -0.0069 -0.3559 0.9345
vn 0.0386 0.9247 0.3787
vn -1.0000 0.0000 0.0000
vn -0.7534 0.1569 0.6386
vn -0.7637 0.6242 -0.1649
vn -0.7637 -0.6242 0.1649
vn 1.0000 0.0000 0.0000
vn 0.7675 0.5604 0.3114
vn 0.7929 0.2798 -0.5414
vn 0.7675 -0.5604 -0.3114
usemtl Material.001
s off
f 4/1/1 3/2/1 29/3/1 32/4/1
f 3/2/2 4/1/2 8/5/2 7/6/2
f 5/7/3 7/6/3 10/8/3 11/9/3
f 5/7/4 6/10/4 2/11/4 1/12/4
f 3/13/5 7/6/5 5/7/5 1/14/5
f 8/5/6 4/15/6 2/16/6 6/10/6
f 9/17/7 12/18/7 18/19/7 17/20/7
f 8/5/8 6/10/8 12/18/8 9/17/8
f 7/6/9 8/5/9 9/17/9 10/8/9
f 6/10/10 5/7/10 11/9/10 12/18/10
f 14/21/11 13/22/11 16/23/11 15/24/11
f 10/8/12 9/17/12 13/22/12 14/21/12
f 12/18/13 11/9/13 15/24/13 16/23/13
f 11/9/14 10/8/14 14/21/14 15/24/14
f 17/20/15 18/19/15 20/25/15 19/26/15
f 13/22/16 9/17/16 17/20/16 19/26/16
f 12/18/17 16/23/17 20/25/17 18/19/17
f 19/26/18 20/25/18 24/27/18 23/28/18
f 21/29/19 23/28/19 27/30/19 25/31/19
f 13/22/20 19/26/20 23/28/20 21/29/20
f 20/25/21 16/23/21 22/32/21 24/27/21
f 16/23/22 13/22/22 21/29/22 22/32/22
f 28/33/23 26/34/23 34/35/23 36/36/23
f 22/32/24 21/29/24 25/31/24 26/34/24
f 24/27/25 22/32/25 26/34/25 28/33/25
f 23/28/26 24/27/26 28/33/26 27/30/26
f 30/37/27 31/38/27 32/4/27 29/3/27
f 1/12/28 2/11/28 31/39/28 30/40/28
f 2/16/29 4/15/29 32/41/29 31/42/29
f 3/13/30 1/14/30 30/43/30 29/44/30
f 34/35/31 33/45/31 35/46/31 36/36/31
f 27/30/32 28/33/32 36/36/32 35/46/32
f 25/31/33 27/30/33 35/46/33 33/45/33
f 26/34/34 25/31/34 33/45/34 34/35/34
