# Blender v2.93.5 OBJ File: 'salisnuevos.blend'
# www.blender.org
mtllib plano1.mtl
o Plane_Plane.010
v 95.426651 84.110863 -4.946827
v -137.177841 76.911186 -3.755405
v -145.661057 31.070402 -4.193716
v -147.445984 -7.768766 -2.897404
v -155.400757 -38.234009 -1.452438
v -146.596573 -161.949936 2.631363
v -151.157303 -226.512009 4.910057
v -169.645569 -276.595184 7.037201
v -156.896317 -346.422241 9.910633
v -74.887413 -338.534180 8.739204
v 49.347679 -342.603912 7.564327
v 72.542992 -363.197449 7.279587
v 116.867653 -359.699127 2.749981
v 97.070755 -248.558029 3.153645
v 93.160385 -123.305595 -0.978167
v 105.572449 -90.338234 -2.194115
v 90.473969 -11.062414 -4.791832
v 74.845551 28.938162 -6.006470
v 86.968536 63.272301 -5.174191
v 133.093781 77.594658 -104.103821
v -158.281494 81.313202 -102.204208
v -173.116379 32.035305 -100.488625
v -181.403778 12.876485 -99.761436
v -201.211212 -24.191050 -98.994209
v -194.364685 -174.642181 -95.055008
v -200.031998 -255.320389 -92.929077
v -217.598038 -311.649658 -91.707672
v -207.604767 -331.886017 -90.098450
v -101.178902 -323.512451 -85.227524
v 56.339497 -326.990845 -88.298271
v 86.597893 -349.704742 -110.087769
v 148.031906 -359.224213 -106.447838
v 136.831192 -284.636139 -93.010971
v 136.095673 -126.305916 -97.303894
v 150.597504 -85.728989 -98.415665
v 131.154205 3.794693 -100.672256
v 119.266510 30.774841 -101.311478
v 130.885941 64.099609 -102.350899
v -166.976685 -397.072021 6.910629
v -83.853073 -389.215729 12.923428
v 40.234379 -392.668304 9.847500
v 60.815910 -409.867493 -21.059673
v 109.790451 -407.978302 -16.742331
v -213.839600 -379.536072 -96.253899
v -109.914185 -369.992249 -88.716187
v 44.824982 -374.352936 -92.137207
v 87.004150 -412.493622 -133.115677
v 141.046158 -413.333099 -128.931198
v -134.296463 -356.205231 118.900192
v -50.881397 -347.757874 122.930557
v 71.523224 -351.985352 121.427429
v 95.767159 -375.619507 94.825577
v 142.597382 -372.414398 97.794632
v 134.758972 -422.182465 103.139267
v -142.149429 -405.941986 124.232407
v -60.079803 -397.605957 128.229858
v 62.329208 -401.821136 126.719437
v 86.562073 -425.473114 100.132507
v 104.175354 82.597397 -27.977402
v 88.903481 138.693939 -2.084061
v -127.037697 132.010025 -0.977995
v 123.872208 132.644531 -100.497528
v -146.629501 136.096695 -98.733994
v 97.025452 137.288879 -29.824654
v 92.662994 197.496994 -1.803534
v -134.128021 190.477249 -0.641895
v 129.388718 191.143646 -103.664429
v -154.704239 194.769241 -101.812286
v 101.193054 196.021362 -29.440634
v 98.408119 232.127151 -0.902962
v -138.727188 243.531097 0.443008
v 123.866150 230.871155 -113.158333
v -162.568451 248.504120 -111.012276
v 107.070641 230.417374 -27.156658
v 109.654083 334.756653 -1.519773
v -108.830231 326.255432 -0.112980
v 148.025208 323.399109 -116.953529
v -133.749039 331.453186 -114.710503
v 119.984390 332.969543 -27.064968
v 93.698486 423.484589 -1.429531
v -140.357269 416.239990 -0.230690
v 124.274063 416.927704 -108.271729
v -161.592606 420.669434 -106.360252
v 102.501793 421.961670 -31.670338
v 93.360092 493.394226 -1.906527
v -140.695663 486.149628 -0.707684
v 123.935654 486.837341 -108.748726
v -161.931015 490.579071 -106.837242
v 102.163391 491.871307 -32.147331
v 66.603233 586.144958 -0.957184
v -162.671570 577.838867 0.417316
v 101.658775 578.627380 -118.569656
v -187.018387 582.917297 -116.378105
v 76.696404 584.398865 -30.744522
v 80.391876 730.161865 -2.001038
v -124.998260 723.804626 -0.949020
v 107.222755 724.408081 -104.305580
v -143.632858 727.691589 -102.628212
v 88.117004 728.825500 -28.538147
vt -1.413394 -0.531201
vt -1.475497 -0.848060
vt -1.490627 -1.117196
vt -1.547900 -1.327911
vt -1.495695 -2.186228
vt -1.531884 -2.633520
vt -1.663539 -2.979495
vt -1.580147 -3.464596
vt -1.011367 -3.415604
vt -0.150861 -3.452458
vt 0.008367 -3.596715
vt 0.315606 -3.574862
vt 0.186466 -2.803643
vt 0.168279 -1.935023
vt 0.256625 -1.707333
vt 0.157646 -1.156662
vt 0.052203 -0.878251
vt 0.138709 -0.641427
vt 0.198827 -0.497721
vt -2.037649 -0.192883
vt -4.056829 -0.192212
vt -4.042842 -0.285519
vt -3.965466 -0.517179
vt -4.050364 -0.702814
vt -4.193482 -1.320590
vt -4.096810 -1.602726
vt -4.116771 -2.698351
vt -4.200890 -3.216673
vt -3.774221 -3.157146
vt -3.563146 -2.998134
vt -2.471499 -2.987907
vt -1.734715 -3.056698
vt -1.663539 -2.917794
vt -1.779973 -2.526299
vt -1.811669 -1.967448
vt -1.750111 -0.926883
vt -1.883882 -0.668492
vt -1.939498 -0.535188
vt 1.115504 0.922351
vt 1.810717 0.882675
vt 1.832676 1.225284
vt 1.138973 1.240482
vt 3.042194 1.534343
vt 2.331536 1.379954
vt 2.367081 1.195946
vt 3.088703 1.260956
vt 2.861253 3.941206
vt 2.725681 4.267934
vt 1.919322 4.248228
vt 2.077540 3.882548
vt 1.845774 1.358663
vt 1.137140 1.509834
vt 2.350824 0.962470
vt 3.084072 1.021214
vt 4.455171 -1.770962
vt 3.594187 -1.687187
vt 3.447655 -1.865576
vt 4.271590 -1.929490
vt 1.882799 1.616909
vt 1.145766 1.721604
vt 2.906069 0.873606
vt 3.076995 0.875327
vt 4.229466 -0.670666
vt 3.614434 -0.816597
vt 3.588531 -1.141257
vt 4.255892 -0.979052
vt 1.855789 2.659250
vt 1.111693 2.578596
vt 2.227100 3.375543
vt 2.962637 3.177801
vt 1.859605 3.218832
vt 1.110962 3.026462
vt 2.278560 2.279501
vt 3.005937 2.311187
vt 1.890817 3.610426
vt 1.137447 3.374941
vt 2.258986 1.995202
vt 2.986586 2.079920
vt 1.862147 3.750127
vt 1.099119 3.858174
vt -3.487647 -3.328007
vt -2.415186 -3.311342
vt 4.347304 -2.784721
vt 5.077227 -2.883720
vt 4.979930 -1.817552
vt 3.980691 3.510285
vt 3.838318 2.844229
vt 4.094082 2.650249
vt 4.094082 3.343332
vt 5.200890 -1.509917
vt 5.130560 -1.141257
vt 4.389761 -1.436381
vt 4.445942 -3.355088
vt 5.200890 -3.596715
vt 1.919322 4.080024
vt 1.143156 4.209456
vt -3.782144 -3.596715
vt 0.315606 4.281866
vt 0.331385 3.936164
vt -4.156804 -3.596695
vt 3.533369 -2.707863
vt -1.695751 -3.388557
vt 3.493996 2.711373
vt 3.838319 2.650249
vt 3.792558 3.220107
vt 3.447655 3.290568
vt -1.654273 4.329998
vt -1.663539 3.978046
vt -1.336937 4.051784
vt -1.336936 4.401689
vt 3.838319 4.067541
vt 3.493501 4.137970
vt -1.336936 4.452895
vt -1.336835 4.102651
vt -1.085413 3.978046
vt -1.085413 4.328432
vt 4.255892 0.913853
vt 3.494354 0.774415
vt 3.458430 0.195248
vt 4.255792 0.343874
vt 3.419730 4.065054
vt 3.447656 4.413202
vt 3.539363 -1.356543
vt 3.447655 -0.651319
vt 4.242558 -0.515363
vt 3.617054 -3.272601
vt 2.341081 0.867914
vt -2.113398 0.188327
vt -3.987928 0.188950
vt 3.137105 0.500843
vt 2.936804 0.496439
vt 2.958947 0.089708
vt 3.159513 0.093673
vt 1.072454 0.540216
vt 1.760114 0.502699
vt 2.412291 0.491155
vt 0.157656 -0.119654
vt -1.339068 -0.150735
vt 2.408080 0.084158
vt 2.377789 -0.193334
vt 2.977743 -0.148377
vt 1.079271 0.135651
vt 1.791536 0.096410
vt 0.187959 0.287360
vt -1.383968 0.254716
vt -2.051894 0.593310
vt -4.020609 0.593963
vt 3.169666 -0.146611
vt 3.000076 -0.860128
vt 3.191112 -0.858821
vt -1.992114 0.962855
vt -3.978347 0.866650
vt 1.076663 -0.231496
vt 1.863626 -0.276343
vt 0.230295 0.526677
vt -1.411973 0.622362
vt -1.198861 1.193357
vt 0.315606 1.236897
vt 0.211455 1.852640
vt -1.410825 1.818951
vt 1.014529 -0.806732
vt 1.824471 -0.853401
vt 2.344732 -0.840116
vt -2.183965 1.539239
vt -4.137014 1.508929
vt 3.270868 -1.468344
vt 3.052631 -1.473192
vt 3.084666 -1.956513
vt 3.302903 -1.951664
vt 2.500421 -1.477225
vt -1.983009 2.156297
vt -3.964022 2.156297
vt 1.069836 -1.428052
vt 1.816333 -1.468734
vt 2.532456 -1.960545
vt 2.562924 -2.594138
vt 3.196045 -2.589516
vt 1.067797 -1.912439
vt 1.814294 -1.953124
vt 0.214140 2.337012
vt -1.408139 2.303323
vt -1.974146 2.640353
vt -3.955160 2.640354
vt 3.414294 -2.586108
vt 3.256147 -3.589408
vt 3.447655 -3.585151
vt -1.791427 3.275604
vt -3.791956 3.272009
vt 1.095896 -2.546083
vt 1.919322 -2.592201
vt 0.035463 2.981242
vt -1.553760 2.939830
vt 3.447655 2.524065
vt 3.450523 1.100128
vt 3.632752 1.046470
vt 4.152819 0.913853
vt 4.152819 2.650249
vt 1.018518 -3.560093
vt 1.730374 -3.596715
vt 0.141366 3.978047
vt -1.282227 3.948485
vt 2.715630 -3.596715
vt -2.079010 4.285116
vt -3.817402 4.285116
vn 0.0119 0.0300 0.9995
vn -0.0045 -0.0277 -0.9996
vn -0.9418 0.2341 0.2413
vn 0.8414 0.3569 0.4057
vn 0.9334 -0.2382 0.2684
vn -0.9329 0.1730 0.3160
vn 0.8676 -0.3033 0.3940
vn -0.6383 -0.7683 0.0484
vn -0.8395 0.3585 0.4084
vn 0.8667 -0.3214 0.3815
vn -0.0698 0.9855 0.1544
vn -0.9012 -0.0388 0.4317
vn 0.9436 0.1349 0.3025
vn -0.9002 0.0764 0.4287
vn 0.9204 0.0267 0.3900
vn -0.8886 0.3117 0.3364
vn 0.8672 -0.3049 0.3936
vn -0.8699 -0.1972 0.4522
vn 0.8885 0.1938 0.4160
vn -0.0187 0.0818 -0.9965
vn -0.0317 -0.9835 -0.1780
vn -0.7472 -0.6463 -0.1548
vn 0.0071 -0.9993 0.0374
vn 0.1057 -0.9715 -0.2120
vn -0.8897 0.1063 0.4440
vn -0.5039 0.2523 -0.8261
vn -0.9603 0.1766 0.2158
vn 0.0950 0.3565 -0.9295
vn -0.0323 -0.9971 -0.0690
vn 0.0507 0.0938 -0.9943
vn -0.0599 0.1161 0.9914
vn -0.0704 0.1179 0.9905
vn 0.0158 0.1028 0.9946
vn 0.7121 -0.0570 0.6997
vn -0.0995 0.9895 0.1050
vn 0.9640 -0.1118 -0.2414
vn 0.0629 -0.9888 -0.1355
vn 0.0343 0.9966 0.0744
vn 0.1028 -0.9902 -0.0949
vn 0.6596 0.7486 -0.0676
vn 0.9273 -0.1051 0.3592
vn -0.0057 0.0644 -0.9979
vn 0.9546 -0.0660 0.2905
vn -0.9618 0.1790 0.2072
vn 0.9294 0.1331 0.3443
vn 0.0067 -0.0516 0.9986
vn 0.9446 0.1153 0.3073
vn 0.9627 0.0216 0.2697
vn -0.9739 -0.1216 0.1915
vn 0.0053 -0.0051 1.0000
vn 0.9311 -0.0684 0.3582
vn -0.0072 -0.0534 -0.9985
vn 0.9309 -0.1087 0.3487
vn -0.0142 -0.1981 -0.9801
vn 0.9355 -0.1718 0.3086
vn -0.9749 -0.0986 0.1994
vn 0.0052 -0.0227 0.9997
vn 0.0057 0.0017 1.0000
vn -0.9192 0.3312 0.2132
vn 0.0061 0.0050 1.0000
vn 0.9517 -0.1761 0.2517
vn -0.0095 -0.0398 -0.9992
vn 0.9602 0.0066 0.2792
vn 0.9421 0.2070 0.2637
vn -0.0054 0.0913 -0.9958
vn 0.9331 0.1834 0.3092
vn -0.9311 -0.3168 0.1809
vn 0.9347 0.2535 0.2490
vn -0.9806 -0.0034 0.1961
vn 0.0049 0.0068 1.0000
vn 0.9620 0.0065 0.2730
vn -0.0068 -0.0069 -1.0000
vn 0.9487 -0.0841 0.3047
vn -0.0086 -0.1068 -0.9942
vn 0.9256 0.2574 0.2774
vn -0.9541 -0.2355 0.1850
vn 0.0059 -0.0097 0.9999
vn -0.0071 0.9999 -0.0096
vn -0.9466 0.2555 0.1967
vn 0.0053 0.0074 1.0000
vn 0.9620 -0.0713 0.2636
vn -0.0058 0.0969 -0.9953
usemtl Material.001
s off
f 2/1/1 3/2/1 4/3/1 5/4/1 6/5/1 7/6/1 8/7/1 9/8/1 10/9/1 11/10/1 12/11/1 13/12/1 14/13/1 15/14/1 16/15/1 17/16/1 18/17/1 19/18/1 1/19/1
f 21/20/2 20/21/2 38/22/2 37/23/2 36/24/2 35/25/2 34/26/2 33/27/2 32/28/2 31/29/2 30/30/2 29/31/2 28/32/2 27/33/2 26/34/2 25/35/2 24/36/2 23/37/2 22/38/2
f 2/39/3 21/40/3 22/41/3 3/42/3
f 17/43/4 36/44/4 37/45/4 18/46/4
f 13/47/5 43/48/5 48/49/5 32/50/5
f 3/42/6 22/41/6 23/51/6 4/52/6
f 18/46/7 37/45/7 38/53/7 19/54/7
f 42/55/8 58/56/8 57/57/8 41/58/8
f 4/52/9 23/51/9 24/59/9 5/60/9
f 19/54/10 38/53/10 59/61/10 1/62/10
f 12/63/11 52/64/11 53/65/11 13/66/11
f 5/60/12 24/59/12 25/67/12 6/68/12
f 13/47/13 32/50/13 33/69/13 14/70/13
f 6/68/14 25/67/14 26/71/14 7/72/14
f 14/70/15 33/69/15 34/73/15 15/74/15
f 7/72/16 26/71/16 27/75/16 8/76/16
f 15/74/17 34/73/17 35/77/17 16/78/17
f 8/76/18 27/75/18 28/79/18 9/80/18
f 16/78/19 35/77/19 36/44/19 17/43/19
f 30/30/20 46/81/20 45/82/20 29/31/20
f 40/83/21 45/84/21 46/85/21 41/58/21
f 41/86/22 46/87/22 47/88/22 42/89/22
f 42/55/23 47/90/23 48/91/23 43/92/23
f 39/93/24 44/94/24 45/84/24 40/83/24
f 28/79/25 44/95/25 39/96/25 9/80/25
f 31/29/26 47/97/26 46/81/26 30/30/26
f 39/96/27 55/98/27 49/99/27 9/80/27
f 32/28/28 48/100/28 47/97/28 31/29/28
f 41/58/29 57/57/29 56/101/29 40/83/29
f 29/31/30 45/82/30 44/102/30 28/32/30
f 49/103/31 55/104/31 56/105/31 50/106/31
f 52/107/32 58/108/32 54/109/32 53/110/32
f 50/106/33 56/105/33 57/111/33 51/112/33
f 51/113/34 57/114/34 58/115/34 52/116/34
f 9/117/35 49/118/35 50/119/35 10/120/35
f 13/47/36 53/121/36 54/122/36 43/48/36
f 43/92/37 54/123/37 58/56/37 42/55/37
f 10/120/38 50/119/38 51/124/38 11/125/38
f 40/83/39 56/101/39 55/126/39 39/93/39
f 11/125/40 51/124/40 52/64/40 12/63/40
f 59/61/41 38/53/41 20/127/41
f 20/21/42 21/20/42 63/128/42 62/129/42
f 60/130/43 64/131/43 69/132/43 65/133/43
f 21/40/44 2/39/44 61/134/44 63/135/44
f 59/61/45 20/127/45 62/136/45 64/131/45
f 2/1/46 1/19/46 60/137/46 61/138/46
f 1/62/47 59/61/47 64/131/47 60/130/47
f 69/132/48 67/139/48 72/140/48 74/141/48
f 63/135/49 61/134/49 66/142/49 68/143/49
f 61/138/50 60/137/50 65/144/50 66/145/50
f 64/131/51 62/136/51 67/139/51 69/132/51
f 62/129/52 63/128/52 68/146/52 67/147/52
f 70/148/53 74/141/53 79/149/53 75/150/53
f 67/147/54 68/146/54 73/151/54 72/152/54
f 65/133/55 69/132/55 74/141/55 70/148/55
f 68/143/56 66/142/56 71/153/56 73/154/56
f 66/145/57 65/144/57 70/155/57 71/156/57
f 76/157/58 75/158/58 80/159/58 81/160/58
f 73/154/59 71/153/59 76/161/59 78/162/59
f 71/156/60 70/155/60 75/158/60 76/157/60
f 74/141/61 72/140/61 77/163/61 79/149/61
f 72/152/62 73/151/62 78/164/62 77/165/62
f 80/166/63 84/167/63 89/168/63 85/169/63
f 79/149/64 77/163/64 82/170/64 84/167/64
f 77/165/65 78/164/65 83/171/65 82/172/65
f 75/150/66 79/149/66 84/167/66 80/166/66
f 78/162/67 76/161/67 81/173/67 83/174/67
f 89/168/68 87/175/68 92/176/68 94/177/68
f 83/174/69 81/173/69 86/178/69 88/179/69
f 81/160/70 80/159/70 85/180/70 86/181/70
f 84/167/71 82/170/71 87/175/71 89/168/71
f 82/172/72 83/171/72 88/182/72 87/183/72
f 90/184/73 94/177/73 99/185/73 95/186/73
f 87/183/74 88/182/74 93/187/74 92/188/74
f 85/169/75 89/168/75 94/177/75 90/184/75
f 88/179/76 86/178/76 91/189/76 93/190/76
f 86/181/77 85/180/77 90/191/77 91/192/77
f 96/193/78 95/194/78 99/195/78 97/196/78 98/197/78
f 93/190/79 91/189/79 96/198/79 98/199/79
f 91/192/80 90/191/80 95/200/80 96/201/80
f 94/177/81 92/176/81 97/202/81 99/185/81
f 92/188/82 93/187/82 98/203/82 97/204/82
