# Blender v2.93.5 OBJ File: 'salisnuevos.blend'
# www.blender.org
mtllib plano5.mtl
o Plane.023_Plane.024
v 110.980667 388.372437 -4.946829
v -137.505966 380.970764 -3.755407
v -136.403061 -52.290035 -4.193718
v -160.604813 -83.168060 -2.897404
v -148.273743 -114.487869 -1.452438
v -136.353058 -252.371719 2.631359
v -184.482086 -317.097778 4.910053
v -202.630615 -368.585815 7.037197
v -158.570816 -440.371490 9.910629
v -70.962372 -432.262177 8.739201
v 61.755440 -436.446136 7.564320
v 86.534523 -457.617279 7.279579
v 133.885651 -454.020844 2.749977
v 115.372734 -339.762146 3.153641
v 111.195374 -210.996368 -0.978168
v 128.145340 -164.203568 -2.194115
v 182.535080 -95.276291 -4.791834
v 181.546509 -58.599709 -6.006470
v 194.563171 -19.184858 -7.294153
v 151.219696 381.673431 -104.103821
v -160.050568 385.496246 -102.204208
v -165.733032 -51.298065 -100.488625
v -170.547897 -70.994301 -99.761436
v -170.878769 -109.101608 -98.994217
v -187.382751 -265.420013 -95.055008
v -236.693924 -346.714233 -92.929077
v -253.857269 -404.623535 -91.707680
v -212.741608 -425.427582 -90.098450
v -99.049034 -416.819122 -85.227524
v 69.224655 -420.395111 -88.298271
v 101.549088 -443.746094 -110.087769
v 167.177795 -453.532593 -106.447838
v 155.993713 -345.398254 -93.010971
v 157.062256 -214.080841 -97.303894
v 176.459656 -162.398361 -98.415665
v 226.908722 -82.674660 -100.672249
v 229.000519 -56.711510 -101.311478
v 241.479248 -18.334343 -102.350899
v -169.339462 -492.442078 6.910629
v -80.540207 -484.365417 12.923416
v 52.019886 -487.914795 9.847492
v 74.006714 -505.596466 -21.059677
v 126.325226 -503.654236 -16.742336
v -219.402161 -474.414185 -96.253891
v -108.380760 -464.602692 -88.716179
v 56.923939 -469.085693 -92.137207
v 101.983086 -508.296265 -133.115677
v 159.715057 -509.159271 -128.931183
v -134.427841 -450.428955 118.900200
v -45.317238 -441.744659 122.930565
v 85.445129 -446.090668 121.427437
v 111.344421 -470.387756 94.825584
v 161.372208 -467.092773 97.794640
v 152.998596 -518.256836 103.139259
v -142.817017 -501.560822 124.232399
v -55.143707 -492.990997 128.229858
v 75.623344 -497.324371 126.719444
v 101.510826 -521.639771 100.132515
v -141.526276 1003.547913 -10.963223
v 147.199387 1004.250610 -111.311638
v 106.960358 1010.949585 -12.154646
v -164.070862 1008.073425 -109.412018
v 129.180496 538.941345 -6.469484
v -141.438446 497.130341 -102.987694
v 169.513336 517.713501 -105.458275
v -118.918381 496.403839 -4.582882
v 166.160736 43.244213 -6.903248
v 212.032074 53.306168 -102.692780
v -147.420670 13.283060 -10.891674
v -158.025314 26.726561 -107.737701
v -146.849686 60.379776 -4.040676
v -171.782852 58.418102 -101.069893
v 156.875153 158.598785 -6.577095
v 200.927567 151.060196 -102.857346
v 125.024132 254.722015 -5.783697
v 167.596985 253.923538 -103.494186
v -207.501190 188.835373 -3.915028
v -241.393112 179.633194 -101.469009
v -184.148651 358.457428 -101.865341
v -151.988724 368.564270 -3.820662
v 128.413498 328.047241 -5.324564
v 170.894913 308.355347 -103.753937
v -205.797882 299.174469 -101.576370
v -178.371002 280.760406 -3.893940
v 172.167633 278.868805 -103.613220
v 129.594849 288.021118 -5.575193
v -226.728714 124.591232 -101.235329
v -168.308334 147.421844 -3.966417
v 218.292892 105.403008 -101.826317
v 173.663086 113.640381 -5.769979
v 78.309906 682.461609 -8.351612
v 118.496056 683.949951 -107.603394
v -173.490723 685.184814 -105.283630
v -151.010666 690.652954 -6.950527
v -162.875519 822.964233 -107.268944
v -140.283447 811.084412 -8.735001
v 138.376877 922.082397 -10.304974
v 178.481995 936.120789 -109.702057
vt 0.482623 -0.351101
vt 0.569845 -0.274925
vt 0.732291 0.267699
vt 0.911375 0.835752
vt 0.679470 1.093939
vt 0.556026 1.633943
vt 0.562884 1.922416
vt 0.499790 2.332150
vt 0.645920 2.522939
vt 0.573771 2.718131
vt 0.509569 3.574544
vt 0.800391 3.974379
vt 0.911375 4.293466
vt 0.651680 4.741343
vt 0.127925 4.694412
vt -0.664685 4.725594
vt -0.811546 4.857670
vt -1.094090 4.835358
vt -0.989777 4.127073
vt -0.971336 3.327451
vt -1.075017 3.037813
vt -1.403436 2.612084
vt -1.399381 2.384316
vt -1.479149 2.140172
vt -1.312909 1.752454
vt -1.361730 1.317310
vt -1.263779 1.037749
vt -1.078829 0.441382
vt -1.107987 0.235441
vt -1.103149 -0.012396
vt -1.002337 -0.386608
vt -1.939211 1.266743
vt -3.798891 1.275041
vt -3.925649 0.824520
vt -3.936962 0.642626
vt -3.912795 0.488143
vt -4.124864 -0.143221
vt -4.234457 -0.422695
vt -4.203455 -0.745705
vt -4.388378 -1.184829
vt -4.318779 -1.422511
vt -4.309620 -1.582676
vt -4.018536 -2.078981
vt -3.909280 -2.399533
vt -3.919923 -3.207911
vt -3.998406 -3.883416
vt -3.604626 -3.832345
vt -3.411618 -3.677279
vt -2.406363 -3.671103
vt -1.727591 -3.739576
vt -1.479149 -3.616515
vt -1.574264 -3.257813
vt -1.858372 -2.751843
vt -1.936859 -1.787171
vt -1.933961 -1.552271
vt -1.960159 -1.430582
vt -1.995437 -0.952597
vt -1.910209 -0.753949
vt -1.573671 -0.351194
vt -1.479149 -0.012945
vt -1.676814 0.729119
vt -1.798684 1.097394
vt 1.319739 -0.313754
vt 1.957650 -0.385123
vt 2.006729 -0.219564
vt 1.349275 -0.238182
vt 3.230716 2.559190
vt 2.570530 2.437749
vt 2.572345 2.275987
vt 3.239718 2.332604
vt 3.239491 4.804044
vt 3.120005 5.110539
vt 2.378695 5.103055
vt 2.518535 4.760203
vt 1.501630 2.370708
vt 2.139057 2.321541
vt 2.150799 2.443465
vt 1.546625 2.560451
vt 2.554714 2.032106
vt 3.219877 2.081981
vt 4.701316 -2.563944
vt 3.908057 -2.486759
vt 3.773050 -2.651116
vt 4.532176 -2.710002
vt 2.162574 2.679875
vt 1.530474 2.756202
vt 2.642299 1.603892
vt 3.306075 1.710366
vt 4.493420 -1.550214
vt 3.926775 -1.684650
vt 3.902894 -1.983771
vt 4.517752 -1.834342
vt 2.231076 3.648650
vt 1.543379 3.613315
vt 2.663946 4.100083
vt 3.324975 4.106898
vt 2.333587 4.148921
vt 1.636077 4.011094
vt 2.686817 3.286494
vt 3.358858 3.311782
vt 2.378695 4.506740
vt 1.674587 4.329419
vt 2.659337 2.956814
vt 3.334018 3.013557
vt 2.309539 4.639935
vt 1.614127 4.779294
vt -2.036319 1.957717
vt -1.820997 3.114309
vt -1.866895 3.965128
vt -1.836295 5.106915
vt -3.695974 5.115215
vt -3.891598 4.698800
vt -3.565099 3.136262
vt -3.890964 2.116348
vt -3.343698 -3.981842
vt -2.356114 -3.969518
vt 4.601934 -3.497962
vt 5.274443 -3.589175
vt 5.184799 -2.606869
vt 3.905532 3.935368
vt 3.773049 3.320851
vt 4.010912 3.138364
vt 4.010912 3.779622
vt 5.388378 -2.323432
vt 5.323581 -1.983771
vt 4.641052 -2.255681
vt 4.692813 -4.023465
vt 5.388378 -4.246087
vt 2.378695 4.940291
vt 1.672055 5.099724
vt -3.612111 -4.246087
vt 0.913981 5.207829
vt 0.911375 4.889506
vt -3.957676 -4.242524
vt 3.852023 -3.427149
vt -1.693080 -4.046884
vt 3.814713 1.823967
vt 4.132876 1.767941
vt 4.091741 2.293291
vt 3.773049 2.357923
vt 3.781594 4.260479
vt 3.773049 3.935368
vt 4.074428 4.002160
vt 4.074428 4.325406
vt 4.132876 3.073760
vt 3.814266 3.138363
vt 4.010912 3.571456
vt 4.011005 3.246854
vt 4.245439 3.138366
vt 4.245439 3.463099
vt 4.517752 -0.090313
vt 3.816114 -0.218760
vt 3.782982 -0.752365
vt 4.517628 -0.615455
vt 3.743323 4.891840
vt 3.773049 5.213661
vt 3.857544 -2.182122
vt 3.773050 -1.532349
vt 4.505429 -1.407112
vt 3.929125 -3.947466
vt 1.245830 -1.027708
vt 1.885018 -1.075519
vt -1.119123 -1.319072
vt -0.822784 -2.211074
vt -1.194544 -3.693446
vt -1.011457 -4.246087
vt 0.473503 -4.210577
vt 0.476322 -3.017458
vt 0.546779 -2.271204
vt 0.365353 -1.065608
vt 3.567125 -0.395643
vt 2.888648 -0.396349
vt 2.894622 -1.247215
vt 3.577906 -1.336349
vt 3.773049 1.635920
vt 3.776223 0.150154
vt 4.402537 -0.090313
vt 4.402537 1.767942
vt 1.232233 -2.235120
vt 1.873503 -2.244514
vt 2.654413 1.278733
vt 3.324234 1.271467
vt 1.533445 1.960625
vt 2.138072 1.835723
vt 1.470893 1.671735
vt 2.106776 1.640947
vt 3.372106 1.001752
vt 2.702434 1.004940
vt 2.808488 0.385534
vt 3.480973 0.423596
vt 2.807796 0.228926
vt 3.485460 0.215397
vt 1.516760 0.870525
vt 2.173697 0.883593
vt 2.171013 1.226027
vt 1.469559 1.130553
vt 2.065536 0.145981
vt 1.430044 0.303512
vt 3.504898 -0.031482
vt 2.821022 0.047188
vt 3.053370 -2.249915
vt 3.729140 -2.198583
vt 3.012040 -3.840234
vt 3.683659 -3.711297
vt 1.175092 -2.981140
vt 1.810528 -3.098116
vt 1.110365 -4.174717
vt 1.748276 -4.246087
vt 3.094571 -4.246087
vt 3.773049 -4.245380
vn 0.0071 0.0145 0.9999
vn -0.0034 -0.0139 -0.9999
vn -0.7031 0.6889 0.1762
vn 0.9015 -0.0031 0.4328
vn 0.9266 -0.2458 0.2847
vn -0.8453 0.4932 0.2055
vn 0.8641 -0.2705 0.4245
vn -0.6237 -0.7801 0.0505
vn -0.9752 -0.1638 0.1485
vn 0.8313 0.3585 0.4247
vn -0.0672 0.9850 0.1587
vn -0.9357 0.0242 0.3520
vn 0.9366 0.1043 0.3345
vn -0.7893 0.5358 0.2999
vn 0.9123 0.0241 0.4088
vn -0.8825 0.2960 0.3655
vn 0.8546 -0.3055 0.4200
vn -0.6770 -0.6023 0.4229
vn -0.0061 -0.0117 -0.9999
vn 0.7754 -0.5360 0.3339
vn -0.0175 0.0796 -0.9967
vn -0.0305 -0.9827 -0.1828
vn -0.7339 -0.6596 -0.1624
vn 0.0068 -0.9992 0.0384
vn 0.1017 -0.9707 -0.2178
vn -0.8772 0.1089 0.4677
vn -0.4801 0.2498 -0.8409
vn -0.9560 0.1827 0.2295
vn 0.0892 0.3482 -0.9332
vn -0.0311 -0.9970 -0.0709
vn 0.0474 0.0913 -0.9947
vn -0.0561 0.1130 0.9920
vn -0.0659 0.1148 0.9912
vn 0.0148 0.1000 0.9949
vn 0.6886 -0.0573 0.7229
vn -0.0958 0.9895 0.1080
vn 0.9595 -0.1157 -0.2567
vn 0.0605 -0.9884 -0.1393
vn 0.0330 0.9965 0.0764
vn 0.0990 -0.9903 -0.0976
vn 0.6451 0.7608 -0.0707
vn -0.9614 0.1591 0.2243
vn 0.0043 0.0117 0.9999
vn 0.9148 -0.1126 0.3879
vn -0.0065 0.9999 -0.0116
vn -0.9616 -0.1586 0.2238
vn 0.8995 -0.1080 0.4233
vn -0.9793 -0.0029 0.2023
vn -0.9676 -0.1904 0.1661
vn 0.8790 0.2876 0.3802
vn 0.9050 -0.1426 0.4009
vn -0.7832 -0.4365 0.4429
vn -0.9097 0.2975 0.2896
vn 0.9044 0.2510 0.3451
vn -0.9122 0.2793 0.2997
vn 0.9189 0.0318 0.3931
vn -0.8189 -0.4081 0.4034
vn 0.8661 0.3340 0.3719
vn 0.8943 0.2985 0.3335
vn 0.9104 -0.2193 0.3508
vn -0.9708 0.0835 0.2250
vn -0.9748 -0.0037 0.2231
vn 0.8629 0.3526 0.3622
usemtl Material.026
s off
f 2/1/1 80/2/1 84/3/1 77/4/1 88/5/1 71/6/1 69/7/1 3/8/1 4/9/1 5/10/1 6/11/1 7/12/1 8/13/1 9/14/1 10/15/1 11/16/1 12/17/1 13/18/1 14/19/1 15/20/1 16/21/1 17/22/1 18/23/1 19/24/1 67/25/1 90/26/1 73/27/1 75/28/1 86/29/1 81/30/1 1/31/1
f 21/32/2 20/33/2 82/34/2 85/35/2 76/36/2 74/37/2 89/38/2 68/39/2 38/40/2 37/41/2 36/42/2 35/43/2 34/44/2 33/45/2 32/46/2 31/47/2 30/48/2 29/49/2 28/50/2 27/51/2 26/52/2 25/53/2 24/54/2 23/55/2 22/56/2 70/57/2 72/58/2 87/59/2 78/60/2 83/61/2 79/62/2
f 2/63/3 21/64/3 79/65/3 80/66/3
f 17/67/4 36/68/4 37/69/4 18/70/4
f 13/71/5 43/72/5 48/73/5 32/74/5
f 3/75/6 22/76/6 23/77/6 4/78/6
f 18/70/7 37/69/7 38/79/7 19/80/7
f 42/81/8 58/82/8 57/83/8 41/84/8
f 4/78/9 23/77/9 24/85/9 5/86/9
f 19/80/10 38/79/10 68/87/10 67/88/10
f 12/89/11 52/90/11 53/91/11 13/92/11
f 5/86/12 24/85/12 25/93/12 6/94/12
f 13/71/13 32/74/13 33/95/13 14/96/13
f 6/94/14 25/93/14 26/97/14 7/98/14
f 14/96/15 33/95/15 34/99/15 15/100/15
f 7/98/16 26/97/16 27/101/16 8/102/16
f 15/100/17 34/99/17 35/103/17 16/104/17
f 8/102/18 27/101/18 28/105/18 9/106/18
f 20/33/19 21/32/19 64/107/19 93/108/19 95/109/19 62/110/19 60/111/19 98/112/19 92/113/19 65/114/19
f 16/104/20 35/103/20 36/68/20 17/67/20
f 30/48/21 46/115/21 45/116/21 29/49/21
f 40/117/22 45/118/22 46/119/22 41/84/22
f 41/120/23 46/121/23 47/122/23 42/123/23
f 42/81/24 47/124/24 48/125/24 43/126/24
f 39/127/25 44/128/25 45/118/25 40/117/25
f 28/105/26 44/129/26 39/130/26 9/106/26
f 31/47/27 47/131/27 46/115/27 30/48/27
f 39/130/28 55/132/28 49/133/28 9/106/28
f 32/46/29 48/134/29 47/131/29 31/47/29
f 41/84/30 57/83/30 56/135/30 40/117/30
f 29/49/31 45/116/31 44/136/31 28/50/31
f 49/137/32 55/138/32 56/139/32 50/140/32
f 52/141/33 58/142/33 54/143/33 53/144/33
f 50/140/34 56/139/34 57/145/34 51/146/34
f 51/147/35 57/148/35 58/149/35 52/150/35
f 9/151/36 49/152/36 50/153/36 10/154/36
f 13/71/37 53/155/37 54/156/37 43/72/37
f 43/126/38 54/157/38 58/82/38 42/81/38
f 10/154/39 50/153/39 51/158/39 11/159/39
f 40/117/40 56/135/40 55/160/40 39/127/40
f 11/159/41 51/158/41 52/90/41 12/89/41
f 21/64/42 2/63/42 66/161/42 64/162/42
f 2/1/43 1/31/43 63/163/43 91/164/43 97/165/43 61/166/43 59/167/43 96/168/43 94/169/43 66/170/43
f 1/171/44 20/172/44 65/173/44 63/174/44
f 59/175/45 61/176/45 60/177/45 62/178/45
f 64/162/46 66/161/46 94/179/46 93/180/46
f 67/88/47 68/87/47 89/181/47 90/182/47
f 69/183/48 70/184/48 22/76/48 3/75/48
f 71/185/49 72/186/49 70/184/49 69/183/49
f 73/187/50 74/188/50 76/189/50 75/190/50
f 75/190/51 76/189/51 85/191/51 86/192/51
f 77/193/52 78/194/52 87/195/52 88/196/52
f 80/66/53 79/65/53 83/197/53 84/198/53
f 81/199/54 82/200/54 20/172/54 1/171/54
f 84/198/55 83/197/55 78/194/55 77/193/55
f 86/192/56 85/191/56 82/200/56 81/199/56
f 88/196/57 87/195/57 72/186/57 71/185/57
f 90/182/58 89/181/58 74/188/58 73/187/58
f 63/174/59 65/173/59 92/201/59 91/202/59
f 91/202/60 92/201/60 98/203/60 97/204/60
f 93/180/61 94/179/61 96/205/61 95/206/61
f 95/206/62 96/205/62 59/207/62 62/208/62
f 97/204/63 98/203/63 60/209/63 61/210/63
