# Blender v2.93.5 OBJ File: 'salisnuevos.blend'
# www.blender.org
mtllib sali55.mtl
o Cube.009_Cube.008
v -59.277489 22.676340 -20.847610
v -56.164257 11.660602 -6.041679
v -60.060081 -11.349185 2.299475
v -22.904926 36.426243 -17.243814
v -24.415911 32.774281 -11.418223
v -27.659674 24.934313 1.088081
v -23.457649 12.776393 13.900288
v -25.978119 -10.596237 1.103674
v -25.978119 -34.116306 1.103674
v 2.592685 41.957829 -23.522875
v 2.592685 26.911919 -5.745661
v 9.402162 12.923836 1.103674
v 9.402162 -10.596237 1.103674
v 9.402162 -34.116306 1.103674
v 7.995160 24.482210 -34.175732
v 9.859586 20.874075 -31.383226
v 20.807281 4.588992 -16.731924
v 28.931086 -8.902793 -13.282355
v 27.610483 -35.912270 -15.627386
v 26.315409 -57.406597 -18.230495
v 61.131824 -32.418114 -27.050184
v -25.782541 -36.566704 0.698429
v 2.592685 44.066940 -26.014862
v 10.111835 -40.943066 3.350291
v 49.034046 4.279646 -25.865034
v 9.746041 -56.813000 -12.275591
v -55.086349 29.716818 -29.028555
v 58.658630 -11.286684 -24.058367
v -56.063648 -35.543972 2.207390
v 38.707760 26.240931 -42.106731
v 39.628429 23.844481 -40.235455
v -52.814365 32.815102 -35.545315
v -9.821164 41.209457 -22.638653
v -3.710154 -45.555931 2.147127
v -52.198105 37.311691 17.028498
v -45.958874 -3.952926 27.712225
v -44.508041 -18.387075 28.251381
v -20.410957 57.176750 7.882145
v -22.858133 49.854351 21.778805
v -22.778227 21.506796 43.208229
v -22.987507 3.944788 46.467163
v -19.173349 -17.878010 28.881079
v -17.927786 -36.341129 28.532578
v 3.391081 46.807480 14.224080
v 9.099059 16.348433 28.598480
v 8.105847 -1.901040 29.101604
v 10.140036 -21.535078 28.271757
v 10.496631 -36.322521 27.324232
v 18.600286 33.544140 -5.306245
v 25.191914 20.582752 4.380479
v 38.327461 -13.118874 13.459001
v 36.073872 -31.137856 12.760646
v 35.892609 -48.839268 10.745304
v 35.092461 -65.382889 8.969707
v 60.924793 -46.364944 1.078716
v -17.722075 -38.241287 28.668676
v 3.229016 54.401604 5.591015
v 10.911633 -41.904404 27.469933
v 54.241924 8.101100 8.541518
v 22.340698 -36.239971 28.090696
v -47.611023 46.374943 4.589686
v 59.219891 -28.982386 4.872073
v -40.935551 -37.060028 28.183447
v 40.434029 35.298134 -13.607368
v 47.434624 21.295544 -2.229482
v -44.485569 51.441433 -3.772158
v -5.987633 52.685577 7.621894
v 1.047332 -46.122978 28.283756
vt 0.800383 0.390482
vt 0.712125 0.406604
vt 0.744512 0.530464
vt 0.816352 0.532395
vt 0.670086 0.393715
vt 0.693299 0.510242
vt 0.431687 0.554305
vt 0.516893 0.555178
vt 0.525221 0.436461
vt 0.439314 0.444052
vt 0.533426 0.554036
vt 0.535951 0.434576
vt 0.844474 0.247392
vt 0.768434 0.262489
vt 0.871408 0.378323
vt 0.855758 0.308947
vt 0.692395 0.277586
vt 0.643597 0.260470
vt 0.420896 0.680142
vt 0.506416 0.673600
vt 0.518404 0.672683
vt 0.817985 0.114148
vt 0.741946 0.129245
vt 0.665425 0.154578
vt 0.319911 0.777144
vt 0.381040 0.785854
vt 0.385189 0.667915
vt 0.440573 0.772889
vt 0.468304 0.766849
vt 0.498376 0.718078
vt 0.718597 0.000485
vt 0.648979 0.029379
vt 0.395250 0.906939
vt 0.464632 0.914315
vt 0.505335 0.896263
vt 0.799830 0.000000
vt 0.535951 0.888579
vt 0.866576 0.245830
vt 0.826143 0.113285
vt 0.871408 0.190736
vt 0.374538 0.197117
vt 0.363075 0.259830
vt 0.419731 0.239690
vt 0.430887 0.186494
vt 0.542258 0.215965
vt 0.486712 0.183419
vt 0.060005 0.361574
vt 0.101443 0.434266
vt 0.168617 0.432595
vt 0.165721 0.340832
vt 0.239520 0.431537
vt 0.228617 0.337993
vt 0.270067 0.526261
vt 0.293658 0.525192
vt 0.319911 0.526732
vt 0.319911 0.471536
vt 0.273260 0.477538
vt 0.389778 0.146678
vt 0.451288 0.130638
vt 0.507923 0.126377
vt 0.055303 0.259870
vt 0.155966 0.243299
vt 0.201070 0.241418
vt 0.363786 0.093941
vt 0.344697 0.157489
vt 0.421671 0.081820
vt 0.470847 0.000000
vt 0.529273 0.004464
vt 0.624293 0.153288
vt 0.643597 0.069756
vt 0.126170 0.148913
vt 0.188892 0.206849
vt 0.191959 0.154171
vt 0.101306 0.782852
vt 0.123502 0.823861
vt 0.213725 0.851782
vt 0.142821 0.759217
vt 0.261708 0.816737
vt 0.245612 0.655513
vt 0.120784 0.030417
vt 0.000000 0.148549
vt 0.183843 0.045205
vt 0.322381 0.206079
vt 0.047722 0.813315
vt 0.068305 0.849411
vt 0.224713 0.054892
vt 0.271323 0.544658
vt 0.535951 0.522221
vt 0.539280 0.522221
vt 0.537636 0.434576
vt 0.326863 0.160317
vt 0.357563 0.094722
vt 0.319911 0.138710
vt 1.000000 0.413946
vt 0.876638 0.384120
vt 0.881746 0.465567
vt 0.997104 0.520583
vt 0.619556 0.434576
vt 0.643597 0.304657
vt 0.591515 0.259030
vt 0.610881 0.426907
vt 0.538610 0.369863
vt 0.319911 0.000000
vt 0.259008 0.123841
vt 0.136915 0.527989
vt 0.257067 0.605713
vt 0.148613 0.495609
vt 0.261708 0.573682
vt 0.149542 0.471536
vt 0.129254 0.600916
vt 0.480554 0.370131
vt 0.411147 0.387501
vt 0.318481 0.346643
vt 0.319911 0.471536
vt 0.069927 0.655838
vt 0.309359 0.219063
vt 0.994045 0.226882
vt 0.875816 0.238799
vt 0.877161 0.286539
vt 0.982670 0.290898
vt 0.987280 0.345962
vt 0.872752 0.326778
vt 0.289633 0.172602
vt 1.000000 0.000000
vt 0.882152 0.067757
vt 0.871408 0.190563
vt 0.992916 0.161489
vt 0.000000 0.694309
vn -0.3311 0.0961 -0.9387
vn -0.3186 -0.3537 -0.8795
vn -0.1884 -0.6803 -0.7083
vn -0.1556 -0.6499 -0.7439
vn -0.5793 0.1910 -0.7924
vn -0.5952 0.0528 -0.8018
vn -0.8028 -0.5350 -0.2634
vn -0.8793 -0.4545 -0.1422
vn -0.9535 -0.3012 0.0105
vn 0.0000 0.0000 -1.0000
vn -0.1781 0.2680 -0.9468
vn -0.2078 -0.6423 -0.7377
vn -0.0453 -0.7946 -0.6054
vn 0.0329 -0.8141 -0.5798
vn 0.2684 0.0553 -0.9617
vn 0.4499 -0.6219 -0.6410
vn 0.3592 -0.8140 -0.4564
vn -0.3321 0.1331 -0.9338
vn -0.0358 -0.0011 -0.9994
vn 0.3194 -0.8692 -0.3775
vn -0.9928 -0.0716 0.0960
vn -0.0438 0.1596 -0.9862
vn 0.0462 -0.1037 -0.9935
vn 0.3508 -0.1381 0.9262
vn 0.3419 -0.0574 0.9380
vn 0.0432 0.4049 0.9133
vn 0.2058 0.6648 0.7182
vn 0.7240 0.2285 0.6509
vn 0.5017 -0.0410 0.8641
vn 0.4461 -0.0447 0.8939
vn 0.7229 0.4144 0.5528
vn 0.8096 0.5158 0.2802
vn 0.0291 -0.0375 0.9989
vn 0.2105 -0.3719 0.9041
vn 0.4621 0.0773 0.8835
vn 0.3684 0.5096 0.7775
vn 0.2076 0.8400 0.5013
vn -0.2669 -0.4415 0.8566
vn -0.6366 0.1155 0.7625
vn -0.3828 0.6449 0.6615
vn 0.3678 -0.1168 0.9225
vn -0.0199 -0.0138 0.9997
vn -0.3810 0.8451 0.3750
vn -0.0647 0.0212 0.9977
vn -0.0173 0.0696 0.9974
vn 0.0474 0.0547 0.9974
vn -0.0419 -0.9983 -0.0410
vn 0.9337 0.3178 -0.1649
vn 0.9290 0.3272 -0.1727
vn 0.1865 0.7909 -0.5828
vn -0.8884 0.4587 -0.0199
vn -0.8731 0.4849 -0.0506
vn -0.9705 -0.0598 0.2334
vn 0.9939 0.0992 0.0488
vn 0.9630 0.2681 -0.0290
vn -0.1468 0.9519 -0.2691
vn -0.8821 0.1625 0.4422
vn 0.7733 0.5477 -0.3194
vn -0.3479 -0.8744 0.3382
vn -0.3824 -0.9225 0.0524
vn -0.2690 0.9143 -0.3029
vn 0.4692 -0.7937 -0.3872
vn 0.3495 -0.9345 -0.0671
vn -0.5299 -0.7876 0.3144
vn -0.1100 0.8645 -0.4904
vn -0.8616 -0.1539 0.4837
usemtl Material.077
s off
f 19/1/1 18/2/1 28/3/1 21/4/1
f 18/2/2 17/5/2 25/6/2 28/3/2
f 17/7/3 16/8/3 31/9/3 25/10/3
f 16/8/4 15/11/4 30/12/4 31/9/4
f 14/13/5 13/14/5 19/1/5 20/15/5 26/16/5
f 13/14/6 12/17/6 18/2/6 19/1/6
f 12/17/7 11/18/7 17/5/7 18/2/7
f 11/19/8 10/20/8 16/8/8 17/7/8
f 10/20/9 23/21/9 15/11/9 16/8/9
f 9/22/10 8/23/10 13/14/10 14/13/10
f 8/23/11 7/24/11 12/17/11 13/14/11
f 7/25/12 6/26/12 11/19/12 12/27/12
f 6/26/13 5/28/13 10/20/13 11/19/13
f 5/28/14 4/29/14 33/30/14 23/21/14 10/20/14
f 3/31/15 2/32/15 7/24/15 8/23/15
f 2/33/16 1/34/16 6/26/16 7/25/16
f 1/34/17 27/35/17 5/28/17 6/26/17
f 21/4/18 20/15/18 19/1/18
f 29/36/19 3/31/19 8/23/19 9/22/19
f 27/35/20 32/37/20 4/29/20 5/28/20
f 26/16/21 24/38/21 14/13/21
f 22/39/22 29/36/22 9/22/22
f 24/38/23 34/40/23 22/39/23 9/22/23 14/13/23
f 53/41/24 55/42/24 62/43/24 52/44/24
f 52/44/25 62/43/25 59/45/25 51/46/25
f 51/47/26 59/48/26 65/49/26 50/50/26
f 50/50/27 65/49/27 64/51/27 49/52/27
f 48/53/28 60/54/28 54/55/28 53/56/28 47/57/28
f 47/58/29 53/41/29 52/44/29 46/59/29
f 46/59/30 52/44/30 51/46/30 45/60/30
f 45/61/31 51/47/31 50/50/31 44/62/31
f 44/62/32 50/50/32 49/52/32 57/63/32
f 43/64/33 48/65/33 47/58/33 42/66/33
f 42/66/34 47/58/34 46/59/34 41/67/34
f 41/67/35 46/59/35 45/60/35 40/68/35
f 40/68/36 45/60/36 44/69/36 39/70/36
f 39/71/37 44/62/37 57/63/37 67/72/37 38/73/37
f 37/74/38 42/75/38 41/76/38 36/77/38
f 36/77/39 41/76/39 40/78/39 35/79/39
f 35/80/40 40/81/40 39/71/40 61/82/40
f 55/42/41 53/41/41 54/83/41
f 63/84/42 43/85/42 42/75/42 37/74/42
f 61/82/43 39/71/43 38/73/43 66/86/43
f 60/54/44 48/53/44 58/87/44
f 56/88/45 43/89/45 63/90/45
f 58/91/46 48/65/46 43/64/46 56/92/46 68/93/46
f 22/94/47 56/95/47 63/96/47 29/97/47
f 30/98/48 64/99/48 65/100/48 31/101/48
f 31/101/49 65/100/49 59/45/49 25/102/49
f 32/103/50 66/86/50 38/73/50 4/104/50
f 1/105/51 35/79/51 61/106/51 27/107/51
f 27/107/52 61/106/52 66/108/52 32/109/52
f 2/110/53 36/77/53 35/79/53 1/105/53
f 28/111/54 62/43/54 55/42/54 21/112/54
f 25/102/55 59/45/55 62/43/55 28/111/55
f 15/113/56 49/52/56 64/51/56 30/114/56
f 3/115/57 37/74/57 36/77/57 2/110/57
f 23/116/58 57/63/58 49/52/58 15/113/58
f 26/117/59 60/118/59 58/119/59 24/120/59
f 34/121/60 68/122/60 56/95/60 22/94/60
f 33/123/61 67/72/61 57/63/61 23/116/61
f 21/124/62 55/125/62 54/126/62 20/127/62
f 24/120/63 58/119/63 68/122/63 34/121/63
f 20/127/64 54/126/64 60/118/64 26/117/64
f 4/104/65 38/73/65 67/72/65 33/123/65
f 29/128/66 63/84/66 37/74/66 3/115/66
